%TF.GenerationSoftware,KiCad,Pcbnew,9.0.2*%
%TF.CreationDate,2025-08-30T18:06:16+02:00*%
%TF.ProjectId,Afterburner_Nano,41667465-7262-4757-926e-65725f4e616e,rev?*%
%TF.SameCoordinates,Original*%
%TF.FileFunction,Copper,L2,Bot*%
%TF.FilePolarity,Positive*%
%FSLAX46Y46*%
G04 Gerber Fmt 4.6, Leading zero omitted, Abs format (unit mm)*
G04 Created by KiCad (PCBNEW 9.0.2) date 2025-08-30 18:06:16*
%MOMM*%
%LPD*%
G01*
G04 APERTURE LIST*
%TA.AperFunction,ComponentPad*%
%ADD10C,1.308000*%
%TD*%
%TA.AperFunction,ComponentPad*%
%ADD11R,1.308000X1.308000*%
%TD*%
%TA.AperFunction,ComponentPad*%
%ADD12C,1.950000*%
%TD*%
%TA.AperFunction,ComponentPad*%
%ADD13C,0.510000*%
%TD*%
%TA.AperFunction,ComponentPad*%
%ADD14R,1.950000X1.950000*%
%TD*%
%TA.AperFunction,ViaPad*%
%ADD15C,0.600000*%
%TD*%
%TA.AperFunction,Conductor*%
%ADD16C,0.200000*%
%TD*%
G04 APERTURE END LIST*
D10*
%TO.P,J3,4,4*%
%TO.N,/Temperature_probe/FORCE_P*%
X177400000Y-31800000D03*
%TO.P,J3,3,3*%
%TO.N,/Temperature_probe/RTDIN+*%
X177400000Y-33800000D03*
%TO.P,J3,2,2*%
%TO.N,/Temperature_probe/RTDIN-*%
X177400000Y-35800000D03*
D11*
%TO.P,J3,1,1*%
%TO.N,/Temperature_probe/FORCE_N*%
X177400000Y-37800000D03*
%TD*%
D12*
%TO.P,J2,MH1,MH1*%
%TO.N,unconnected-(J2-PadMH1)*%
X210537000Y-43495000D03*
%TO.P,J2,MH2,MH2*%
%TO.N,unconnected-(J2-PadMH2)*%
X213537000Y-43495000D03*
%TO.P,J2,MH3,MH3*%
%TO.N,unconnected-(J2-PadMH3)*%
X213537000Y-33705000D03*
%TO.P,J2,MH4,MH4*%
%TO.N,unconnected-(J2-PadMH4)*%
X210537000Y-33705000D03*
D13*
%TO.P,J2,MH5*%
%TO.N,N/C*%
X210637000Y-41850000D03*
%TO.P,J2,MH6*%
X210637000Y-35350000D03*
%TD*%
D12*
%TO.P,J1,MH1,MH1*%
%TO.N,unconnected-(J1-PadMH1)*%
X210549000Y-29495000D03*
%TO.P,J1,MH2,MH2*%
%TO.N,unconnected-(J1-PadMH2)*%
X213549000Y-29495000D03*
%TO.P,J1,MH3,MH3*%
%TO.N,unconnected-(J1-PadMH3)*%
X213549000Y-19705000D03*
%TO.P,J1,MH4,MH4*%
%TO.N,unconnected-(J1-PadMH4)*%
X210549000Y-19705000D03*
D13*
%TO.P,J1,MH5*%
%TO.N,N/C*%
X210649000Y-27850000D03*
%TO.P,J1,MH6*%
X210649000Y-21350000D03*
%TD*%
D14*
%TO.P,J4,1,1*%
%TO.N,unconnected-(J4-Pad1)*%
X176100000Y-20815000D03*
D12*
%TO.P,J4,2,2*%
%TO.N,unconnected-(J4-Pad2)*%
X176100000Y-25895000D03*
%TD*%
D15*
%TO.N,GND*%
X204700000Y-38100000D03*
X203900000Y-40500000D03*
X203900000Y-35700000D03*
%TO.N,/USB_C_CONNECTOR/CC2*%
X206086623Y-35704010D03*
%TO.N,Net-(PD1-VOUT)*%
X190100000Y-19250000D03*
X201800000Y-21900000D03*
%TO.N,Net-(PD1-PWR_EN)*%
X194500000Y-21700000D03*
X194600000Y-18896000D03*
X201300000Y-21000000D03*
%TO.N,/USB_C/VBUS_SENSED*%
X200491409Y-20986409D03*
X198965000Y-19460000D03*
%TO.N,/USB_C/CC2*%
X206098623Y-21704010D03*
%TO.N,GND*%
X203912000Y-21700000D03*
%TO.N,/USB_C/CC2*%
X202012000Y-25900000D03*
%TO.N,GND*%
X203912000Y-26500000D03*
X203212000Y-25600000D03*
X203795520Y-23338661D03*
X204712000Y-24100000D03*
%TD*%
D16*
%TO.N,/USB_C_CONNECTOR/CC2*%
X206086623Y-35813377D02*
X206086623Y-35704010D01*
%TO.N,Net-(PD1-VOUT)*%
X201200000Y-22500000D02*
X201800000Y-21900000D01*
X193400000Y-22500000D02*
X201200000Y-22500000D01*
X190150000Y-19250000D02*
X193400000Y-22500000D01*
X190100000Y-19250000D02*
X190150000Y-19250000D01*
%TO.N,Net-(PD1-PWR_EN)*%
X194600000Y-21350000D02*
X194600000Y-18896000D01*
X194500000Y-21700000D02*
X194500000Y-21450000D01*
X194500000Y-21450000D02*
X194600000Y-21350000D01*
X199196000Y-18896000D02*
X194600000Y-18896000D01*
X201300000Y-21000000D02*
X199196000Y-18896000D01*
%TO.N,/USB_C/VBUS_SENSED*%
X200491409Y-20986409D02*
X198965000Y-19460000D01*
%TO.N,/USB_C/CC2*%
X206098623Y-21813377D02*
X206098623Y-21704010D01*
X202012000Y-25900000D02*
X206098623Y-21813377D01*
%TD*%
M02*
