%TF.GenerationSoftware,KiCad,Pcbnew,9.0.2*%
%TF.CreationDate,2025-08-30T18:06:16+02:00*%
%TF.ProjectId,Afterburner_Nano,41667465-7262-4757-926e-65725f4e616e,rev?*%
%TF.SameCoordinates,Original*%
%TF.FileFunction,Soldermask,Bot*%
%TF.FilePolarity,Negative*%
%FSLAX46Y46*%
G04 Gerber Fmt 4.6, Leading zero omitted, Abs format (unit mm)*
G04 Created by KiCad (PCBNEW 9.0.2) date 2025-08-30 18:06:16*
%MOMM*%
%LPD*%
G01*
G04 APERTURE LIST*
G04 APERTURE END LIST*
G36*
X210834832Y-42513179D02*
G01*
X211020653Y-42590149D01*
X211187888Y-42701891D01*
X211330109Y-42844112D01*
X211441851Y-43011347D01*
X211518821Y-43197168D01*
X211558060Y-43394434D01*
X211558060Y-43595566D01*
X211518821Y-43792832D01*
X211441851Y-43978653D01*
X211330109Y-44145888D01*
X211187888Y-44288109D01*
X211020653Y-44399851D01*
X210834832Y-44476821D01*
X210637566Y-44516060D01*
X210436434Y-44516060D01*
X210239168Y-44476821D01*
X210053347Y-44399851D01*
X209886112Y-44288109D01*
X209743891Y-44145888D01*
X209632149Y-43978653D01*
X209555179Y-43792832D01*
X209515940Y-43595566D01*
X209515940Y-43394434D01*
X209555179Y-43197168D01*
X209632149Y-43011347D01*
X209743891Y-42844112D01*
X209886112Y-42701891D01*
X210053347Y-42590149D01*
X210239168Y-42513179D01*
X210436434Y-42473940D01*
X210637566Y-42473940D01*
X210834832Y-42513179D01*
G37*
G36*
X213834832Y-42513179D02*
G01*
X214020653Y-42590149D01*
X214187888Y-42701891D01*
X214330109Y-42844112D01*
X214441851Y-43011347D01*
X214518821Y-43197168D01*
X214558060Y-43394434D01*
X214558060Y-43595566D01*
X214518821Y-43792832D01*
X214441851Y-43978653D01*
X214330109Y-44145888D01*
X214187888Y-44288109D01*
X214020653Y-44399851D01*
X213834832Y-44476821D01*
X213637566Y-44516060D01*
X213436434Y-44516060D01*
X213239168Y-44476821D01*
X213053347Y-44399851D01*
X212886112Y-44288109D01*
X212743891Y-44145888D01*
X212632149Y-43978653D01*
X212555179Y-43792832D01*
X212515940Y-43595566D01*
X212515940Y-43394434D01*
X212555179Y-43197168D01*
X212632149Y-43011347D01*
X212743891Y-42844112D01*
X212886112Y-42701891D01*
X213053347Y-42590149D01*
X213239168Y-42513179D01*
X213436434Y-42473940D01*
X213637566Y-42473940D01*
X213834832Y-42513179D01*
G37*
G36*
X210754101Y-41567293D02*
G01*
X210823281Y-41607234D01*
X210879766Y-41663719D01*
X210919707Y-41732899D01*
X210940382Y-41810059D01*
X210940382Y-41889941D01*
X210919707Y-41967101D01*
X210879766Y-42036281D01*
X210823281Y-42092766D01*
X210754101Y-42132707D01*
X210676941Y-42153382D01*
X210597059Y-42153382D01*
X210519899Y-42132707D01*
X210450719Y-42092766D01*
X210394234Y-42036281D01*
X210354293Y-41967101D01*
X210333618Y-41889941D01*
X210333618Y-41810059D01*
X210354293Y-41732899D01*
X210394234Y-41663719D01*
X210450719Y-41607234D01*
X210519899Y-41567293D01*
X210597059Y-41546618D01*
X210676941Y-41546618D01*
X210754101Y-41567293D01*
G37*
G36*
X178093034Y-37051764D02*
G01*
X178126125Y-37073875D01*
X178148236Y-37106966D01*
X178156000Y-37146000D01*
X178156000Y-38454000D01*
X178148236Y-38493034D01*
X178126125Y-38526125D01*
X178093034Y-38548236D01*
X178054000Y-38556000D01*
X176746000Y-38556000D01*
X176706966Y-38548236D01*
X176673875Y-38526125D01*
X176651764Y-38493034D01*
X176644000Y-38454000D01*
X176644000Y-37146000D01*
X176651764Y-37106966D01*
X176673875Y-37073875D01*
X176706966Y-37051764D01*
X176746000Y-37044000D01*
X178054000Y-37044000D01*
X178093034Y-37051764D01*
G37*
G36*
X177619455Y-35076553D02*
G01*
X177756376Y-35133268D01*
X177879601Y-35215604D01*
X177984396Y-35320399D01*
X178066732Y-35443624D01*
X178123447Y-35580545D01*
X178152360Y-35725899D01*
X178152360Y-35874101D01*
X178123447Y-36019455D01*
X178066732Y-36156376D01*
X177984396Y-36279601D01*
X177879601Y-36384396D01*
X177756376Y-36466732D01*
X177619455Y-36523447D01*
X177474101Y-36552360D01*
X177325899Y-36552360D01*
X177180545Y-36523447D01*
X177043624Y-36466732D01*
X176920399Y-36384396D01*
X176815604Y-36279601D01*
X176733268Y-36156376D01*
X176676553Y-36019455D01*
X176647640Y-35874101D01*
X176647640Y-35725899D01*
X176676553Y-35580545D01*
X176733268Y-35443624D01*
X176815604Y-35320399D01*
X176920399Y-35215604D01*
X177043624Y-35133268D01*
X177180545Y-35076553D01*
X177325899Y-35047640D01*
X177474101Y-35047640D01*
X177619455Y-35076553D01*
G37*
G36*
X210754101Y-35067293D02*
G01*
X210823281Y-35107234D01*
X210879766Y-35163719D01*
X210919707Y-35232899D01*
X210940382Y-35310059D01*
X210940382Y-35389941D01*
X210919707Y-35467101D01*
X210879766Y-35536281D01*
X210823281Y-35592766D01*
X210754101Y-35632707D01*
X210676941Y-35653382D01*
X210597059Y-35653382D01*
X210519899Y-35632707D01*
X210450719Y-35592766D01*
X210394234Y-35536281D01*
X210354293Y-35467101D01*
X210333618Y-35389941D01*
X210333618Y-35310059D01*
X210354293Y-35232899D01*
X210394234Y-35163719D01*
X210450719Y-35107234D01*
X210519899Y-35067293D01*
X210597059Y-35046618D01*
X210676941Y-35046618D01*
X210754101Y-35067293D01*
G37*
G36*
X210834832Y-32723179D02*
G01*
X211020653Y-32800149D01*
X211187888Y-32911891D01*
X211330109Y-33054112D01*
X211441851Y-33221347D01*
X211518821Y-33407168D01*
X211558060Y-33604434D01*
X211558060Y-33805566D01*
X211518821Y-34002832D01*
X211441851Y-34188653D01*
X211330109Y-34355888D01*
X211187888Y-34498109D01*
X211020653Y-34609851D01*
X210834832Y-34686821D01*
X210637566Y-34726060D01*
X210436434Y-34726060D01*
X210239168Y-34686821D01*
X210053347Y-34609851D01*
X209886112Y-34498109D01*
X209743891Y-34355888D01*
X209632149Y-34188653D01*
X209555179Y-34002832D01*
X209515940Y-33805566D01*
X209515940Y-33604434D01*
X209555179Y-33407168D01*
X209632149Y-33221347D01*
X209743891Y-33054112D01*
X209886112Y-32911891D01*
X210053347Y-32800149D01*
X210239168Y-32723179D01*
X210436434Y-32683940D01*
X210637566Y-32683940D01*
X210834832Y-32723179D01*
G37*
G36*
X213834832Y-32723179D02*
G01*
X214020653Y-32800149D01*
X214187888Y-32911891D01*
X214330109Y-33054112D01*
X214441851Y-33221347D01*
X214518821Y-33407168D01*
X214558060Y-33604434D01*
X214558060Y-33805566D01*
X214518821Y-34002832D01*
X214441851Y-34188653D01*
X214330109Y-34355888D01*
X214187888Y-34498109D01*
X214020653Y-34609851D01*
X213834832Y-34686821D01*
X213637566Y-34726060D01*
X213436434Y-34726060D01*
X213239168Y-34686821D01*
X213053347Y-34609851D01*
X212886112Y-34498109D01*
X212743891Y-34355888D01*
X212632149Y-34188653D01*
X212555179Y-34002832D01*
X212515940Y-33805566D01*
X212515940Y-33604434D01*
X212555179Y-33407168D01*
X212632149Y-33221347D01*
X212743891Y-33054112D01*
X212886112Y-32911891D01*
X213053347Y-32800149D01*
X213239168Y-32723179D01*
X213436434Y-32683940D01*
X213637566Y-32683940D01*
X213834832Y-32723179D01*
G37*
G36*
X177619455Y-33076553D02*
G01*
X177756376Y-33133268D01*
X177879601Y-33215604D01*
X177984396Y-33320399D01*
X178066732Y-33443624D01*
X178123447Y-33580545D01*
X178152360Y-33725899D01*
X178152360Y-33874101D01*
X178123447Y-34019455D01*
X178066732Y-34156376D01*
X177984396Y-34279601D01*
X177879601Y-34384396D01*
X177756376Y-34466732D01*
X177619455Y-34523447D01*
X177474101Y-34552360D01*
X177325899Y-34552360D01*
X177180545Y-34523447D01*
X177043624Y-34466732D01*
X176920399Y-34384396D01*
X176815604Y-34279601D01*
X176733268Y-34156376D01*
X176676553Y-34019455D01*
X176647640Y-33874101D01*
X176647640Y-33725899D01*
X176676553Y-33580545D01*
X176733268Y-33443624D01*
X176815604Y-33320399D01*
X176920399Y-33215604D01*
X177043624Y-33133268D01*
X177180545Y-33076553D01*
X177325899Y-33047640D01*
X177474101Y-33047640D01*
X177619455Y-33076553D01*
G37*
G36*
X177619455Y-31076553D02*
G01*
X177756376Y-31133268D01*
X177879601Y-31215604D01*
X177984396Y-31320399D01*
X178066732Y-31443624D01*
X178123447Y-31580545D01*
X178152360Y-31725899D01*
X178152360Y-31874101D01*
X178123447Y-32019455D01*
X178066732Y-32156376D01*
X177984396Y-32279601D01*
X177879601Y-32384396D01*
X177756376Y-32466732D01*
X177619455Y-32523447D01*
X177474101Y-32552360D01*
X177325899Y-32552360D01*
X177180545Y-32523447D01*
X177043624Y-32466732D01*
X176920399Y-32384396D01*
X176815604Y-32279601D01*
X176733268Y-32156376D01*
X176676553Y-32019455D01*
X176647640Y-31874101D01*
X176647640Y-31725899D01*
X176676553Y-31580545D01*
X176733268Y-31443624D01*
X176815604Y-31320399D01*
X176920399Y-31215604D01*
X177043624Y-31133268D01*
X177180545Y-31076553D01*
X177325899Y-31047640D01*
X177474101Y-31047640D01*
X177619455Y-31076553D01*
G37*
G36*
X210846832Y-28513179D02*
G01*
X211032653Y-28590149D01*
X211199888Y-28701891D01*
X211342109Y-28844112D01*
X211453851Y-29011347D01*
X211530821Y-29197168D01*
X211570060Y-29394434D01*
X211570060Y-29595566D01*
X211530821Y-29792832D01*
X211453851Y-29978653D01*
X211342109Y-30145888D01*
X211199888Y-30288109D01*
X211032653Y-30399851D01*
X210846832Y-30476821D01*
X210649566Y-30516060D01*
X210448434Y-30516060D01*
X210251168Y-30476821D01*
X210065347Y-30399851D01*
X209898112Y-30288109D01*
X209755891Y-30145888D01*
X209644149Y-29978653D01*
X209567179Y-29792832D01*
X209527940Y-29595566D01*
X209527940Y-29394434D01*
X209567179Y-29197168D01*
X209644149Y-29011347D01*
X209755891Y-28844112D01*
X209898112Y-28701891D01*
X210065347Y-28590149D01*
X210251168Y-28513179D01*
X210448434Y-28473940D01*
X210649566Y-28473940D01*
X210846832Y-28513179D01*
G37*
G36*
X213846832Y-28513179D02*
G01*
X214032653Y-28590149D01*
X214199888Y-28701891D01*
X214342109Y-28844112D01*
X214453851Y-29011347D01*
X214530821Y-29197168D01*
X214570060Y-29394434D01*
X214570060Y-29595566D01*
X214530821Y-29792832D01*
X214453851Y-29978653D01*
X214342109Y-30145888D01*
X214199888Y-30288109D01*
X214032653Y-30399851D01*
X213846832Y-30476821D01*
X213649566Y-30516060D01*
X213448434Y-30516060D01*
X213251168Y-30476821D01*
X213065347Y-30399851D01*
X212898112Y-30288109D01*
X212755891Y-30145888D01*
X212644149Y-29978653D01*
X212567179Y-29792832D01*
X212527940Y-29595566D01*
X212527940Y-29394434D01*
X212567179Y-29197168D01*
X212644149Y-29011347D01*
X212755891Y-28844112D01*
X212898112Y-28701891D01*
X213065347Y-28590149D01*
X213251168Y-28513179D01*
X213448434Y-28473940D01*
X213649566Y-28473940D01*
X213846832Y-28513179D01*
G37*
G36*
X210766101Y-27567293D02*
G01*
X210835281Y-27607234D01*
X210891766Y-27663719D01*
X210931707Y-27732899D01*
X210952382Y-27810059D01*
X210952382Y-27889941D01*
X210931707Y-27967101D01*
X210891766Y-28036281D01*
X210835281Y-28092766D01*
X210766101Y-28132707D01*
X210688941Y-28153382D01*
X210609059Y-28153382D01*
X210531899Y-28132707D01*
X210462719Y-28092766D01*
X210406234Y-28036281D01*
X210366293Y-27967101D01*
X210345618Y-27889941D01*
X210345618Y-27810059D01*
X210366293Y-27732899D01*
X210406234Y-27663719D01*
X210462719Y-27607234D01*
X210531899Y-27567293D01*
X210609059Y-27546618D01*
X210688941Y-27546618D01*
X210766101Y-27567293D01*
G37*
G36*
X176397832Y-24913179D02*
G01*
X176583653Y-24990149D01*
X176750888Y-25101891D01*
X176893109Y-25244112D01*
X177004851Y-25411347D01*
X177081821Y-25597168D01*
X177121060Y-25794434D01*
X177121060Y-25995566D01*
X177081821Y-26192832D01*
X177004851Y-26378653D01*
X176893109Y-26545888D01*
X176750888Y-26688109D01*
X176583653Y-26799851D01*
X176397832Y-26876821D01*
X176200566Y-26916060D01*
X175999434Y-26916060D01*
X175802168Y-26876821D01*
X175616347Y-26799851D01*
X175449112Y-26688109D01*
X175306891Y-26545888D01*
X175195149Y-26378653D01*
X175118179Y-26192832D01*
X175078940Y-25995566D01*
X175078940Y-25794434D01*
X175118179Y-25597168D01*
X175195149Y-25411347D01*
X175306891Y-25244112D01*
X175449112Y-25101891D01*
X175616347Y-24990149D01*
X175802168Y-24913179D01*
X175999434Y-24873940D01*
X176200566Y-24873940D01*
X176397832Y-24913179D01*
G37*
G36*
X177094517Y-19792882D02*
G01*
X177111062Y-19803938D01*
X177122118Y-19820483D01*
X177126000Y-19840000D01*
X177126000Y-21790000D01*
X177122118Y-21809517D01*
X177111062Y-21826062D01*
X177094517Y-21837118D01*
X177075000Y-21841000D01*
X175125000Y-21841000D01*
X175105483Y-21837118D01*
X175088938Y-21826062D01*
X175077882Y-21809517D01*
X175074000Y-21790000D01*
X175074000Y-19840000D01*
X175077882Y-19820483D01*
X175088938Y-19803938D01*
X175105483Y-19792882D01*
X175125000Y-19789000D01*
X177075000Y-19789000D01*
X177094517Y-19792882D01*
G37*
G36*
X210766101Y-21067293D02*
G01*
X210835281Y-21107234D01*
X210891766Y-21163719D01*
X210931707Y-21232899D01*
X210952382Y-21310059D01*
X210952382Y-21389941D01*
X210931707Y-21467101D01*
X210891766Y-21536281D01*
X210835281Y-21592766D01*
X210766101Y-21632707D01*
X210688941Y-21653382D01*
X210609059Y-21653382D01*
X210531899Y-21632707D01*
X210462719Y-21592766D01*
X210406234Y-21536281D01*
X210366293Y-21467101D01*
X210345618Y-21389941D01*
X210345618Y-21310059D01*
X210366293Y-21232899D01*
X210406234Y-21163719D01*
X210462719Y-21107234D01*
X210531899Y-21067293D01*
X210609059Y-21046618D01*
X210688941Y-21046618D01*
X210766101Y-21067293D01*
G37*
G36*
X210846832Y-18723179D02*
G01*
X211032653Y-18800149D01*
X211199888Y-18911891D01*
X211342109Y-19054112D01*
X211453851Y-19221347D01*
X211530821Y-19407168D01*
X211570060Y-19604434D01*
X211570060Y-19805566D01*
X211530821Y-20002832D01*
X211453851Y-20188653D01*
X211342109Y-20355888D01*
X211199888Y-20498109D01*
X211032653Y-20609851D01*
X210846832Y-20686821D01*
X210649566Y-20726060D01*
X210448434Y-20726060D01*
X210251168Y-20686821D01*
X210065347Y-20609851D01*
X209898112Y-20498109D01*
X209755891Y-20355888D01*
X209644149Y-20188653D01*
X209567179Y-20002832D01*
X209527940Y-19805566D01*
X209527940Y-19604434D01*
X209567179Y-19407168D01*
X209644149Y-19221347D01*
X209755891Y-19054112D01*
X209898112Y-18911891D01*
X210065347Y-18800149D01*
X210251168Y-18723179D01*
X210448434Y-18683940D01*
X210649566Y-18683940D01*
X210846832Y-18723179D01*
G37*
G36*
X213846832Y-18723179D02*
G01*
X214032653Y-18800149D01*
X214199888Y-18911891D01*
X214342109Y-19054112D01*
X214453851Y-19221347D01*
X214530821Y-19407168D01*
X214570060Y-19604434D01*
X214570060Y-19805566D01*
X214530821Y-20002832D01*
X214453851Y-20188653D01*
X214342109Y-20355888D01*
X214199888Y-20498109D01*
X214032653Y-20609851D01*
X213846832Y-20686821D01*
X213649566Y-20726060D01*
X213448434Y-20726060D01*
X213251168Y-20686821D01*
X213065347Y-20609851D01*
X212898112Y-20498109D01*
X212755891Y-20355888D01*
X212644149Y-20188653D01*
X212567179Y-20002832D01*
X212527940Y-19805566D01*
X212527940Y-19604434D01*
X212567179Y-19407168D01*
X212644149Y-19221347D01*
X212755891Y-19054112D01*
X212898112Y-18911891D01*
X213065347Y-18800149D01*
X213251168Y-18723179D01*
X213448434Y-18683940D01*
X213649566Y-18683940D01*
X213846832Y-18723179D01*
G37*
M02*
