%TF.GenerationSoftware,KiCad,Pcbnew,9.0.2*%
%TF.CreationDate,2025-08-30T18:06:16+02:00*%
%TF.ProjectId,Afterburner_Nano,41667465-7262-4757-926e-65725f4e616e,rev?*%
%TF.SameCoordinates,Original*%
%TF.FileFunction,Copper,L1,Top*%
%TF.FilePolarity,Positive*%
%FSLAX46Y46*%
G04 Gerber Fmt 4.6, Leading zero omitted, Abs format (unit mm)*
G04 Created by KiCad (PCBNEW 9.0.2) date 2025-08-30 18:06:16*
%MOMM*%
%LPD*%
G01*
G04 APERTURE LIST*
G04 Aperture macros list*
%AMRoundRect*
0 Rectangle with rounded corners*
0 $1 Rounding radius*
0 $2 $3 $4 $5 $6 $7 $8 $9 X,Y pos of 4 corners*
0 Add a 4 corners polygon primitive as box body*
4,1,4,$2,$3,$4,$5,$6,$7,$8,$9,$2,$3,0*
0 Add four circle primitives for the rounded corners*
1,1,$1+$1,$2,$3*
1,1,$1+$1,$4,$5*
1,1,$1+$1,$6,$7*
1,1,$1+$1,$8,$9*
0 Add four rect primitives between the rounded corners*
20,1,$1+$1,$2,$3,$4,$5,0*
20,1,$1+$1,$4,$5,$6,$7,0*
20,1,$1+$1,$6,$7,$8,$9,0*
20,1,$1+$1,$8,$9,$2,$3,0*%
%AMRotRect*
0 Rectangle, with rotation*
0 The origin of the aperture is its center*
0 $1 length*
0 $2 width*
0 $3 Rotation angle, in degrees counterclockwise*
0 Add horizontal line*
21,1,$1,$2,0,0,$3*%
%AMFreePoly0*
4,1,153,0.056581,0.104743,0.058810,0.104000,0.060000,0.104000,0.061581,0.103743,0.063810,0.103000,0.065000,0.103000,0.066581,0.102743,0.069581,0.101743,0.070236,0.101472,0.071920,0.100630,0.074581,0.099743,0.076536,0.098536,0.077964,0.097108,0.079236,0.096472,0.080536,0.095536,0.081964,0.094108,0.083236,0.093472,0.084536,0.092536,0.092536,0.084536,0.093472,0.083236,
0.094108,0.081964,0.095536,0.080536,0.096472,0.079236,0.097108,0.077964,0.098536,0.076536,0.099743,0.074581,0.100630,0.071920,0.101472,0.070236,0.101743,0.069581,0.102743,0.066581,0.103000,0.065000,0.103000,0.063810,0.103743,0.061581,0.104000,0.060000,0.104000,0.058810,0.104743,0.056581,0.105000,0.055000,0.105000,-0.055000,0.104743,-0.056581,0.104000,-0.058810,
0.104000,-0.060000,0.103743,-0.061581,0.103000,-0.063810,0.103000,-0.065000,0.102743,-0.066581,0.101743,-0.069581,0.101472,-0.070236,0.100630,-0.071920,0.099743,-0.074581,0.098536,-0.076536,0.097108,-0.077964,0.096472,-0.079236,0.095536,-0.080536,0.094108,-0.081964,0.093472,-0.083236,0.092536,-0.084536,0.084536,-0.092536,0.083236,-0.093472,0.081964,-0.094108,0.080536,-0.095536,
0.079236,-0.096472,0.077964,-0.097108,0.076536,-0.098536,0.074581,-0.099743,0.071920,-0.100630,0.070236,-0.101472,0.069581,-0.101743,0.066581,-0.102743,0.065000,-0.103000,0.063810,-0.103000,0.061581,-0.103743,0.060000,-0.104000,0.058810,-0.104000,0.056581,-0.104743,0.055000,-0.105000,-0.055000,-0.105000,-0.056581,-0.104743,-0.058810,-0.104000,-0.060000,-0.104000,-0.061581,-0.103743,
-0.063810,-0.103000,-0.065000,-0.103000,-0.066581,-0.102743,-0.069581,-0.101743,-0.070236,-0.101472,-0.071920,-0.100630,-0.074581,-0.099743,-0.076536,-0.098536,-0.077964,-0.097108,-0.079236,-0.096472,-0.080536,-0.095536,-0.081964,-0.094108,-0.083236,-0.093472,-0.084536,-0.092536,-0.092536,-0.084536,-0.093472,-0.083236,-0.094108,-0.081964,-0.095536,-0.080536,-0.096472,-0.079236,-0.097108,-0.077964,
-0.098536,-0.076536,-0.099743,-0.074581,-0.100630,-0.071920,-0.101472,-0.070236,-0.101743,-0.069581,-0.102743,-0.066581,-0.103000,-0.065000,-0.103000,-0.063810,-0.103743,-0.061581,-0.104000,-0.060000,-0.104000,-0.058810,-0.104743,-0.056581,-0.105000,-0.055000,-0.105000,0.055000,-0.104743,0.056581,-0.104000,0.058810,-0.104000,0.060000,-0.103743,0.061581,-0.103000,0.063810,-0.103000,0.065000,
-0.102743,0.066581,-0.101743,0.069581,-0.101472,0.070236,-0.100630,0.071920,-0.099743,0.074581,-0.098536,0.076536,-0.097108,0.077964,-0.096472,0.079236,-0.095536,0.080536,-0.094108,0.081964,-0.093472,0.083236,-0.092536,0.084536,-0.084536,0.092536,-0.083236,0.093472,-0.081964,0.094108,-0.080536,0.095536,-0.079236,0.096472,-0.077964,0.097108,-0.076536,0.098536,-0.074581,0.099743,
-0.071920,0.100630,-0.070236,0.101472,-0.069581,0.101743,-0.066581,0.102743,-0.065000,0.103000,-0.063810,0.103000,-0.061581,0.103743,-0.060000,0.104000,-0.058810,0.104000,-0.056581,0.104743,-0.055000,0.105000,0.055000,0.105000,0.056581,0.104743,0.056581,0.104743,$1*%
G04 Aperture macros list end*
%TA.AperFunction,SMDPad,CuDef*%
%ADD10RoundRect,0.140000X-0.170000X0.140000X-0.170000X-0.140000X0.170000X-0.140000X0.170000X0.140000X0*%
%TD*%
%TA.AperFunction,SMDPad,CuDef*%
%ADD11RoundRect,0.100000X-0.100000X0.130000X-0.100000X-0.130000X0.100000X-0.130000X0.100000X0.130000X0*%
%TD*%
%TA.AperFunction,SMDPad,CuDef*%
%ADD12RoundRect,0.100000X-0.130000X-0.100000X0.130000X-0.100000X0.130000X0.100000X-0.130000X0.100000X0*%
%TD*%
%TA.AperFunction,SMDPad,CuDef*%
%ADD13R,0.350000X1.000000*%
%TD*%
%TA.AperFunction,SMDPad,CuDef*%
%ADD14R,1.000000X0.350000*%
%TD*%
%TA.AperFunction,SMDPad,CuDef*%
%ADD15R,3.350000X3.350000*%
%TD*%
%TA.AperFunction,ComponentPad*%
%ADD16C,1.308000*%
%TD*%
%TA.AperFunction,ComponentPad*%
%ADD17R,1.308000X1.308000*%
%TD*%
%TA.AperFunction,SMDPad,CuDef*%
%ADD18RoundRect,0.100000X0.130000X0.100000X-0.130000X0.100000X-0.130000X-0.100000X0.130000X-0.100000X0*%
%TD*%
%TA.AperFunction,SMDPad,CuDef*%
%ADD19RoundRect,0.100000X0.100000X-0.130000X0.100000X0.130000X-0.100000X0.130000X-0.100000X-0.130000X0*%
%TD*%
%TA.AperFunction,SMDPad,CuDef*%
%ADD20R,1.900000X1.100000*%
%TD*%
%TA.AperFunction,SMDPad,CuDef*%
%ADD21R,4.050000X4.050000*%
%TD*%
%TA.AperFunction,SMDPad,CuDef*%
%ADD22R,0.850000X0.200000*%
%TD*%
%TA.AperFunction,SMDPad,CuDef*%
%ADD23R,0.200000X0.850000*%
%TD*%
%TA.AperFunction,SMDPad,CuDef*%
%ADD24R,1.550000X0.600000*%
%TD*%
%TA.AperFunction,SMDPad,CuDef*%
%ADD25R,1.550000X0.300000*%
%TD*%
%TA.AperFunction,ComponentPad*%
%ADD26C,1.950000*%
%TD*%
%TA.AperFunction,ComponentPad*%
%ADD27C,0.510000*%
%TD*%
%TA.AperFunction,SMDPad,CuDef*%
%ADD28R,0.310000X0.600000*%
%TD*%
%TA.AperFunction,SMDPad,CuDef*%
%ADD29R,1.750000X1.500000*%
%TD*%
%TA.AperFunction,SMDPad,CuDef*%
%ADD30R,0.825000X0.230000*%
%TD*%
%TA.AperFunction,SMDPad,CuDef*%
%ADD31R,0.600000X0.500000*%
%TD*%
%TA.AperFunction,SMDPad,CuDef*%
%ADD32FreePoly0,0.000000*%
%TD*%
%TA.AperFunction,SMDPad,CuDef*%
%ADD33R,1.150000X1.800000*%
%TD*%
%TA.AperFunction,SMDPad,CuDef*%
%ADD34RoundRect,0.135000X0.135000X0.185000X-0.135000X0.185000X-0.135000X-0.185000X0.135000X-0.185000X0*%
%TD*%
%TA.AperFunction,SMDPad,CuDef*%
%ADD35RoundRect,0.135000X-0.185000X0.135000X-0.185000X-0.135000X0.185000X-0.135000X0.185000X0.135000X0*%
%TD*%
%TA.AperFunction,SMDPad,CuDef*%
%ADD36R,2.950000X3.500000*%
%TD*%
%TA.AperFunction,SMDPad,CuDef*%
%ADD37RoundRect,0.135000X-0.135000X-0.185000X0.135000X-0.185000X0.135000X0.185000X-0.135000X0.185000X0*%
%TD*%
%TA.AperFunction,SMDPad,CuDef*%
%ADD38RoundRect,0.250000X0.650000X-0.325000X0.650000X0.325000X-0.650000X0.325000X-0.650000X-0.325000X0*%
%TD*%
%TA.AperFunction,SMDPad,CuDef*%
%ADD39RoundRect,0.140000X-0.140000X-0.170000X0.140000X-0.170000X0.140000X0.170000X-0.140000X0.170000X0*%
%TD*%
%TA.AperFunction,SMDPad,CuDef*%
%ADD40RoundRect,0.250000X0.250000X0.475000X-0.250000X0.475000X-0.250000X-0.475000X0.250000X-0.475000X0*%
%TD*%
%TA.AperFunction,SMDPad,CuDef*%
%ADD41RoundRect,0.250000X-0.250000X-0.475000X0.250000X-0.475000X0.250000X0.475000X-0.250000X0.475000X0*%
%TD*%
%TA.AperFunction,SMDPad,CuDef*%
%ADD42RoundRect,0.225000X0.250000X-0.225000X0.250000X0.225000X-0.250000X0.225000X-0.250000X-0.225000X0*%
%TD*%
%TA.AperFunction,SMDPad,CuDef*%
%ADD43R,0.300000X0.475000*%
%TD*%
%TA.AperFunction,SMDPad,CuDef*%
%ADD44RotRect,2.700000X2.700000X45.000000*%
%TD*%
%TA.AperFunction,SMDPad,CuDef*%
%ADD45RotRect,0.300000X0.750000X315.000000*%
%TD*%
%TA.AperFunction,SMDPad,CuDef*%
%ADD46RotRect,0.300000X0.750000X45.000000*%
%TD*%
%TA.AperFunction,SMDPad,CuDef*%
%ADD47RoundRect,0.200000X0.275000X-0.200000X0.275000X0.200000X-0.275000X0.200000X-0.275000X-0.200000X0*%
%TD*%
%TA.AperFunction,SMDPad,CuDef*%
%ADD48RoundRect,0.225000X-0.335876X-0.017678X-0.017678X-0.335876X0.335876X0.017678X0.017678X0.335876X0*%
%TD*%
%TA.AperFunction,SMDPad,CuDef*%
%ADD49R,1.000000X1.400000*%
%TD*%
%TA.AperFunction,SMDPad,CuDef*%
%ADD50R,0.350000X0.500000*%
%TD*%
%TA.AperFunction,SMDPad,CuDef*%
%ADD51R,0.400000X0.300000*%
%TD*%
%TA.AperFunction,SMDPad,CuDef*%
%ADD52R,2.450000X1.980000*%
%TD*%
%TA.AperFunction,SMDPad,CuDef*%
%ADD53R,0.380000X0.430000*%
%TD*%
%TA.AperFunction,ComponentPad*%
%ADD54R,1.950000X1.950000*%
%TD*%
%TA.AperFunction,SMDPad,CuDef*%
%ADD55RotRect,0.600000X0.750000X315.000000*%
%TD*%
%TA.AperFunction,SMDPad,CuDef*%
%ADD56RoundRect,0.225000X-0.017678X0.335876X-0.335876X0.017678X0.017678X-0.335876X0.335876X-0.017678X0*%
%TD*%
%TA.AperFunction,ViaPad*%
%ADD57C,0.600000*%
%TD*%
%TA.AperFunction,Conductor*%
%ADD58C,0.150000*%
%TD*%
%TA.AperFunction,Conductor*%
%ADD59C,0.200000*%
%TD*%
G04 APERTURE END LIST*
D10*
%TO.P,C1,1*%
%TO.N,/Temperature_probe/RTDIN+*%
X183525000Y-36645000D03*
%TO.P,C1,2*%
%TO.N,/Temperature_probe/RTDIN-*%
X183525000Y-37605000D03*
%TD*%
D11*
%TO.P,R3,2*%
%TO.N,+3V3*%
X185200000Y-41770000D03*
%TO.P,R3,1*%
%TO.N,/SCK*%
X185200000Y-41130000D03*
%TD*%
D12*
%TO.P,R1,2*%
%TO.N,Net-(IC2-BIAS)*%
X187840000Y-34305000D03*
%TO.P,R1,1*%
%TO.N,/Temperature_probe/430*%
X187200000Y-34305000D03*
%TD*%
D13*
%TO.P,IC2,1,BIAS*%
%TO.N,Net-(IC2-BIAS)*%
X188550000Y-35100000D03*
%TO.P,IC2,2,REFIN+*%
X187900000Y-35100000D03*
%TO.P,IC2,3,REFIN-*%
%TO.N,/Temperature_probe/ISENSOR*%
X187250000Y-35100000D03*
%TO.P,IC2,4,ISENSOR*%
X186600000Y-35100000D03*
%TO.P,IC2,5,FORCE+*%
%TO.N,/Temperature_probe/FORCE_P*%
X185950000Y-35100000D03*
D14*
%TO.P,IC2,6,FORCE2*%
%TO.N,GND*%
X184900000Y-36150000D03*
%TO.P,IC2,7,RTDIN+*%
%TO.N,/Temperature_probe/RTDIN+*%
X184900000Y-36800000D03*
%TO.P,IC2,8,RTDIN-*%
%TO.N,/Temperature_probe/RTDIN-*%
X184900000Y-37450000D03*
%TO.P,IC2,9,FORCE-*%
%TO.N,/Temperature_probe/FORCE_N*%
X184900000Y-38100000D03*
%TO.P,IC2,10,GND2*%
%TO.N,GND*%
X184900000Y-38750000D03*
D13*
%TO.P,IC2,11,SDI*%
%TO.N,/MOSI*%
X185950000Y-39800000D03*
%TO.P,IC2,12,SCLK*%
%TO.N,/SCK*%
X186600000Y-39800000D03*
%TO.P,IC2,13,~{CS}*%
%TO.N,/CS*%
X187250000Y-39800000D03*
%TO.P,IC2,14,SDO*%
%TO.N,/MISO*%
X187900000Y-39800000D03*
%TO.P,IC2,15,DGND*%
%TO.N,unconnected-(IC2-DGND-Pad15)*%
X188550000Y-39800000D03*
D14*
%TO.P,IC2,16,GND1*%
%TO.N,GND*%
X189600000Y-38750000D03*
%TO.P,IC2,17,N.C.*%
%TO.N,unconnected-(IC2-N.C.-Pad17)*%
X189600000Y-38100000D03*
%TO.P,IC2,18,~{DRDY}*%
%TO.N,unconnected-(IC2-~{DRDY}-Pad18)*%
X189600000Y-37450000D03*
%TO.P,IC2,19,DVDD*%
%TO.N,unconnected-(IC2-DVDD-Pad19)*%
X189600000Y-36800000D03*
%TO.P,IC2,20,VDD*%
%TO.N,unconnected-(IC2-VDD-Pad20)*%
X189600000Y-36150000D03*
D15*
%TO.P,IC2,21,EP*%
%TO.N,unconnected-(IC2-EP-Pad21)*%
X187250000Y-37450000D03*
%TD*%
D11*
%TO.P,R4,2*%
%TO.N,+3V3*%
X183950000Y-41770000D03*
%TO.P,R4,1*%
%TO.N,/MOSI*%
X183950000Y-41130000D03*
%TD*%
%TO.P,R2,2*%
%TO.N,+3V3*%
X186450000Y-41745000D03*
%TO.P,R2,1*%
%TO.N,/CS*%
X186450000Y-41105000D03*
%TD*%
D16*
%TO.P,J3,4,4*%
%TO.N,/Temperature_probe/FORCE_P*%
X177400000Y-31800000D03*
%TO.P,J3,3,3*%
%TO.N,/Temperature_probe/RTDIN+*%
X177400000Y-33800000D03*
%TO.P,J3,2,2*%
%TO.N,/Temperature_probe/RTDIN-*%
X177400000Y-35800000D03*
D17*
%TO.P,J3,1,1*%
%TO.N,/Temperature_probe/FORCE_N*%
X177400000Y-37800000D03*
%TD*%
D18*
%TO.P,R5,1*%
%TO.N,/Temperature_probe/4300*%
X189375000Y-34305000D03*
%TO.P,R5,2*%
%TO.N,Net-(IC2-BIAS)*%
X188735000Y-34305000D03*
%TD*%
D19*
%TO.P,C4,1*%
%TO.N,GND*%
X199900000Y-42550000D03*
%TO.P,C4,2*%
%TO.N,/XTAL_P*%
X199900000Y-41910000D03*
%TD*%
D11*
%TO.P,C5,1*%
%TO.N,GND*%
X199875000Y-39860000D03*
%TO.P,C5,2*%
%TO.N,/XTAL_N*%
X199875000Y-40500000D03*
%TD*%
D20*
%TO.P,Y1,1,1*%
%TO.N,/XTAL_N*%
X201650000Y-40150000D03*
%TO.P,Y1,2,2*%
%TO.N,/XTAL_P*%
X201650000Y-42650000D03*
%TD*%
D21*
%TO.P,IC1,57,EP*%
%TO.N,unconnected-(IC1-EP-Pad57)*%
X195000000Y-40800000D03*
D22*
%TO.P,IC1,56,VDDA_2*%
%TO.N,unconnected-(IC1-VDDA_2-Pad56)*%
X191550000Y-43400000D03*
%TO.P,IC1,55,VDDA_1*%
%TO.N,unconnected-(IC1-VDDA_1-Pad55)*%
X191550001Y-43000000D03*
%TO.P,IC1,54,XTAL_P*%
%TO.N,unconnected-(IC1-XTAL_P-Pad54)*%
X191550000Y-42600000D03*
%TO.P,IC1,53,XTAL_N*%
%TO.N,unconnected-(IC1-XTAL_N-Pad53)*%
X191550000Y-42200000D03*
%TO.P,IC1,52,GPIO46*%
%TO.N,unconnected-(IC1-GPIO46-Pad52)*%
X191550000Y-41800000D03*
%TO.P,IC1,51,GPIO45*%
%TO.N,unconnected-(IC1-GPIO45-Pad51)*%
X191550001Y-41400000D03*
%TO.P,IC1,50,U0RXD*%
%TO.N,unconnected-(IC1-U0RXD-Pad50)*%
X191550000Y-41000000D03*
%TO.P,IC1,49,U0TXD*%
%TO.N,unconnected-(IC1-U0TXD-Pad49)*%
X191550000Y-40600000D03*
%TO.P,IC1,48,MTMS*%
%TO.N,unconnected-(IC1-MTMS-Pad48)*%
X191550001Y-40200000D03*
%TO.P,IC1,47,MTDI*%
%TO.N,unconnected-(IC1-MTDI-Pad47)*%
X191550000Y-39800000D03*
%TO.P,IC1,46,VDD3P3_CPU*%
%TO.N,unconnected-(IC1-VDD3P3_CPU-Pad46)*%
X191550000Y-39400000D03*
%TO.P,IC1,45,MTDO*%
%TO.N,unconnected-(IC1-MTDO-Pad45)*%
X191550000Y-39000000D03*
%TO.P,IC1,44,MTCK*%
%TO.N,unconnected-(IC1-MTCK-Pad44)*%
X191550001Y-38600000D03*
%TO.P,IC1,43,GPIO38*%
%TO.N,unconnected-(IC1-GPIO38-Pad43)*%
X191550000Y-38200000D03*
D23*
%TO.P,IC1,42,GPIO37*%
%TO.N,unconnected-(IC1-GPIO37-Pad42)*%
X192400000Y-37350000D03*
%TO.P,IC1,41,GPIO36*%
%TO.N,unconnected-(IC1-GPIO36-Pad41)*%
X192800000Y-37350001D03*
%TO.P,IC1,40,GPIO35*%
%TO.N,unconnected-(IC1-GPIO35-Pad40)*%
X193200000Y-37350000D03*
%TO.P,IC1,39,GPIO34*%
%TO.N,unconnected-(IC1-GPIO34-Pad39)*%
X193600000Y-37350000D03*
%TO.P,IC1,38,GPIO33*%
%TO.N,unconnected-(IC1-GPIO33-Pad38)*%
X194000000Y-37350000D03*
%TO.P,IC1,37,SPICLK_P*%
%TO.N,unconnected-(IC1-SPICLK_P-Pad37)*%
X194400000Y-37350001D03*
%TO.P,IC1,36,SPICLK_N*%
%TO.N,unconnected-(IC1-SPICLK_N-Pad36)*%
X194800000Y-37350000D03*
%TO.P,IC1,35,SPID*%
%TO.N,unconnected-(IC1-SPID-Pad35)*%
X195200000Y-37350000D03*
%TO.P,IC1,34,SPIQ*%
%TO.N,unconnected-(IC1-SPIQ-Pad34)*%
X195600000Y-37350001D03*
%TO.P,IC1,33,SPICLK*%
%TO.N,unconnected-(IC1-SPICLK-Pad33)*%
X196000000Y-37350000D03*
%TO.P,IC1,32,SPICS0*%
%TO.N,unconnected-(IC1-SPICS0-Pad32)*%
X196400000Y-37350000D03*
%TO.P,IC1,31,SPIWP*%
%TO.N,unconnected-(IC1-SPIWP-Pad31)*%
X196800000Y-37350000D03*
%TO.P,IC1,30,SPIHD*%
%TO.N,unconnected-(IC1-SPIHD-Pad30)*%
X197200000Y-37350001D03*
%TO.P,IC1,29,VDD_SPI*%
%TO.N,unconnected-(IC1-VDD_SPI-Pad29)*%
X197600000Y-37350000D03*
D22*
%TO.P,IC1,28,SPICS1*%
%TO.N,unconnected-(IC1-SPICS1-Pad28)*%
X198450000Y-38200000D03*
%TO.P,IC1,27,GPIO21*%
%TO.N,unconnected-(IC1-GPIO21-Pad27)*%
X198449999Y-38600000D03*
%TO.P,IC1,26,GPIO20*%
%TO.N,/D-*%
X198450000Y-39000000D03*
%TO.P,IC1,25,GPIO19*%
%TO.N,/D+*%
X198450000Y-39400000D03*
%TO.P,IC1,24,GPIO18*%
%TO.N,unconnected-(IC1-GPIO18-Pad24)*%
X198450000Y-39800000D03*
%TO.P,IC1,23,GPIO17*%
%TO.N,unconnected-(IC1-GPIO17-Pad23)*%
X198449999Y-40200000D03*
%TO.P,IC1,22,XTAL_32K_N*%
%TO.N,/XTAL_N*%
X198450000Y-40600000D03*
%TO.P,IC1,21,XTAL_32K_P*%
%TO.N,/XTAL_P*%
X198450000Y-41000000D03*
%TO.P,IC1,20,VDD3P3_RTC*%
%TO.N,unconnected-(IC1-VDD3P3_RTC-Pad20)*%
X198449999Y-41400000D03*
%TO.P,IC1,19,GPIO14*%
%TO.N,unconnected-(IC1-GPIO14-Pad19)*%
X198450000Y-41800000D03*
%TO.P,IC1,18,GPIO13*%
%TO.N,unconnected-(IC1-GPIO13-Pad18)*%
X198450000Y-42200000D03*
%TO.P,IC1,17,GPIO12*%
%TO.N,unconnected-(IC1-GPIO12-Pad17)*%
X198450000Y-42600000D03*
%TO.P,IC1,16,GPIO11*%
%TO.N,unconnected-(IC1-GPIO11-Pad16)*%
X198449999Y-43000000D03*
%TO.P,IC1,15,GPIO10*%
%TO.N,unconnected-(IC1-GPIO10-Pad15)*%
X198450000Y-43400000D03*
D23*
%TO.P,IC1,14,GPIO9*%
%TO.N,unconnected-(IC1-GPIO9-Pad14)*%
X197600000Y-44250000D03*
%TO.P,IC1,13,GPIO8*%
%TO.N,unconnected-(IC1-GPIO8-Pad13)*%
X197200000Y-44249999D03*
%TO.P,IC1,12,GPIO7*%
%TO.N,unconnected-(IC1-GPIO7-Pad12)*%
X196800000Y-44250000D03*
%TO.P,IC1,11,GPIO6*%
%TO.N,unconnected-(IC1-GPIO6-Pad11)*%
X196400000Y-44250000D03*
%TO.P,IC1,10,GPIO5*%
%TO.N,unconnected-(IC1-GPIO5-Pad10)*%
X196000000Y-44250000D03*
%TO.P,IC1,9,GPIO4*%
%TO.N,unconnected-(IC1-GPIO4-Pad9)*%
X195600000Y-44249999D03*
%TO.P,IC1,8,GPIO3*%
%TO.N,unconnected-(IC1-GPIO3-Pad8)*%
X195200000Y-44250000D03*
%TO.P,IC1,7,GPIO2*%
%TO.N,unconnected-(IC1-GPIO2-Pad7)*%
X194800000Y-44250000D03*
%TO.P,IC1,6,GPIO1*%
%TO.N,unconnected-(IC1-GPIO1-Pad6)*%
X194400000Y-44249999D03*
%TO.P,IC1,5,GPIO0*%
%TO.N,unconnected-(IC1-GPIO0-Pad5)*%
X194000000Y-44250000D03*
%TO.P,IC1,4,CHIP_PU*%
%TO.N,unconnected-(IC1-CHIP_PU-Pad4)*%
X193600000Y-44250000D03*
%TO.P,IC1,3,VDD3P3_2*%
%TO.N,unconnected-(IC1-VDD3P3_2-Pad3)*%
X193200000Y-44250000D03*
%TO.P,IC1,2,VDD3P3_1*%
%TO.N,unconnected-(IC1-VDD3P3_1-Pad2)*%
X192800000Y-44249999D03*
%TO.P,IC1,1,LNA_IN*%
%TO.N,/LNA_IN*%
X192400000Y-44250000D03*
%TD*%
D18*
%TO.P,R8,1*%
%TO.N,/USB_C_CONNECTOR/CC2*%
X205320000Y-35700001D03*
%TO.P,R8,2*%
%TO.N,GND*%
X204680000Y-35700001D03*
%TD*%
%TO.P,R7,1*%
%TO.N,/USB_C_CONNECTOR/CC1*%
X205320000Y-40500000D03*
%TO.P,R7,2*%
%TO.N,GND*%
X204680000Y-40500000D03*
%TD*%
D24*
%TO.P,J2,A1,GND_1*%
%TO.N,GND*%
X208563000Y-41800000D03*
%TO.P,J2,A4,VBUS_1*%
%TO.N,/USB_C_CONNECTOR/VBUS*%
X208563000Y-41000000D03*
D25*
%TO.P,J2,A5,CC1*%
%TO.N,/USB_C_CONNECTOR/CC1*%
X208563000Y-39850000D03*
%TO.P,J2,A6,DP1*%
%TO.N,/D+*%
X208563000Y-38850000D03*
%TO.P,J2,A7,DN1*%
%TO.N,/D-*%
X208563000Y-38350000D03*
%TO.P,J2,A8,SBU1*%
%TO.N,/USB_C_CONNECTOR/C_SBU1*%
X208563000Y-37350000D03*
D24*
%TO.P,J2,A9,VBUS_2*%
%TO.N,/USB_C_CONNECTOR/VBUS*%
X208563000Y-36200000D03*
%TO.P,J2,A12,GND_2*%
%TO.N,GND*%
X208563000Y-35400000D03*
D25*
%TO.P,J2,B5,CC2*%
%TO.N,/USB_C_CONNECTOR/CC2*%
X208563000Y-36850000D03*
%TO.P,J2,B6,DP2*%
%TO.N,/D+*%
X208563000Y-37850000D03*
%TO.P,J2,B7,DN2*%
%TO.N,/D-*%
X208563000Y-39350000D03*
%TO.P,J2,B8,SBU2*%
%TO.N,/USB_C_CONNECTOR/C_SBU2*%
X208563000Y-40350000D03*
D26*
%TO.P,J2,MH1,MH1*%
%TO.N,unconnected-(J2-PadMH1)*%
X210537000Y-43495000D03*
%TO.P,J2,MH2,MH2*%
%TO.N,unconnected-(J2-PadMH2)*%
X213537000Y-43495000D03*
%TO.P,J2,MH3,MH3*%
%TO.N,unconnected-(J2-PadMH3)*%
X213537000Y-33705000D03*
%TO.P,J2,MH4,MH4*%
%TO.N,unconnected-(J2-PadMH4)*%
X210537000Y-33705000D03*
D27*
%TO.P,J2,MH5*%
%TO.N,N/C*%
X210637000Y-41850000D03*
%TO.P,J2,MH6*%
X210637000Y-35350000D03*
%TD*%
D24*
%TO.P,J1,A1,GND_1*%
%TO.N,GND*%
X208575000Y-27800000D03*
%TO.P,J1,A4,VBUS_1*%
%TO.N,/USB_C/VBUS*%
X208575000Y-27000000D03*
D25*
%TO.P,J1,A5,CC1*%
%TO.N,/USB_C/CC2*%
X208575000Y-25850000D03*
%TO.P,J1,A6,DP1*%
%TO.N,/USB_C/D+*%
X208575000Y-24850000D03*
%TO.P,J1,A7,DN1*%
%TO.N,/USB_C/D-*%
X208575000Y-24350000D03*
%TO.P,J1,A8,SBU1*%
%TO.N,/USB_C/USB_C_CONNECTOR/C_SBU1*%
X208575000Y-23350000D03*
D24*
%TO.P,J1,A9,VBUS_2*%
%TO.N,/USB_C/VBUS*%
X208575000Y-22200000D03*
%TO.P,J1,A12,GND_2*%
%TO.N,GND*%
X208575000Y-21400000D03*
D25*
%TO.P,J1,B5,CC2*%
%TO.N,/USB_C/CC1*%
X208575000Y-22850000D03*
%TO.P,J1,B6,DP2*%
%TO.N,/USB_C/D+*%
X208575000Y-23850000D03*
%TO.P,J1,B7,DN2*%
%TO.N,/USB_C/D-*%
X208575000Y-25350000D03*
%TO.P,J1,B8,SBU2*%
%TO.N,/USB_C/USB_C_CONNECTOR/C_SBU2*%
X208575000Y-26350000D03*
D26*
%TO.P,J1,MH1,MH1*%
%TO.N,unconnected-(J1-PadMH1)*%
X210549000Y-29495000D03*
%TO.P,J1,MH2,MH2*%
%TO.N,unconnected-(J1-PadMH2)*%
X213549000Y-29495000D03*
%TO.P,J1,MH3,MH3*%
%TO.N,unconnected-(J1-PadMH3)*%
X213549000Y-19705000D03*
%TO.P,J1,MH4,MH4*%
%TO.N,unconnected-(J1-PadMH4)*%
X210549000Y-19705000D03*
D27*
%TO.P,J1,MH5*%
%TO.N,N/C*%
X210649000Y-27850000D03*
%TO.P,J1,MH6*%
X210649000Y-21350000D03*
%TD*%
D28*
%TO.P,IC4,1,IN_1*%
%TO.N,/USB_C_CONNECTOR/VBUS*%
X206475000Y-41700000D03*
%TO.P,IC4,2,IN_2*%
X205825000Y-41700000D03*
%TO.P,IC4,3,IN_3*%
X205175000Y-41700000D03*
%TO.P,IC4,4,IN_4*%
X204525000Y-41700000D03*
%TO.P,IC4,5,GND_1*%
%TO.N,GND*%
X204525000Y-44500000D03*
%TO.P,IC4,6,GND_2*%
X205175000Y-44500000D03*
%TO.P,IC4,7,GND_3*%
X205825000Y-44500000D03*
%TO.P,IC4,8,GND_4*%
X206475000Y-44500000D03*
D29*
%TO.P,IC4,9,FLOAT_1*%
%TO.N,unconnected-(IC4-FLOAT_1-Pad9)*%
X205500000Y-43100000D03*
D30*
%TO.P,IC4,10,FLOAT_2*%
%TO.N,unconnected-(IC4-FLOAT_2-Pad10)*%
X204211000Y-42775000D03*
%TO.P,IC4,11,FLOAT_3*%
%TO.N,unconnected-(IC4-FLOAT_3-Pad11)*%
X204211000Y-43425000D03*
%TO.P,IC4,12,FLOAT_4*%
%TO.N,unconnected-(IC4-FLOAT_4-Pad12)*%
X206789000Y-43425000D03*
%TO.P,IC4,13,FLOAT_5*%
%TO.N,unconnected-(IC4-FLOAT_5-Pad13)*%
X206789000Y-42775000D03*
%TD*%
D31*
%TO.P,D6,1,I/O*%
%TO.N,/USB_C_CONNECTOR/CC1*%
X205150000Y-39600000D03*
%TO.P,D6,2,GND*%
%TO.N,GND*%
X204150000Y-39600000D03*
%TD*%
%TO.P,D5,1,I/O*%
%TO.N,/USB_C_CONNECTOR/CC2*%
X205150000Y-36600001D03*
%TO.P,D5,2,GND*%
%TO.N,GND*%
X204150000Y-36600001D03*
%TD*%
D32*
%TO.P,D4,1*%
%TO.N,GND*%
X205375000Y-38100001D03*
%TO.P,D4,2*%
%TO.N,/D-*%
X205625000Y-38600001D03*
%TO.P,D4,3*%
%TO.N,/D+*%
X205625000Y-37600001D03*
%TD*%
D11*
%TO.P,C3,2*%
%TO.N,Net-(L1-FEED)*%
X182690000Y-44295000D03*
%TO.P,C3,1*%
%TO.N,GND*%
X182690000Y-43655000D03*
%TD*%
%TO.P,C2,2*%
%TO.N,/LNA_IN*%
X184910000Y-44305000D03*
%TO.P,C2,1*%
%TO.N,GND*%
X184910000Y-43665000D03*
%TD*%
D12*
%TO.P,R6,2*%
%TO.N,/LNA_IN*%
X184125000Y-44300000D03*
%TO.P,R6,1*%
%TO.N,Net-(L1-FEED)*%
X183485000Y-44300000D03*
%TD*%
D33*
%TO.P,L1,2,NC*%
%TO.N,unconnected-(L1-NC-Pad2)*%
X178300000Y-44300000D03*
%TO.P,L1,1,FEED*%
%TO.N,Net-(L1-FEED)*%
X181300000Y-44300000D03*
%TD*%
D34*
%TO.P,R17,2*%
%TO.N,GND*%
X183450000Y-30050000D03*
%TO.P,R17,1*%
%TO.N,/TPS_FB*%
X184470000Y-30050000D03*
%TD*%
D35*
%TO.P,R14,2*%
%TO.N,GND*%
X186060000Y-27470000D03*
%TO.P,R14,1*%
%TO.N,Net-(R13-Pad2)*%
X186060000Y-26450000D03*
%TD*%
D36*
%TO.P,L2,2,2*%
%TO.N,+5V*%
X195075000Y-29270000D03*
%TO.P,L2,1,1*%
%TO.N,/TPS_SW*%
X189625000Y-29270000D03*
%TD*%
D35*
%TO.P,R13,2*%
%TO.N,Net-(R13-Pad2)*%
X185560000Y-33660000D03*
%TO.P,R13,1*%
%TO.N,Net-(U5-RT)*%
X185560000Y-32640000D03*
%TD*%
D37*
%TO.P,R16,2*%
%TO.N,/TPS_FB*%
X184470000Y-31090000D03*
%TO.P,R16,1*%
%TO.N,+5V*%
X183450000Y-31090000D03*
%TD*%
D38*
%TO.P,C8,2*%
%TO.N,GND*%
X188100000Y-19425000D03*
%TO.P,C8,1*%
%TO.N,Net-(C8-Pad1)*%
X188100000Y-22375000D03*
%TD*%
D39*
%TO.P,C21,2*%
%TO.N,/TPS_SW*%
X187450000Y-28820000D03*
%TO.P,C21,1*%
%TO.N,/TPS_BOOT*%
X186490000Y-28820000D03*
%TD*%
D40*
%TO.P,C24,2*%
%TO.N,GND*%
X186550000Y-24600000D03*
%TO.P,C24,1*%
%TO.N,+5V*%
X188450000Y-24600000D03*
%TD*%
D41*
%TO.P,C23,2*%
%TO.N,GND*%
X191950000Y-24590000D03*
%TO.P,C23,1*%
%TO.N,+5V*%
X190050000Y-24590000D03*
%TD*%
D42*
%TO.P,C20,2*%
%TO.N,GND*%
X185180000Y-27255000D03*
%TO.P,C20,1*%
%TO.N,Net-(U5-SS)*%
X185180000Y-28805000D03*
%TD*%
D43*
%TO.P,U5,8,FB*%
%TO.N,/TPS_FB*%
X185560000Y-30122000D03*
%TO.P,U5,7,SS*%
%TO.N,Net-(U5-SS)*%
X186060000Y-30122000D03*
%TO.P,U5,6,BST*%
%TO.N,/TPS_BOOT*%
X186560000Y-30122000D03*
%TO.P,U5,5,SW*%
%TO.N,/TPS_SW*%
X187060000Y-30122000D03*
%TO.P,U5,4,GND*%
%TO.N,GND*%
X187060000Y-31798000D03*
%TO.P,U5,3,VIN*%
%TO.N,/VBUS_SENSED*%
X186560000Y-31798000D03*
%TO.P,U5,2,EN*%
%TO.N,unconnected-(U5-EN-Pad2)*%
X186060000Y-31798000D03*
%TO.P,U5,1,RT*%
%TO.N,Net-(U5-RT)*%
X185560000Y-31798000D03*
%TD*%
D44*
%TO.P,PD1,25,EP*%
%TO.N,GND*%
X199837000Y-24077297D03*
D45*
%TO.P,PD1,24,VCC*%
%TO.N,/USB_C/VBUS_SENSED*%
X200314297Y-21832233D03*
%TO.P,PD1,23,PWR_EN*%
%TO.N,Net-(PD1-PWR_EN)*%
X200667850Y-22185786D03*
%TO.P,PD1,22,VOUT*%
%TO.N,Net-(PD1-VOUT)*%
X201021404Y-22539340D03*
%TO.P,PD1,21,NC*%
%TO.N,Net-(PD1-NC-Pad10)*%
X201374957Y-22892893D03*
%TO.P,PD1,20,V5V*%
%TO.N,/USB_C/V5V*%
X201728511Y-23246447D03*
%TO.P,PD1,19,DP*%
%TO.N,/USB_C/D+*%
X202082064Y-23600000D03*
D46*
%TO.P,PD1,18,DN*%
%TO.N,/USB_C/D-*%
X202082064Y-24554594D03*
%TO.P,PD1,17,CC1*%
%TO.N,/USB_C/CC1*%
X201728511Y-24908147D03*
%TO.P,PD1,16,CC2*%
%TO.N,/USB_C/CC2*%
X201374957Y-25261701D03*
%TO.P,PD1,15,IFB*%
%TO.N,Net-(PD1-IFB)*%
X201021404Y-25615254D03*
%TO.P,PD1,14,NC*%
%TO.N,Net-(PD1-NC-Pad10)*%
X200667850Y-25968808D03*
%TO.P,PD1,13,OTP*%
%TO.N,Net-(PD1-OTP)*%
X200314297Y-26322361D03*
D45*
%TO.P,PD1,12,V18*%
%TO.N,/USB_C/V18*%
X199359703Y-26322361D03*
%TO.P,PD1,11,NC*%
%TO.N,Net-(PD1-NC-Pad10)*%
X199006150Y-25968808D03*
%TO.P,PD1,10,NC*%
X198652596Y-25615254D03*
%TO.P,PD1,9,INT*%
%TO.N,/USB_C/PD_INT_5V*%
X198299043Y-25261701D03*
%TO.P,PD1,8,LED*%
%TO.N,unconnected-(PD1-LED-Pad8)*%
X197945489Y-24908147D03*
%TO.P,PD1,7,NC*%
%TO.N,Net-(PD1-NC-Pad10)*%
X197591936Y-24554594D03*
D46*
%TO.P,PD1,6,FLIP*%
%TO.N,unconnected-(PD1-FLIP-Pad6)*%
X197591936Y-23600000D03*
%TO.P,PD1,5,SCL*%
%TO.N,/USB_C/SCL_5V*%
X197945489Y-23246447D03*
%TO.P,PD1,4,SDA*%
%TO.N,/USB_C/SDA_5V*%
X198299043Y-22892893D03*
%TO.P,PD1,3,GND*%
%TO.N,GND*%
X198652596Y-22539340D03*
%TO.P,PD1,2,NC*%
%TO.N,Net-(PD1-NC-Pad10)*%
X199006150Y-22185786D03*
%TO.P,PD1,1,ISENP*%
%TO.N,/USB_C/VBUS*%
X199359703Y-21832233D03*
%TD*%
D18*
%TO.P,R12,1*%
%TO.N,/USB_C/CC1*%
X205332000Y-21700000D03*
%TO.P,R12,2*%
%TO.N,GND*%
X204692000Y-21700000D03*
%TD*%
D42*
%TO.P,C6,2*%
%TO.N,GND*%
X202800000Y-20650000D03*
%TO.P,C6,1*%
%TO.N,/USB_C/V5V*%
X202800000Y-22200000D03*
%TD*%
D47*
%TO.P,R10,2*%
%TO.N,Net-(PD1-VOUT)*%
X190100000Y-19250000D03*
%TO.P,R10,1*%
%TO.N,Net-(C8-Pad1)*%
X190100000Y-20900000D03*
%TD*%
D48*
%TO.P,C7,2*%
%TO.N,GND*%
X199108016Y-29096016D03*
%TO.P,C7,1*%
%TO.N,/USB_C/V18*%
X198012000Y-28000000D03*
%TD*%
D49*
%TO.P,R9,2,2*%
%TO.N,/USB_C/VBUS_SENSED*%
X198965000Y-19460000D03*
%TO.P,R9,1,1*%
%TO.N,/USB_C/VBUS*%
X200865000Y-19460000D03*
%TD*%
D31*
%TO.P,D2,1,I/O*%
%TO.N,/USB_C/CC1*%
X205162000Y-22600000D03*
%TO.P,D2,2,GND*%
%TO.N,GND*%
X204162000Y-22600000D03*
%TD*%
%TO.P,D3,1,I/O*%
%TO.N,/USB_C/CC2*%
X205162000Y-25600000D03*
%TO.P,D3,2,GND*%
%TO.N,GND*%
X204162000Y-25600000D03*
%TD*%
D18*
%TO.P,R11,2*%
%TO.N,GND*%
X204692000Y-26500000D03*
%TO.P,R11,1*%
%TO.N,/USB_C/CC2*%
X205332000Y-26500000D03*
%TD*%
D32*
%TO.P,D1,1*%
%TO.N,GND*%
X205387000Y-24100000D03*
%TO.P,D1,2*%
%TO.N,/USB_C/D-*%
X205637000Y-24600000D03*
%TO.P,D1,3*%
%TO.N,/USB_C/D+*%
X205637000Y-23600000D03*
%TD*%
D28*
%TO.P,IC3,1,IN_1*%
%TO.N,/USB_C/VBUS*%
X206487000Y-27700000D03*
%TO.P,IC3,2,IN_2*%
X205837000Y-27700000D03*
%TO.P,IC3,3,IN_3*%
X205187000Y-27700000D03*
%TO.P,IC3,4,IN_4*%
X204537000Y-27700000D03*
%TO.P,IC3,5,GND_1*%
%TO.N,GND*%
X204537000Y-30500000D03*
%TO.P,IC3,6,GND_2*%
X205187000Y-30500000D03*
%TO.P,IC3,7,GND_3*%
X205837000Y-30500000D03*
%TO.P,IC3,8,GND_4*%
X206487000Y-30500000D03*
D29*
%TO.P,IC3,9,FLOAT_1*%
%TO.N,unconnected-(IC3-FLOAT_1-Pad9)*%
X205512000Y-29100000D03*
D30*
%TO.P,IC3,10,FLOAT_2*%
%TO.N,unconnected-(IC3-FLOAT_2-Pad10)*%
X204223000Y-28775000D03*
%TO.P,IC3,11,FLOAT_3*%
%TO.N,unconnected-(IC3-FLOAT_3-Pad11)*%
X204223000Y-29425000D03*
%TO.P,IC3,12,FLOAT_4*%
%TO.N,unconnected-(IC3-FLOAT_4-Pad12)*%
X206801000Y-29425000D03*
%TO.P,IC3,13,FLOAT_5*%
%TO.N,unconnected-(IC3-FLOAT_5-Pad13)*%
X206801000Y-28775000D03*
%TD*%
D50*
%TO.P,U3,1*%
%TO.N,Net-(C8-Pad1)*%
X191625000Y-21660000D03*
%TO.P,U3,2*%
X192275000Y-21660000D03*
%TO.P,U3,3*%
X192925000Y-21660000D03*
%TO.P,U3,4*%
%TO.N,Net-(PD1-PWR_EN)*%
X193575000Y-21660000D03*
D51*
%TO.P,U3,5*%
%TO.N,N/C*%
X193575000Y-18760000D03*
%TO.P,U3,6*%
X192925000Y-18760000D03*
%TO.P,U3,7*%
X192275000Y-18760000D03*
%TO.P,U3,8*%
X191625000Y-18760000D03*
D52*
%TO.P,U3,9*%
X192600000Y-19900000D03*
D53*
%TO.P,U3,10*%
X194015000Y-20260000D03*
%TO.P,U3,11*%
X191185000Y-20260000D03*
%TD*%
D50*
%TO.P,U1,1*%
%TO.N,/USB_C/VBUS_SENSED*%
X197425000Y-18840000D03*
%TO.P,U1,2*%
X196775000Y-18840000D03*
%TO.P,U1,3*%
X196125000Y-18840000D03*
%TO.P,U1,4*%
%TO.N,Net-(PD1-PWR_EN)*%
X195475000Y-18840000D03*
D51*
%TO.P,U1,5*%
%TO.N,N/C*%
X195475000Y-21740000D03*
%TO.P,U1,6*%
X196125000Y-21740000D03*
%TO.P,U1,7*%
X196775000Y-21740000D03*
%TO.P,U1,8*%
X197425000Y-21740000D03*
D52*
%TO.P,U1,9*%
X196450000Y-20600000D03*
D53*
%TO.P,U1,10*%
X195035000Y-20240000D03*
%TO.P,U1,11*%
X197865000Y-20240000D03*
%TD*%
D54*
%TO.P,J4,1,1*%
%TO.N,unconnected-(J4-Pad1)*%
X176100000Y-20815000D03*
D26*
%TO.P,J4,2,2*%
%TO.N,unconnected-(J4-Pad2)*%
X176100000Y-25895000D03*
%TD*%
D55*
%TO.P,RT1,1,1*%
%TO.N,Net-(PD1-OTP)*%
X200989818Y-27422182D03*
%TO.P,RT1,2,2*%
%TO.N,GND*%
X200212000Y-28200000D03*
%TD*%
D56*
%TO.P,C9,1*%
%TO.N,Net-(PD1-IFB)*%
X202760008Y-27551992D03*
%TO.P,C9,2*%
%TO.N,GND*%
X201663992Y-28648008D03*
%TD*%
D57*
%TO.N,GND*%
X204700000Y-38100000D03*
X203900000Y-40500000D03*
X203900000Y-35700000D03*
%TO.N,/USB_C_CONNECTOR/CC2*%
X206086623Y-35704010D03*
%TO.N,Net-(PD1-VOUT)*%
X190100000Y-19250000D03*
X201800000Y-21900000D03*
%TO.N,Net-(PD1-PWR_EN)*%
X194500000Y-21700000D03*
X194600000Y-18896000D03*
X201300000Y-21000000D03*
%TO.N,/USB_C/VBUS_SENSED*%
X200491409Y-20986409D03*
X198965000Y-19460000D03*
%TO.N,/USB_C/CC2*%
X206098623Y-21704010D03*
%TO.N,GND*%
X203912000Y-21700000D03*
%TO.N,/USB_C/CC2*%
X202012000Y-25900000D03*
%TO.N,GND*%
X203912000Y-26500000D03*
X203212000Y-25600000D03*
X203795520Y-23338661D03*
X204712000Y-24100000D03*
%TD*%
D58*
%TO.N,/Temperature_probe/RTDIN+*%
X183680000Y-36800000D02*
X183525000Y-36645000D01*
%TO.N,/Temperature_probe/RTDIN-*%
X184900000Y-37450000D02*
X183680000Y-37450000D01*
X183680000Y-37450000D02*
X183525000Y-37605000D01*
%TO.N,/Temperature_probe/RTDIN+*%
X184900000Y-36800000D02*
X183680000Y-36800000D01*
%TO.N,/SCK*%
X186600000Y-39800000D02*
X186600000Y-40261196D01*
X185731196Y-41130000D02*
X185200000Y-41130000D01*
%TO.N,/MOSI*%
X185950000Y-39800000D02*
X185280000Y-39800000D01*
%TO.N,/CS*%
X187250000Y-39800000D02*
X187250000Y-40305000D01*
%TO.N,Net-(IC2-BIAS)*%
X188650000Y-35530000D02*
X188000000Y-35530000D01*
X187840000Y-34305000D02*
X187840000Y-35370000D01*
X187840000Y-35370000D02*
X188000000Y-35530000D01*
%TO.N,/XTAL_P*%
X201650000Y-42275000D02*
X200775000Y-41400000D01*
%TO.N,/XTAL_N*%
X201650000Y-40150000D02*
X200800000Y-41000000D01*
%TO.N,/D-*%
X208563000Y-39350000D02*
X207686000Y-39350000D01*
X207686000Y-39350000D02*
X207562000Y-39226000D01*
D59*
X208563000Y-38350000D02*
X207938000Y-38350000D01*
D58*
X207562000Y-38413000D02*
X207625000Y-38350000D01*
X207625000Y-38350000D02*
X208563000Y-38350000D01*
X207562000Y-39226000D02*
X207562000Y-38413000D01*
D59*
X207938000Y-38350000D02*
X207913000Y-38325000D01*
D58*
%TO.N,/D+*%
X209488000Y-37850000D02*
X208563000Y-37850000D01*
D59*
X208563000Y-37850000D02*
X207938000Y-37850000D01*
X207938000Y-37850000D02*
X207913000Y-37875000D01*
D58*
X208563000Y-38850000D02*
X209440000Y-38850000D01*
%TO.N,/D-*%
X207400499Y-38350000D02*
X207350499Y-38300000D01*
%TO.N,/D+*%
X208563000Y-37850000D02*
X207400499Y-37850000D01*
X207400499Y-37850000D02*
X207350499Y-37900000D01*
%TO.N,/D-*%
X208563000Y-38350000D02*
X207400499Y-38350000D01*
X205797501Y-38600000D02*
X205625000Y-38600000D01*
%TO.N,/D+*%
X205797501Y-37600000D02*
X205625000Y-37600000D01*
X207350499Y-37900000D02*
X206097501Y-37900000D01*
X206097501Y-37900000D02*
X205797501Y-37600000D01*
%TO.N,/D-*%
X207350499Y-38300000D02*
X206097501Y-38300000D01*
X206097501Y-38300000D02*
X205797501Y-38600000D01*
D59*
%TO.N,GND*%
X205375000Y-38100000D02*
X204700000Y-38100000D01*
D58*
%TO.N,/D+*%
X204174000Y-37900000D02*
X203800000Y-37900000D01*
X205625000Y-37600000D02*
X205452499Y-37600000D01*
X205452499Y-37600000D02*
X205426499Y-37574000D01*
X205426499Y-37574000D02*
X204482123Y-37574000D01*
X204482123Y-37574000D02*
X204174000Y-37882123D01*
X204174000Y-37882123D02*
X204174000Y-37900000D01*
D59*
%TO.N,/USB_C_CONNECTOR/CC2*%
X208563000Y-36850000D02*
X207100000Y-36850000D01*
%TO.N,/USB_C_CONNECTOR/CC1*%
X208563000Y-39850000D02*
X207100000Y-39850000D01*
%TO.N,/USB_C_CONNECTOR/CC2*%
X207100000Y-36850000D02*
X206850000Y-36600000D01*
X205150000Y-36600000D02*
X205320000Y-36430000D01*
%TO.N,/USB_C_CONNECTOR/CC1*%
X207100000Y-39850000D02*
X206850000Y-39600000D01*
X206850000Y-39600000D02*
X205150000Y-39600000D01*
X205320000Y-39770000D02*
X205320000Y-40500000D01*
X205150000Y-39600000D02*
X205320000Y-39770000D01*
%TO.N,GND*%
X204680000Y-40500000D02*
X203900000Y-40500000D01*
D58*
%TO.N,/D+*%
X203800000Y-37900000D02*
X203777297Y-37877297D01*
%TO.N,/D-*%
X205625000Y-38600000D02*
X205452499Y-38600000D01*
X205452499Y-38600000D02*
X205426499Y-38626000D01*
X205426499Y-38626000D02*
X204482123Y-38626000D01*
X204482123Y-38626000D02*
X204174000Y-38317877D01*
X204174000Y-38317877D02*
X204174000Y-38300000D01*
D59*
%TO.N,/USB_C_CONNECTOR/CC1*%
X204968999Y-41051000D02*
X205320000Y-40699999D01*
X205320000Y-40699999D02*
X205320000Y-40500000D01*
%TO.N,/USB_C_CONNECTOR/CC2*%
X206850000Y-36600000D02*
X205150000Y-36600000D01*
X205320000Y-35700000D02*
X206100000Y-35700000D01*
X205320000Y-36430000D02*
X205320000Y-35700000D01*
%TO.N,GND*%
X204680000Y-35700000D02*
X203900000Y-35700000D01*
%TO.N,/USB_C_CONNECTOR/VBUS*%
X208563000Y-36200000D02*
X209538000Y-36200000D01*
X209538000Y-36200000D02*
X209814000Y-36476000D01*
X209340000Y-41000000D02*
X208563000Y-41000000D01*
X209814000Y-36476000D02*
X209814000Y-40526000D01*
X209814000Y-40526000D02*
X209340000Y-41000000D01*
X207939000Y-35951000D02*
X208188000Y-36200000D01*
X208188000Y-36200000D02*
X208563000Y-36200000D01*
D58*
%TO.N,/LNA_IN*%
X184905000Y-44300000D02*
X184910000Y-44305000D01*
X184125000Y-44300000D02*
X184905000Y-44300000D01*
X184910000Y-44305000D02*
X186050000Y-44305000D01*
X184040387Y-44300387D02*
X184040000Y-44300000D01*
%TO.N,Net-(L1-FEED)*%
X182690000Y-44295000D02*
X183480000Y-44295000D01*
X182685000Y-44300000D02*
X182690000Y-44295000D01*
X181300000Y-44300000D02*
X182685000Y-44300000D01*
X183480000Y-44295000D02*
X183485000Y-44300000D01*
D59*
%TO.N,/USB_C/V5V*%
X201753553Y-23246447D02*
X202800000Y-22200000D01*
X201728511Y-23246447D02*
X201753553Y-23246447D01*
%TO.N,/USB_C/VBUS*%
X208200000Y-22200000D02*
X208575000Y-22200000D01*
X207951000Y-21951000D02*
X208200000Y-22200000D01*
%TO.N,GND*%
X204162000Y-22972181D02*
X203795520Y-23338661D01*
X204162000Y-22600000D02*
X204162000Y-22972181D01*
%TO.N,Net-(PD1-PWR_EN)*%
X193575000Y-21660000D02*
X194460000Y-21660000D01*
X194460000Y-21660000D02*
X194500000Y-21700000D01*
%TO.N,Net-(PD1-VOUT)*%
X201160660Y-22539340D02*
X201800000Y-21900000D01*
X201021404Y-22539340D02*
X201160660Y-22539340D01*
%TO.N,Net-(PD1-PWR_EN)*%
X194600000Y-18896000D02*
X195475000Y-18896000D01*
X201300000Y-21553636D02*
X201300000Y-21000000D01*
X200667850Y-22185786D02*
X201300000Y-21553636D01*
%TO.N,/USB_C/VBUS_SENSED*%
X200491409Y-21608591D02*
X200491409Y-20986409D01*
X200314297Y-21785703D02*
X200491409Y-21608591D01*
X200314297Y-21832233D02*
X200314297Y-21785703D01*
%TO.N,Net-(C8-Pad1)*%
X190860000Y-21660000D02*
X192925000Y-21660000D01*
X190100000Y-20900000D02*
X190860000Y-21660000D01*
X189575000Y-20900000D02*
X188100000Y-22375000D01*
X190100000Y-20900000D02*
X189575000Y-20900000D01*
%TO.N,/USB_C/VBUS*%
X200865000Y-19835000D02*
X200865000Y-19460000D01*
X199359703Y-21340297D02*
X200865000Y-19835000D01*
X199359703Y-21832233D02*
X199359703Y-21340297D01*
%TO.N,/USB_C/VBUS_SENSED*%
X198401000Y-18896000D02*
X196125000Y-18896000D01*
X198965000Y-19460000D02*
X198401000Y-18896000D01*
%TO.N,/USB_C/SCL_5V*%
X197846447Y-23246447D02*
X197945489Y-23246447D01*
%TO.N,/USB_C/SDA_5V*%
X198299043Y-22892893D02*
X198292893Y-22892893D01*
%TO.N,/USB_C/VBUS*%
X199359703Y-21832233D02*
X199332233Y-21832233D01*
X209826000Y-26526000D02*
X209352000Y-27000000D01*
X209826000Y-22476000D02*
X209826000Y-26526000D01*
X209352000Y-27000000D02*
X208575000Y-27000000D01*
X209550000Y-22200000D02*
X209826000Y-22476000D01*
X208575000Y-22200000D02*
X209550000Y-22200000D01*
%TO.N,GND*%
X204692000Y-21700000D02*
X203912000Y-21700000D01*
%TO.N,/USB_C/CC2*%
X205332000Y-22430000D02*
X205332000Y-21700000D01*
X205332000Y-21700000D02*
X206112000Y-21700000D01*
%TO.N,/USB_C/V18*%
X198912000Y-26770064D02*
X199359703Y-26322361D01*
X198012000Y-28000000D02*
X198912000Y-27100000D01*
X198912000Y-27100000D02*
X198912000Y-26770064D01*
%TO.N,Net-(PD1-OTP)*%
X200691936Y-26700000D02*
X200314297Y-26322361D01*
X200712000Y-26700000D02*
X200691936Y-26700000D01*
X200712000Y-27100000D02*
X200712000Y-26700000D01*
X201612000Y-28000000D02*
X200712000Y-27100000D01*
%TO.N,Net-(PD1-IFB)*%
X201290082Y-25883932D02*
X201021404Y-25615254D01*
X202054216Y-27103984D02*
X201290082Y-26339850D01*
X201290082Y-26339850D02*
X201290082Y-25883932D01*
X202615984Y-27103984D02*
X202054216Y-27103984D01*
%TO.N,/USB_C/V18*%
X199289639Y-26322361D02*
X199359703Y-26322361D01*
%TO.N,/USB_C/CC2*%
X206862000Y-22600000D02*
X205162000Y-22600000D01*
%TO.N,/USB_C/CC1*%
X205332000Y-26699999D02*
X205332000Y-26500000D01*
X204980999Y-27051000D02*
X205332000Y-26699999D01*
X202613809Y-25981041D02*
X203683768Y-27051000D01*
X202613809Y-25653439D02*
X202613809Y-25981041D01*
X201868517Y-24908147D02*
X202613809Y-25653439D01*
X203683768Y-27051000D02*
X204980999Y-27051000D01*
X201728511Y-24908147D02*
X201868517Y-24908147D01*
%TO.N,/USB_C/CC2*%
X201374957Y-25262957D02*
X202012000Y-25900000D01*
X201374957Y-25261701D02*
X201374957Y-25262957D01*
D58*
%TO.N,/USB_C/D-*%
X202638911Y-24554594D02*
X202082064Y-24554594D01*
X203636225Y-24277297D02*
X202916208Y-24277297D01*
X203658928Y-24300000D02*
X203636225Y-24277297D01*
X202916208Y-24277297D02*
X202638911Y-24554594D01*
X204186000Y-24317877D02*
X204186000Y-24300000D01*
X204494123Y-24626000D02*
X204186000Y-24317877D01*
X205438499Y-24626000D02*
X204494123Y-24626000D01*
X205464499Y-24600000D02*
X205438499Y-24626000D01*
X205637000Y-24600000D02*
X205464499Y-24600000D01*
X204186000Y-24300000D02*
X203658928Y-24300000D01*
%TO.N,/USB_C/D+*%
X202638911Y-23600000D02*
X202082064Y-23600000D01*
X202916208Y-23877297D02*
X202638911Y-23600000D01*
X203789297Y-23877297D02*
X202916208Y-23877297D01*
X203812000Y-23900000D02*
X203789297Y-23877297D01*
D59*
%TO.N,GND*%
X204692000Y-26500000D02*
X203912000Y-26500000D01*
X204162000Y-25600000D02*
X203212000Y-25600000D01*
%TO.N,/USB_C/CC1*%
X205162000Y-25600000D02*
X205332000Y-25770000D01*
X205332000Y-25770000D02*
X205332000Y-26500000D01*
X206862000Y-25600000D02*
X205162000Y-25600000D01*
X207112000Y-25850000D02*
X206862000Y-25600000D01*
%TO.N,/USB_C/CC2*%
X205162000Y-22600000D02*
X205332000Y-22430000D01*
X207112000Y-22850000D02*
X206862000Y-22600000D01*
%TO.N,/USB_C/CC1*%
X208575000Y-25850000D02*
X207112000Y-25850000D01*
%TO.N,/USB_C/CC2*%
X208575000Y-22850000D02*
X207112000Y-22850000D01*
D58*
%TO.N,/USB_C/D+*%
X204186000Y-23882123D02*
X204186000Y-23900000D01*
X204494123Y-23574000D02*
X204186000Y-23882123D01*
X205438499Y-23574000D02*
X204494123Y-23574000D01*
X205464499Y-23600000D02*
X205438499Y-23574000D01*
X205637000Y-23600000D02*
X205464499Y-23600000D01*
X204186000Y-23900000D02*
X203812000Y-23900000D01*
D59*
%TO.N,GND*%
X205387000Y-24100000D02*
X204712000Y-24100000D01*
D58*
%TO.N,/USB_C/D-*%
X206109501Y-24300000D02*
X205809501Y-24600000D01*
X207362499Y-24300000D02*
X206109501Y-24300000D01*
%TO.N,/USB_C/D+*%
X206109501Y-23900000D02*
X205809501Y-23600000D01*
X207362499Y-23900000D02*
X206109501Y-23900000D01*
X205809501Y-23600000D02*
X205637000Y-23600000D01*
%TO.N,/USB_C/D-*%
X205809501Y-24600000D02*
X205637000Y-24600000D01*
X208575000Y-24350000D02*
X207412499Y-24350000D01*
%TO.N,/USB_C/D+*%
X207412499Y-23850000D02*
X207362499Y-23900000D01*
X208575000Y-23850000D02*
X207412499Y-23850000D01*
%TO.N,/USB_C/D-*%
X207412499Y-24350000D02*
X207362499Y-24300000D01*
%TO.N,/USB_C/D+*%
X208575000Y-24850000D02*
X209452000Y-24850000D01*
D59*
X207950000Y-23850000D02*
X207925000Y-23875000D01*
X208575000Y-23850000D02*
X207950000Y-23850000D01*
D58*
X209500000Y-23850000D02*
X208575000Y-23850000D01*
D59*
%TO.N,/USB_C/D-*%
X207950000Y-24350000D02*
X207925000Y-24325000D01*
D58*
X207574000Y-25226000D02*
X207574000Y-24413000D01*
X207637000Y-24350000D02*
X208575000Y-24350000D01*
X207574000Y-24413000D02*
X207637000Y-24350000D01*
D59*
X208575000Y-24350000D02*
X207950000Y-24350000D01*
D58*
X207698000Y-25350000D02*
X207574000Y-25226000D01*
X208575000Y-25350000D02*
X207698000Y-25350000D01*
%TD*%
%TA.AperFunction,Conductor*%
%TO.N,/TPS_BOOT*%
G36*
X186913039Y-28469685D02*
G01*
X186958794Y-28522489D01*
X186970000Y-28574000D01*
X186970000Y-28598411D01*
X186969735Y-28606520D01*
X186969500Y-28610105D01*
X186969500Y-29029902D01*
X186969734Y-29033456D01*
X186970000Y-29041569D01*
X186970000Y-29057534D01*
X186967518Y-29082218D01*
X186854833Y-29636967D01*
X186822198Y-29698746D01*
X186802208Y-29715383D01*
X186765449Y-29739945D01*
X186765448Y-29739946D01*
X186721132Y-29806269D01*
X186721131Y-29806270D01*
X186709500Y-29864747D01*
X186709500Y-30359412D01*
X186707483Y-30366280D01*
X186708716Y-30373332D01*
X186697769Y-30399360D01*
X186689815Y-30426451D01*
X186684405Y-30431138D01*
X186681630Y-30437738D01*
X186658346Y-30453718D01*
X186637011Y-30472206D01*
X186628523Y-30474187D01*
X186624024Y-30477276D01*
X186589257Y-30483355D01*
X186538257Y-30484901D01*
X186470652Y-30467257D01*
X186423318Y-30415863D01*
X186410500Y-30360958D01*
X186410500Y-29864749D01*
X186410499Y-29864747D01*
X186398868Y-29806273D01*
X186398867Y-29806272D01*
X186398867Y-29806269D01*
X186390897Y-29794342D01*
X186370020Y-29727665D01*
X186370000Y-29725452D01*
X186370000Y-29679999D01*
X186114173Y-29332806D01*
X186090253Y-29267158D01*
X186090000Y-29259249D01*
X186090000Y-28574000D01*
X186109685Y-28506961D01*
X186162489Y-28461206D01*
X186214000Y-28450000D01*
X186846000Y-28450000D01*
X186913039Y-28469685D01*
G37*
%TD.AperFunction*%
%TD*%
%TA.AperFunction,Conductor*%
%TO.N,/TPS_SW*%
G36*
X191380319Y-27319685D02*
G01*
X191426074Y-27372489D01*
X191437279Y-27424548D01*
X191417002Y-32011073D01*
X191397021Y-32078025D01*
X191344015Y-32123546D01*
X191274814Y-32133184D01*
X191264887Y-32131295D01*
X186955884Y-31128142D01*
X186895054Y-31093770D01*
X186862464Y-31031967D01*
X186860000Y-31007372D01*
X186860000Y-30568716D01*
X186861721Y-30560180D01*
X186860782Y-30554813D01*
X186869690Y-30520661D01*
X186871065Y-30517389D01*
X186871067Y-30517387D01*
X186873842Y-30510787D01*
X186873841Y-30510786D01*
X186876114Y-30505380D01*
X186882201Y-30492906D01*
X186886992Y-30484343D01*
X186889716Y-30475060D01*
X186894393Y-30461920D01*
X186898142Y-30453007D01*
X186898144Y-30453002D01*
X186906454Y-30429276D01*
X186906455Y-30429274D01*
X186906998Y-30418685D01*
X186908093Y-30407437D01*
X186915000Y-30359412D01*
X186915000Y-29946750D01*
X186934685Y-29879711D01*
X186950760Y-29859631D01*
X186953650Y-29856702D01*
X186953656Y-29856698D01*
X187003903Y-29794733D01*
X187036538Y-29732954D01*
X187056220Y-29677874D01*
X187168905Y-29123125D01*
X187171987Y-29102778D01*
X187174469Y-29078094D01*
X187175500Y-29057534D01*
X187175500Y-29041569D01*
X187175390Y-29034835D01*
X187175124Y-29026722D01*
X187175091Y-29025698D01*
X187175112Y-29025697D01*
X187175000Y-29021149D01*
X187175000Y-28618823D01*
X187175112Y-28614244D01*
X187175092Y-28614244D01*
X187175391Y-28605090D01*
X187175500Y-28598436D01*
X187175500Y-28574008D01*
X187175499Y-28573992D01*
X187170803Y-28530316D01*
X187166897Y-28512364D01*
X187159602Y-28478825D01*
X187159348Y-28477789D01*
X187157110Y-28468627D01*
X187114100Y-28387915D01*
X187091222Y-28361513D01*
X187068347Y-28335113D01*
X187067347Y-28334092D01*
X187050754Y-28317157D01*
X187050752Y-28317156D01*
X187045428Y-28311722D01*
X187012571Y-28250060D01*
X187010000Y-28224940D01*
X187010000Y-27771730D01*
X187029685Y-27704691D01*
X187082489Y-27658936D01*
X187090639Y-27655558D01*
X188022427Y-27307825D01*
X188065782Y-27300000D01*
X191313280Y-27300000D01*
X191380319Y-27319685D01*
G37*
%TD.AperFunction*%
%TD*%
%TA.AperFunction,Conductor*%
%TO.N,/TPS_FB*%
G36*
X185444649Y-29669685D02*
G01*
X185453516Y-29675947D01*
X185579328Y-29773351D01*
X185661409Y-29836897D01*
X185702369Y-29893502D01*
X185709500Y-29934947D01*
X185709500Y-30379247D01*
X185717621Y-30420077D01*
X185711392Y-30489669D01*
X185688828Y-30526483D01*
X184835123Y-31490343D01*
X184775938Y-31527477D01*
X184747064Y-31532035D01*
X184180130Y-31553841D01*
X184112383Y-31536748D01*
X184064633Y-31485742D01*
X184051366Y-31429284D01*
X184060036Y-29773351D01*
X184080071Y-29706415D01*
X184133114Y-29660937D01*
X184184034Y-29650000D01*
X185377610Y-29650000D01*
X185444649Y-29669685D01*
G37*
%TD.AperFunction*%
%TD*%
M02*
