%TF.GenerationSoftware,KiCad,Pcbnew,9.0.2*%
%TF.CreationDate,2025-09-03T18:51:06+02:00*%
%TF.ProjectId,Afterburner_Nano,41667465-7262-4757-926e-65725f4e616e,rev?*%
%TF.SameCoordinates,Original*%
%TF.FileFunction,Drillmap*%
%TF.FilePolarity,Positive*%
%FSLAX45Y45*%
G04 Gerber Fmt 4.5, Leading zero omitted, Abs format (unit mm)*
G04 Created by KiCad (PCBNEW 9.0.2) date 2025-09-03 18:51:06*
%MOMM*%
%LPD*%
G01*
G04 APERTURE LIST*
%ADD10C,0.050000*%
%ADD11C,0.200000*%
%ADD12C,0.100000*%
%ADD13C,0.102000*%
%ADD14C,0.130000*%
G04 APERTURE END LIST*
D10*
X18275000Y-4900000D02*
X17575000Y-4900000D01*
X17475000Y-4800000D02*
X17475000Y-1900000D01*
X21125000Y-1800000D02*
X17575000Y-1800000D01*
X21125000Y-1800000D02*
G75*
G02*
X21225000Y-1900000I0J-100000D01*
G01*
X18575000Y-5300000D02*
X18575000Y-5200000D01*
X17575000Y-4900000D02*
G75*
G02*
X17475000Y-4800000I0J100000D01*
G01*
X18675000Y-5400000D02*
G75*
G02*
X18575000Y-5300000I0J100000D01*
G01*
X18275000Y-4900000D02*
G75*
G02*
X18575000Y-5200000I0J-300000D01*
G01*
X21225000Y-5300000D02*
X21225000Y-1900000D01*
X17475000Y-1900000D02*
G75*
G02*
X17575000Y-1800000I100000J0D01*
G01*
X21125000Y-5400000D02*
X18675000Y-5400000D01*
X21225000Y-5300000D02*
G75*
G02*
X21125000Y-5400000I-100000J0D01*
G01*
D11*
D12*
X17726500Y-1945500D02*
X17761500Y-1980500D01*
X17761500Y-1945500D02*
X17726500Y-1980500D01*
X17727500Y-1842500D02*
X17762500Y-1877500D01*
X17762500Y-1842500D02*
X17727500Y-1877500D01*
X17827500Y-4537500D02*
X17862500Y-4572500D01*
X17862500Y-4537500D02*
X17827500Y-4572500D01*
X17927500Y-4457500D02*
X17962500Y-4492500D01*
X17962500Y-4457500D02*
X17927500Y-4492500D01*
X18044500Y-4212500D02*
X18079500Y-4247500D01*
X18079500Y-4212500D02*
X18044500Y-4247500D01*
X18134000Y-4225000D02*
X18169000Y-4260000D01*
X18169000Y-4225000D02*
X18134000Y-4260000D01*
X18218500Y-1963500D02*
X18253500Y-1998500D01*
X18253500Y-1963500D02*
X18218500Y-1998500D01*
X18274390Y-4212500D02*
X18309390Y-4247500D01*
X18309390Y-4212500D02*
X18274390Y-4247500D01*
X18299500Y-4476500D02*
X18334500Y-4511500D01*
X18334500Y-4476500D02*
X18299500Y-4511500D01*
X18317500Y-1941500D02*
X18352500Y-1976500D01*
X18352500Y-1941500D02*
X18317500Y-1976500D01*
X18384500Y-2007500D02*
X18419500Y-2042500D01*
X18419500Y-2007500D02*
X18384500Y-2042500D01*
X18408500Y-4607500D02*
X18443500Y-4642500D01*
X18443500Y-4607500D02*
X18408500Y-4642500D01*
X18472500Y-3150500D02*
X18507500Y-3185500D01*
X18507500Y-3150500D02*
X18472500Y-3185500D01*
X18490500Y-4606500D02*
X18525500Y-4641500D01*
X18525500Y-4606500D02*
X18490500Y-4641500D01*
X18529500Y-4719500D02*
X18564500Y-4754500D01*
X18564500Y-4719500D02*
X18529500Y-4754500D01*
X18578500Y-2979500D02*
X18613500Y-3014500D01*
X18613500Y-2979500D02*
X18578500Y-3014500D01*
X18598500Y-3708500D02*
X18633500Y-3743500D01*
X18633500Y-3708500D02*
X18598500Y-3743500D01*
X18708500Y-3711500D02*
X18743500Y-3746500D01*
X18743500Y-3711500D02*
X18708500Y-3746500D01*
X18739173Y-2018360D02*
X18774173Y-2053360D01*
X18774173Y-2018360D02*
X18739173Y-2053360D01*
X18750500Y-2092500D02*
X18785500Y-2127500D01*
X18785500Y-2092500D02*
X18750500Y-2127500D01*
X18781500Y-4566500D02*
X18816500Y-4601500D01*
X18816500Y-4566500D02*
X18781500Y-4601500D01*
X18807000Y-4433000D02*
X18842000Y-4468000D01*
X18842000Y-4433000D02*
X18807000Y-4468000D01*
X18816500Y-3710500D02*
X18851500Y-3745500D01*
X18851500Y-3710500D02*
X18816500Y-3745500D01*
X18817500Y-2997500D02*
X18852500Y-3032500D01*
X18852500Y-2997500D02*
X18817500Y-3032500D01*
X18841500Y-4611500D02*
X18876500Y-4646500D01*
X18876500Y-4611500D02*
X18841500Y-4646500D01*
X18917500Y-2997500D02*
X18952500Y-3032500D01*
X18952500Y-2997500D02*
X18917500Y-3032500D01*
X19017500Y-2997500D02*
X19052500Y-3032500D01*
X19052500Y-2997500D02*
X19017500Y-3032500D01*
X19074500Y-2887500D02*
X19109500Y-2922500D01*
X19109500Y-2887500D02*
X19074500Y-2922500D01*
X19162500Y-2884500D02*
X19197500Y-2919500D01*
X19197500Y-2884500D02*
X19162500Y-2919500D01*
X19215500Y-2799500D02*
X19250500Y-2834500D01*
X19250500Y-2799500D02*
X19215500Y-2834500D01*
X19215500Y-2800500D02*
X19250500Y-2835500D01*
X19250500Y-2800500D02*
X19215500Y-2835500D01*
X19272500Y-2377500D02*
X19307500Y-2412500D01*
X19307500Y-2377500D02*
X19272500Y-2412500D01*
X19286500Y-2707500D02*
X19321500Y-2742500D01*
X19321500Y-2707500D02*
X19286500Y-2742500D01*
X19315500Y-2799500D02*
X19350500Y-2834500D01*
X19350500Y-2799500D02*
X19315500Y-2834500D01*
X19362500Y-2595000D02*
X19397500Y-2630000D01*
X19397500Y-2595000D02*
X19362500Y-2630000D01*
X19388500Y-3744500D02*
X19423500Y-3779500D01*
X19423500Y-3744500D02*
X19388500Y-3779500D01*
X19415500Y-2799500D02*
X19450500Y-2834500D01*
X19450500Y-2799500D02*
X19415500Y-2834500D01*
X19488500Y-3744500D02*
X19523500Y-3779500D01*
X19523500Y-3744500D02*
X19488500Y-3779500D01*
X19505500Y-4246500D02*
X19540500Y-4281500D01*
X19540500Y-4246500D02*
X19505500Y-4281500D01*
X19557500Y-2232500D02*
X19592500Y-2267500D01*
X19592500Y-2232500D02*
X19557500Y-2267500D01*
X19557500Y-3821500D02*
X19592500Y-3856500D01*
X19592500Y-3821500D02*
X19557500Y-3856500D01*
X19611500Y-3744500D02*
X19646500Y-3779500D01*
X19646500Y-3744500D02*
X19611500Y-3779500D01*
X19677500Y-2287500D02*
X19712500Y-2322500D01*
X19712500Y-2287500D02*
X19677500Y-2322500D01*
X19707500Y-2157500D02*
X19742500Y-2192500D01*
X19742500Y-2157500D02*
X19707500Y-2192500D01*
X19712500Y-3744500D02*
X19747500Y-3779500D01*
X19747500Y-3744500D02*
X19712500Y-3779500D01*
X19737500Y-2883500D02*
X19772500Y-2918500D01*
X19772500Y-2883500D02*
X19737500Y-2918500D01*
X19742500Y-4001500D02*
X19777500Y-4036500D01*
X19777500Y-4001500D02*
X19742500Y-4036500D01*
X19755885Y-4665300D02*
X19790885Y-4700300D01*
X19790885Y-4665300D02*
X19755885Y-4700300D01*
X19760500Y-2286500D02*
X19795500Y-2321500D01*
X19795500Y-2286500D02*
X19760500Y-2321500D01*
X19812500Y-3744500D02*
X19847500Y-3779500D01*
X19847500Y-3744500D02*
X19812500Y-3779500D01*
X19884500Y-3671500D02*
X19919500Y-3706500D01*
X19919500Y-3671500D02*
X19884500Y-3706500D01*
X19947500Y-2292500D02*
X19982500Y-2327500D01*
X19982500Y-2292500D02*
X19947500Y-2327500D01*
X19982500Y-2462500D02*
X20017500Y-2497500D01*
X20017500Y-2462500D02*
X19982500Y-2497500D01*
X20017500Y-3674500D02*
X20052500Y-3709500D01*
X20052500Y-3674500D02*
X20017500Y-3709500D01*
X20178500Y-3378500D02*
X20213500Y-3413500D01*
X20213500Y-3378500D02*
X20178500Y-3413500D01*
X20189350Y-2372000D02*
X20224350Y-2407000D01*
X20224350Y-2372000D02*
X20189350Y-2407000D01*
X20223500Y-4809500D02*
X20258500Y-4844500D01*
X20258500Y-4809500D02*
X20223500Y-4844500D01*
X20309350Y-2222000D02*
X20344350Y-2257000D01*
X20344350Y-2222000D02*
X20309350Y-2257000D01*
X20391500Y-3800500D02*
X20426500Y-3835500D01*
X20426500Y-3800500D02*
X20391500Y-3835500D01*
X20394500Y-3379500D02*
X20429500Y-3414500D01*
X20429500Y-3379500D02*
X20394500Y-3414500D01*
X20522500Y-3377500D02*
X20557500Y-3412500D01*
X20557500Y-3377500D02*
X20522500Y-3412500D01*
X20541950Y-2102500D02*
X20576950Y-2137500D01*
X20576950Y-2102500D02*
X20541950Y-2137500D01*
X20541950Y-2742500D02*
X20576950Y-2777500D01*
X20576950Y-2742500D02*
X20541950Y-2777500D01*
X20541950Y-4433000D02*
X20576950Y-4468000D01*
X20576950Y-4433000D02*
X20541950Y-4468000D01*
X20541950Y-5073000D02*
X20576950Y-5108000D01*
X20576950Y-5073000D02*
X20541950Y-5108000D01*
X17570000Y-2200000D02*
G75*
G02*
X17530000Y-2200000I-20000J0D01*
G01*
X17530000Y-2200000D02*
G75*
G02*
X17570000Y-2200000I20000J0D01*
G01*
X17570000Y-2300000D02*
G75*
G02*
X17530000Y-2300000I-20000J0D01*
G01*
X17530000Y-2300000D02*
G75*
G02*
X17570000Y-2300000I20000J0D01*
G01*
X17570000Y-2400000D02*
G75*
G02*
X17530000Y-2400000I-20000J0D01*
G01*
X17530000Y-2400000D02*
G75*
G02*
X17570000Y-2400000I20000J0D01*
G01*
X17570000Y-2700000D02*
G75*
G02*
X17530000Y-2700000I-20000J0D01*
G01*
X17530000Y-2700000D02*
G75*
G02*
X17570000Y-2700000I20000J0D01*
G01*
X17570000Y-2800000D02*
G75*
G02*
X17530000Y-2800000I-20000J0D01*
G01*
X17530000Y-2800000D02*
G75*
G02*
X17570000Y-2800000I20000J0D01*
G01*
X17570000Y-2900000D02*
G75*
G02*
X17530000Y-2900000I-20000J0D01*
G01*
X17530000Y-2900000D02*
G75*
G02*
X17570000Y-2900000I20000J0D01*
G01*
X17670000Y-2200000D02*
G75*
G02*
X17630000Y-2200000I-20000J0D01*
G01*
X17630000Y-2200000D02*
G75*
G02*
X17670000Y-2200000I20000J0D01*
G01*
X17670000Y-2300000D02*
G75*
G02*
X17630000Y-2300000I-20000J0D01*
G01*
X17630000Y-2300000D02*
G75*
G02*
X17670000Y-2300000I20000J0D01*
G01*
X17670000Y-2400000D02*
G75*
G02*
X17630000Y-2400000I-20000J0D01*
G01*
X17630000Y-2400000D02*
G75*
G02*
X17670000Y-2400000I20000J0D01*
G01*
X17670000Y-2700000D02*
G75*
G02*
X17630000Y-2700000I-20000J0D01*
G01*
X17630000Y-2700000D02*
G75*
G02*
X17670000Y-2700000I20000J0D01*
G01*
X17670000Y-2800000D02*
G75*
G02*
X17630000Y-2800000I-20000J0D01*
G01*
X17630000Y-2800000D02*
G75*
G02*
X17670000Y-2800000I20000J0D01*
G01*
X17670000Y-2900000D02*
G75*
G02*
X17630000Y-2900000I-20000J0D01*
G01*
X17630000Y-2900000D02*
G75*
G02*
X17670000Y-2900000I20000J0D01*
G01*
X17770000Y-2200000D02*
G75*
G02*
X17730000Y-2200000I-20000J0D01*
G01*
X17730000Y-2200000D02*
G75*
G02*
X17770000Y-2200000I20000J0D01*
G01*
X17770000Y-2300000D02*
G75*
G02*
X17730000Y-2300000I-20000J0D01*
G01*
X17730000Y-2300000D02*
G75*
G02*
X17770000Y-2300000I20000J0D01*
G01*
X17770000Y-2400000D02*
G75*
G02*
X17730000Y-2400000I-20000J0D01*
G01*
X17730000Y-2400000D02*
G75*
G02*
X17770000Y-2400000I20000J0D01*
G01*
X17770000Y-2700000D02*
G75*
G02*
X17730000Y-2700000I-20000J0D01*
G01*
X17730000Y-2700000D02*
G75*
G02*
X17770000Y-2700000I20000J0D01*
G01*
X17770000Y-2800000D02*
G75*
G02*
X17730000Y-2800000I-20000J0D01*
G01*
X17730000Y-2800000D02*
G75*
G02*
X17770000Y-2800000I20000J0D01*
G01*
X17770000Y-2900000D02*
G75*
G02*
X17730000Y-2900000I-20000J0D01*
G01*
X17730000Y-2900000D02*
G75*
G02*
X17770000Y-2900000I20000J0D01*
G01*
X17870000Y-2200000D02*
G75*
G02*
X17830000Y-2200000I-20000J0D01*
G01*
X17830000Y-2200000D02*
G75*
G02*
X17870000Y-2200000I20000J0D01*
G01*
X17870000Y-2300000D02*
G75*
G02*
X17830000Y-2300000I-20000J0D01*
G01*
X17830000Y-2300000D02*
G75*
G02*
X17870000Y-2300000I20000J0D01*
G01*
X17870000Y-2400000D02*
G75*
G02*
X17830000Y-2400000I-20000J0D01*
G01*
X17830000Y-2400000D02*
G75*
G02*
X17870000Y-2400000I20000J0D01*
G01*
X17870000Y-2700000D02*
G75*
G02*
X17830000Y-2700000I-20000J0D01*
G01*
X17830000Y-2700000D02*
G75*
G02*
X17870000Y-2700000I20000J0D01*
G01*
X17870000Y-2800000D02*
G75*
G02*
X17830000Y-2800000I-20000J0D01*
G01*
X17830000Y-2800000D02*
G75*
G02*
X17870000Y-2800000I20000J0D01*
G01*
X17870000Y-2900000D02*
G75*
G02*
X17830000Y-2900000I-20000J0D01*
G01*
X17830000Y-2900000D02*
G75*
G02*
X17870000Y-2900000I20000J0D01*
G01*
X17585000Y-3600000D02*
X17585000Y-3660000D01*
X17555000Y-3630000D02*
X17615000Y-3630000D01*
X17585000Y-3750000D02*
X17585000Y-3810000D01*
X17555000Y-3780000D02*
X17615000Y-3780000D01*
X17585000Y-3900000D02*
X17585000Y-3960000D01*
X17555000Y-3930000D02*
X17615000Y-3930000D01*
X17585000Y-4050000D02*
X17585000Y-4110000D01*
X17555000Y-4080000D02*
X17615000Y-4080000D01*
X17585000Y-4315000D02*
X17585000Y-4375000D01*
X17555000Y-4345000D02*
X17615000Y-4345000D01*
X17585000Y-4465000D02*
X17585000Y-4525000D01*
X17555000Y-4495000D02*
X17615000Y-4495000D01*
X17585000Y-4615000D02*
X17585000Y-4675000D01*
X17555000Y-4645000D02*
X17615000Y-4645000D01*
X17585000Y-4765000D02*
X17585000Y-4825000D01*
X17555000Y-4795000D02*
X17615000Y-4795000D01*
D13*
X20801063Y-2151063D02*
X20801063Y-2078937D01*
X20728937Y-2078937D01*
X20728937Y-2151063D01*
X20801063Y-2151063D01*
X20801063Y-2801063D02*
X20801063Y-2728937D01*
X20728937Y-2728937D01*
X20728937Y-2801063D01*
X20801063Y-2801063D01*
X20801063Y-4481563D02*
X20801063Y-4409437D01*
X20728937Y-4409437D01*
X20728937Y-4481563D01*
X20801063Y-4481563D01*
X20801063Y-5131563D02*
X20801063Y-5059437D01*
X20728937Y-5059437D01*
X20728937Y-5131563D01*
X20801063Y-5131563D01*
D14*
X20755000Y-2015500D02*
X20820000Y-1950500D01*
X20755000Y-1885500D01*
X20690000Y-1950500D01*
X20755000Y-2015500D01*
X20755000Y-2994500D02*
X20820000Y-2929500D01*
X20755000Y-2864500D01*
X20690000Y-2929500D01*
X20755000Y-2994500D01*
X20755000Y-4346000D02*
X20820000Y-4281000D01*
X20755000Y-4216000D01*
X20690000Y-4281000D01*
X20755000Y-4346000D01*
X20755000Y-5325000D02*
X20820000Y-5260000D01*
X20755000Y-5195000D01*
X20690000Y-5260000D01*
X20755000Y-5325000D01*
X21055000Y-2015500D02*
X21120000Y-1950500D01*
X21055000Y-1885500D01*
X20990000Y-1950500D01*
X21055000Y-2015500D01*
X21055000Y-2994500D02*
X21120000Y-2929500D01*
X21055000Y-2864500D01*
X20990000Y-2929500D01*
X21055000Y-2994500D01*
X21055000Y-4346000D02*
X21120000Y-4281000D01*
X21055000Y-4216000D01*
X20990000Y-4281000D01*
X21055000Y-4346000D01*
X21055000Y-5325000D02*
X21120000Y-5260000D01*
X21055000Y-5195000D01*
X20990000Y-5260000D01*
X21055000Y-5325000D01*
D11*
X17733277Y-5713984D02*
X17733277Y-5513984D01*
X17733277Y-5513984D02*
X17780896Y-5513984D01*
X17780896Y-5513984D02*
X17809467Y-5523508D01*
X17809467Y-5523508D02*
X17828515Y-5542555D01*
X17828515Y-5542555D02*
X17838039Y-5561603D01*
X17838039Y-5561603D02*
X17847563Y-5599698D01*
X17847563Y-5599698D02*
X17847563Y-5628269D01*
X17847563Y-5628269D02*
X17838039Y-5666365D01*
X17838039Y-5666365D02*
X17828515Y-5685412D01*
X17828515Y-5685412D02*
X17809467Y-5704460D01*
X17809467Y-5704460D02*
X17780896Y-5713984D01*
X17780896Y-5713984D02*
X17733277Y-5713984D01*
X17933277Y-5713984D02*
X17933277Y-5580650D01*
X17933277Y-5618746D02*
X17942801Y-5599698D01*
X17942801Y-5599698D02*
X17952324Y-5590174D01*
X17952324Y-5590174D02*
X17971372Y-5580650D01*
X17971372Y-5580650D02*
X17990420Y-5580650D01*
X18057086Y-5713984D02*
X18057086Y-5580650D01*
X18057086Y-5513984D02*
X18047563Y-5523508D01*
X18047563Y-5523508D02*
X18057086Y-5533031D01*
X18057086Y-5533031D02*
X18066610Y-5523508D01*
X18066610Y-5523508D02*
X18057086Y-5513984D01*
X18057086Y-5513984D02*
X18057086Y-5533031D01*
X18180896Y-5713984D02*
X18161848Y-5704460D01*
X18161848Y-5704460D02*
X18152324Y-5685412D01*
X18152324Y-5685412D02*
X18152324Y-5513984D01*
X18285658Y-5713984D02*
X18266610Y-5704460D01*
X18266610Y-5704460D02*
X18257086Y-5685412D01*
X18257086Y-5685412D02*
X18257086Y-5513984D01*
X18514229Y-5713984D02*
X18514229Y-5513984D01*
X18514229Y-5513984D02*
X18580896Y-5656841D01*
X18580896Y-5656841D02*
X18647563Y-5513984D01*
X18647563Y-5513984D02*
X18647563Y-5713984D01*
X18828515Y-5713984D02*
X18828515Y-5609222D01*
X18828515Y-5609222D02*
X18818991Y-5590174D01*
X18818991Y-5590174D02*
X18799944Y-5580650D01*
X18799944Y-5580650D02*
X18761848Y-5580650D01*
X18761848Y-5580650D02*
X18742801Y-5590174D01*
X18828515Y-5704460D02*
X18809467Y-5713984D01*
X18809467Y-5713984D02*
X18761848Y-5713984D01*
X18761848Y-5713984D02*
X18742801Y-5704460D01*
X18742801Y-5704460D02*
X18733277Y-5685412D01*
X18733277Y-5685412D02*
X18733277Y-5666365D01*
X18733277Y-5666365D02*
X18742801Y-5647317D01*
X18742801Y-5647317D02*
X18761848Y-5637793D01*
X18761848Y-5637793D02*
X18809467Y-5637793D01*
X18809467Y-5637793D02*
X18828515Y-5628269D01*
X18923753Y-5580650D02*
X18923753Y-5780650D01*
X18923753Y-5590174D02*
X18942801Y-5580650D01*
X18942801Y-5580650D02*
X18980896Y-5580650D01*
X18980896Y-5580650D02*
X18999944Y-5590174D01*
X18999944Y-5590174D02*
X19009467Y-5599698D01*
X19009467Y-5599698D02*
X19018991Y-5618746D01*
X19018991Y-5618746D02*
X19018991Y-5675888D01*
X19018991Y-5675888D02*
X19009467Y-5694936D01*
X19009467Y-5694936D02*
X18999944Y-5704460D01*
X18999944Y-5704460D02*
X18980896Y-5713984D01*
X18980896Y-5713984D02*
X18942801Y-5713984D01*
X18942801Y-5713984D02*
X18923753Y-5704460D01*
X19104705Y-5694936D02*
X19114229Y-5704460D01*
X19114229Y-5704460D02*
X19104705Y-5713984D01*
X19104705Y-5713984D02*
X19095182Y-5704460D01*
X19095182Y-5704460D02*
X19104705Y-5694936D01*
X19104705Y-5694936D02*
X19104705Y-5713984D01*
X19104705Y-5590174D02*
X19114229Y-5599698D01*
X19114229Y-5599698D02*
X19104705Y-5609222D01*
X19104705Y-5609222D02*
X19095182Y-5599698D01*
X19095182Y-5599698D02*
X19104705Y-5590174D01*
X19104705Y-5590174D02*
X19104705Y-5609222D01*
D12*
X17437500Y-6025000D02*
X17472500Y-6060000D01*
X17472500Y-6025000D02*
X17437500Y-6060000D01*
D11*
X17771372Y-5933984D02*
X17790420Y-5933984D01*
X17790420Y-5933984D02*
X17809467Y-5943508D01*
X17809467Y-5943508D02*
X17818991Y-5953031D01*
X17818991Y-5953031D02*
X17828515Y-5972079D01*
X17828515Y-5972079D02*
X17838039Y-6010174D01*
X17838039Y-6010174D02*
X17838039Y-6057793D01*
X17838039Y-6057793D02*
X17828515Y-6095888D01*
X17828515Y-6095888D02*
X17818991Y-6114936D01*
X17818991Y-6114936D02*
X17809467Y-6124460D01*
X17809467Y-6124460D02*
X17790420Y-6133984D01*
X17790420Y-6133984D02*
X17771372Y-6133984D01*
X17771372Y-6133984D02*
X17752324Y-6124460D01*
X17752324Y-6124460D02*
X17742801Y-6114936D01*
X17742801Y-6114936D02*
X17733277Y-6095888D01*
X17733277Y-6095888D02*
X17723753Y-6057793D01*
X17723753Y-6057793D02*
X17723753Y-6010174D01*
X17723753Y-6010174D02*
X17733277Y-5972079D01*
X17733277Y-5972079D02*
X17742801Y-5953031D01*
X17742801Y-5953031D02*
X17752324Y-5943508D01*
X17752324Y-5943508D02*
X17771372Y-5933984D01*
X17923753Y-6114936D02*
X17933277Y-6124460D01*
X17933277Y-6124460D02*
X17923753Y-6133984D01*
X17923753Y-6133984D02*
X17914229Y-6124460D01*
X17914229Y-6124460D02*
X17923753Y-6114936D01*
X17923753Y-6114936D02*
X17923753Y-6133984D01*
X17999944Y-5933984D02*
X18123753Y-5933984D01*
X18123753Y-5933984D02*
X18057086Y-6010174D01*
X18057086Y-6010174D02*
X18085658Y-6010174D01*
X18085658Y-6010174D02*
X18104705Y-6019698D01*
X18104705Y-6019698D02*
X18114229Y-6029222D01*
X18114229Y-6029222D02*
X18123753Y-6048269D01*
X18123753Y-6048269D02*
X18123753Y-6095888D01*
X18123753Y-6095888D02*
X18114229Y-6114936D01*
X18114229Y-6114936D02*
X18104705Y-6124460D01*
X18104705Y-6124460D02*
X18085658Y-6133984D01*
X18085658Y-6133984D02*
X18028515Y-6133984D01*
X18028515Y-6133984D02*
X18009467Y-6124460D01*
X18009467Y-6124460D02*
X17999944Y-6114936D01*
X18304705Y-5933984D02*
X18209467Y-5933984D01*
X18209467Y-5933984D02*
X18199944Y-6029222D01*
X18199944Y-6029222D02*
X18209467Y-6019698D01*
X18209467Y-6019698D02*
X18228515Y-6010174D01*
X18228515Y-6010174D02*
X18276134Y-6010174D01*
X18276134Y-6010174D02*
X18295182Y-6019698D01*
X18295182Y-6019698D02*
X18304705Y-6029222D01*
X18304705Y-6029222D02*
X18314229Y-6048269D01*
X18314229Y-6048269D02*
X18314229Y-6095888D01*
X18314229Y-6095888D02*
X18304705Y-6114936D01*
X18304705Y-6114936D02*
X18295182Y-6124460D01*
X18295182Y-6124460D02*
X18276134Y-6133984D01*
X18276134Y-6133984D02*
X18228515Y-6133984D01*
X18228515Y-6133984D02*
X18209467Y-6124460D01*
X18209467Y-6124460D02*
X18199944Y-6114936D01*
X18438039Y-5933984D02*
X18457086Y-5933984D01*
X18457086Y-5933984D02*
X18476134Y-5943508D01*
X18476134Y-5943508D02*
X18485658Y-5953031D01*
X18485658Y-5953031D02*
X18495182Y-5972079D01*
X18495182Y-5972079D02*
X18504705Y-6010174D01*
X18504705Y-6010174D02*
X18504705Y-6057793D01*
X18504705Y-6057793D02*
X18495182Y-6095888D01*
X18495182Y-6095888D02*
X18485658Y-6114936D01*
X18485658Y-6114936D02*
X18476134Y-6124460D01*
X18476134Y-6124460D02*
X18457086Y-6133984D01*
X18457086Y-6133984D02*
X18438039Y-6133984D01*
X18438039Y-6133984D02*
X18418991Y-6124460D01*
X18418991Y-6124460D02*
X18409467Y-6114936D01*
X18409467Y-6114936D02*
X18399944Y-6095888D01*
X18399944Y-6095888D02*
X18390420Y-6057793D01*
X18390420Y-6057793D02*
X18390420Y-6010174D01*
X18390420Y-6010174D02*
X18399944Y-5972079D01*
X18399944Y-5972079D02*
X18409467Y-5953031D01*
X18409467Y-5953031D02*
X18418991Y-5943508D01*
X18418991Y-5943508D02*
X18438039Y-5933984D01*
X18590420Y-6133984D02*
X18590420Y-6000650D01*
X18590420Y-6019698D02*
X18599944Y-6010174D01*
X18599944Y-6010174D02*
X18618991Y-6000650D01*
X18618991Y-6000650D02*
X18647563Y-6000650D01*
X18647563Y-6000650D02*
X18666610Y-6010174D01*
X18666610Y-6010174D02*
X18676134Y-6029222D01*
X18676134Y-6029222D02*
X18676134Y-6133984D01*
X18676134Y-6029222D02*
X18685658Y-6010174D01*
X18685658Y-6010174D02*
X18704705Y-6000650D01*
X18704705Y-6000650D02*
X18733277Y-6000650D01*
X18733277Y-6000650D02*
X18752325Y-6010174D01*
X18752325Y-6010174D02*
X18761848Y-6029222D01*
X18761848Y-6029222D02*
X18761848Y-6133984D01*
X18857086Y-6133984D02*
X18857086Y-6000650D01*
X18857086Y-6019698D02*
X18866610Y-6010174D01*
X18866610Y-6010174D02*
X18885658Y-6000650D01*
X18885658Y-6000650D02*
X18914229Y-6000650D01*
X18914229Y-6000650D02*
X18933277Y-6010174D01*
X18933277Y-6010174D02*
X18942801Y-6029222D01*
X18942801Y-6029222D02*
X18942801Y-6133984D01*
X18942801Y-6029222D02*
X18952325Y-6010174D01*
X18952325Y-6010174D02*
X18971372Y-6000650D01*
X18971372Y-6000650D02*
X18999944Y-6000650D01*
X18999944Y-6000650D02*
X19018991Y-6010174D01*
X19018991Y-6010174D02*
X19028515Y-6029222D01*
X19028515Y-6029222D02*
X19028515Y-6133984D01*
X19418991Y-5924460D02*
X19247563Y-6181603D01*
X19676134Y-5933984D02*
X19695182Y-5933984D01*
X19695182Y-5933984D02*
X19714229Y-5943508D01*
X19714229Y-5943508D02*
X19723753Y-5953031D01*
X19723753Y-5953031D02*
X19733277Y-5972079D01*
X19733277Y-5972079D02*
X19742801Y-6010174D01*
X19742801Y-6010174D02*
X19742801Y-6057793D01*
X19742801Y-6057793D02*
X19733277Y-6095888D01*
X19733277Y-6095888D02*
X19723753Y-6114936D01*
X19723753Y-6114936D02*
X19714229Y-6124460D01*
X19714229Y-6124460D02*
X19695182Y-6133984D01*
X19695182Y-6133984D02*
X19676134Y-6133984D01*
X19676134Y-6133984D02*
X19657087Y-6124460D01*
X19657087Y-6124460D02*
X19647563Y-6114936D01*
X19647563Y-6114936D02*
X19638039Y-6095888D01*
X19638039Y-6095888D02*
X19628515Y-6057793D01*
X19628515Y-6057793D02*
X19628515Y-6010174D01*
X19628515Y-6010174D02*
X19638039Y-5972079D01*
X19638039Y-5972079D02*
X19647563Y-5953031D01*
X19647563Y-5953031D02*
X19657087Y-5943508D01*
X19657087Y-5943508D02*
X19676134Y-5933984D01*
X19828515Y-6114936D02*
X19838039Y-6124460D01*
X19838039Y-6124460D02*
X19828515Y-6133984D01*
X19828515Y-6133984D02*
X19818991Y-6124460D01*
X19818991Y-6124460D02*
X19828515Y-6114936D01*
X19828515Y-6114936D02*
X19828515Y-6133984D01*
X19961848Y-5933984D02*
X19980896Y-5933984D01*
X19980896Y-5933984D02*
X19999944Y-5943508D01*
X19999944Y-5943508D02*
X20009468Y-5953031D01*
X20009468Y-5953031D02*
X20018991Y-5972079D01*
X20018991Y-5972079D02*
X20028515Y-6010174D01*
X20028515Y-6010174D02*
X20028515Y-6057793D01*
X20028515Y-6057793D02*
X20018991Y-6095888D01*
X20018991Y-6095888D02*
X20009468Y-6114936D01*
X20009468Y-6114936D02*
X19999944Y-6124460D01*
X19999944Y-6124460D02*
X19980896Y-6133984D01*
X19980896Y-6133984D02*
X19961848Y-6133984D01*
X19961848Y-6133984D02*
X19942801Y-6124460D01*
X19942801Y-6124460D02*
X19933277Y-6114936D01*
X19933277Y-6114936D02*
X19923753Y-6095888D01*
X19923753Y-6095888D02*
X19914229Y-6057793D01*
X19914229Y-6057793D02*
X19914229Y-6010174D01*
X19914229Y-6010174D02*
X19923753Y-5972079D01*
X19923753Y-5972079D02*
X19933277Y-5953031D01*
X19933277Y-5953031D02*
X19942801Y-5943508D01*
X19942801Y-5943508D02*
X19961848Y-5933984D01*
X20218991Y-6133984D02*
X20104706Y-6133984D01*
X20161848Y-6133984D02*
X20161848Y-5933984D01*
X20161848Y-5933984D02*
X20142801Y-5962555D01*
X20142801Y-5962555D02*
X20123753Y-5981603D01*
X20123753Y-5981603D02*
X20104706Y-5991127D01*
X20285658Y-5933984D02*
X20409468Y-5933984D01*
X20409468Y-5933984D02*
X20342801Y-6010174D01*
X20342801Y-6010174D02*
X20371372Y-6010174D01*
X20371372Y-6010174D02*
X20390420Y-6019698D01*
X20390420Y-6019698D02*
X20399944Y-6029222D01*
X20399944Y-6029222D02*
X20409468Y-6048269D01*
X20409468Y-6048269D02*
X20409468Y-6095888D01*
X20409468Y-6095888D02*
X20399944Y-6114936D01*
X20399944Y-6114936D02*
X20390420Y-6124460D01*
X20390420Y-6124460D02*
X20371372Y-6133984D01*
X20371372Y-6133984D02*
X20314229Y-6133984D01*
X20314229Y-6133984D02*
X20295182Y-6124460D01*
X20295182Y-6124460D02*
X20285658Y-6114936D01*
X20523753Y-6019698D02*
X20504706Y-6010174D01*
X20504706Y-6010174D02*
X20495182Y-6000650D01*
X20495182Y-6000650D02*
X20485658Y-5981603D01*
X20485658Y-5981603D02*
X20485658Y-5972079D01*
X20485658Y-5972079D02*
X20495182Y-5953031D01*
X20495182Y-5953031D02*
X20504706Y-5943508D01*
X20504706Y-5943508D02*
X20523753Y-5933984D01*
X20523753Y-5933984D02*
X20561849Y-5933984D01*
X20561849Y-5933984D02*
X20580896Y-5943508D01*
X20580896Y-5943508D02*
X20590420Y-5953031D01*
X20590420Y-5953031D02*
X20599944Y-5972079D01*
X20599944Y-5972079D02*
X20599944Y-5981603D01*
X20599944Y-5981603D02*
X20590420Y-6000650D01*
X20590420Y-6000650D02*
X20580896Y-6010174D01*
X20580896Y-6010174D02*
X20561849Y-6019698D01*
X20561849Y-6019698D02*
X20523753Y-6019698D01*
X20523753Y-6019698D02*
X20504706Y-6029222D01*
X20504706Y-6029222D02*
X20495182Y-6038746D01*
X20495182Y-6038746D02*
X20485658Y-6057793D01*
X20485658Y-6057793D02*
X20485658Y-6095888D01*
X20485658Y-6095888D02*
X20495182Y-6114936D01*
X20495182Y-6114936D02*
X20504706Y-6124460D01*
X20504706Y-6124460D02*
X20523753Y-6133984D01*
X20523753Y-6133984D02*
X20561849Y-6133984D01*
X20561849Y-6133984D02*
X20580896Y-6124460D01*
X20580896Y-6124460D02*
X20590420Y-6114936D01*
X20590420Y-6114936D02*
X20599944Y-6095888D01*
X20599944Y-6095888D02*
X20599944Y-6057793D01*
X20599944Y-6057793D02*
X20590420Y-6038746D01*
X20590420Y-6038746D02*
X20580896Y-6029222D01*
X20580896Y-6029222D02*
X20561849Y-6019698D01*
X20676134Y-5933984D02*
X20676134Y-5972079D01*
X20752325Y-5933984D02*
X20752325Y-5972079D01*
X21047563Y-6210174D02*
X21038039Y-6200650D01*
X21038039Y-6200650D02*
X21018991Y-6172079D01*
X21018991Y-6172079D02*
X21009468Y-6153031D01*
X21009468Y-6153031D02*
X20999944Y-6124460D01*
X20999944Y-6124460D02*
X20990420Y-6076841D01*
X20990420Y-6076841D02*
X20990420Y-6038746D01*
X20990420Y-6038746D02*
X20999944Y-5991127D01*
X20999944Y-5991127D02*
X21009468Y-5962555D01*
X21009468Y-5962555D02*
X21018991Y-5943508D01*
X21018991Y-5943508D02*
X21038039Y-5914936D01*
X21038039Y-5914936D02*
X21047563Y-5905412D01*
X21209468Y-5933984D02*
X21171372Y-5933984D01*
X21171372Y-5933984D02*
X21152325Y-5943508D01*
X21152325Y-5943508D02*
X21142801Y-5953031D01*
X21142801Y-5953031D02*
X21123753Y-5981603D01*
X21123753Y-5981603D02*
X21114230Y-6019698D01*
X21114230Y-6019698D02*
X21114230Y-6095888D01*
X21114230Y-6095888D02*
X21123753Y-6114936D01*
X21123753Y-6114936D02*
X21133277Y-6124460D01*
X21133277Y-6124460D02*
X21152325Y-6133984D01*
X21152325Y-6133984D02*
X21190420Y-6133984D01*
X21190420Y-6133984D02*
X21209468Y-6124460D01*
X21209468Y-6124460D02*
X21218991Y-6114936D01*
X21218991Y-6114936D02*
X21228515Y-6095888D01*
X21228515Y-6095888D02*
X21228515Y-6048269D01*
X21228515Y-6048269D02*
X21218991Y-6029222D01*
X21218991Y-6029222D02*
X21209468Y-6019698D01*
X21209468Y-6019698D02*
X21190420Y-6010174D01*
X21190420Y-6010174D02*
X21152325Y-6010174D01*
X21152325Y-6010174D02*
X21133277Y-6019698D01*
X21133277Y-6019698D02*
X21123753Y-6029222D01*
X21123753Y-6029222D02*
X21114230Y-6048269D01*
X21409468Y-5933984D02*
X21314230Y-5933984D01*
X21314230Y-5933984D02*
X21304706Y-6029222D01*
X21304706Y-6029222D02*
X21314230Y-6019698D01*
X21314230Y-6019698D02*
X21333277Y-6010174D01*
X21333277Y-6010174D02*
X21380896Y-6010174D01*
X21380896Y-6010174D02*
X21399944Y-6019698D01*
X21399944Y-6019698D02*
X21409468Y-6029222D01*
X21409468Y-6029222D02*
X21418991Y-6048269D01*
X21418991Y-6048269D02*
X21418991Y-6095888D01*
X21418991Y-6095888D02*
X21409468Y-6114936D01*
X21409468Y-6114936D02*
X21399944Y-6124460D01*
X21399944Y-6124460D02*
X21380896Y-6133984D01*
X21380896Y-6133984D02*
X21333277Y-6133984D01*
X21333277Y-6133984D02*
X21314230Y-6124460D01*
X21314230Y-6124460D02*
X21304706Y-6114936D01*
X21657087Y-6133984D02*
X21657087Y-5933984D01*
X21742801Y-6133984D02*
X21742801Y-6029222D01*
X21742801Y-6029222D02*
X21733277Y-6010174D01*
X21733277Y-6010174D02*
X21714230Y-6000650D01*
X21714230Y-6000650D02*
X21685658Y-6000650D01*
X21685658Y-6000650D02*
X21666611Y-6010174D01*
X21666611Y-6010174D02*
X21657087Y-6019698D01*
X21866611Y-6133984D02*
X21847563Y-6124460D01*
X21847563Y-6124460D02*
X21838039Y-6114936D01*
X21838039Y-6114936D02*
X21828515Y-6095888D01*
X21828515Y-6095888D02*
X21828515Y-6038746D01*
X21828515Y-6038746D02*
X21838039Y-6019698D01*
X21838039Y-6019698D02*
X21847563Y-6010174D01*
X21847563Y-6010174D02*
X21866611Y-6000650D01*
X21866611Y-6000650D02*
X21895182Y-6000650D01*
X21895182Y-6000650D02*
X21914230Y-6010174D01*
X21914230Y-6010174D02*
X21923753Y-6019698D01*
X21923753Y-6019698D02*
X21933277Y-6038746D01*
X21933277Y-6038746D02*
X21933277Y-6095888D01*
X21933277Y-6095888D02*
X21923753Y-6114936D01*
X21923753Y-6114936D02*
X21914230Y-6124460D01*
X21914230Y-6124460D02*
X21895182Y-6133984D01*
X21895182Y-6133984D02*
X21866611Y-6133984D01*
X22047563Y-6133984D02*
X22028515Y-6124460D01*
X22028515Y-6124460D02*
X22018992Y-6105412D01*
X22018992Y-6105412D02*
X22018992Y-5933984D01*
X22199944Y-6124460D02*
X22180896Y-6133984D01*
X22180896Y-6133984D02*
X22142801Y-6133984D01*
X22142801Y-6133984D02*
X22123753Y-6124460D01*
X22123753Y-6124460D02*
X22114230Y-6105412D01*
X22114230Y-6105412D02*
X22114230Y-6029222D01*
X22114230Y-6029222D02*
X22123753Y-6010174D01*
X22123753Y-6010174D02*
X22142801Y-6000650D01*
X22142801Y-6000650D02*
X22180896Y-6000650D01*
X22180896Y-6000650D02*
X22199944Y-6010174D01*
X22199944Y-6010174D02*
X22209468Y-6029222D01*
X22209468Y-6029222D02*
X22209468Y-6048269D01*
X22209468Y-6048269D02*
X22114230Y-6067317D01*
X22285658Y-6124460D02*
X22304706Y-6133984D01*
X22304706Y-6133984D02*
X22342801Y-6133984D01*
X22342801Y-6133984D02*
X22361849Y-6124460D01*
X22361849Y-6124460D02*
X22371372Y-6105412D01*
X22371372Y-6105412D02*
X22371372Y-6095888D01*
X22371372Y-6095888D02*
X22361849Y-6076841D01*
X22361849Y-6076841D02*
X22342801Y-6067317D01*
X22342801Y-6067317D02*
X22314230Y-6067317D01*
X22314230Y-6067317D02*
X22295182Y-6057793D01*
X22295182Y-6057793D02*
X22285658Y-6038746D01*
X22285658Y-6038746D02*
X22285658Y-6029222D01*
X22285658Y-6029222D02*
X22295182Y-6010174D01*
X22295182Y-6010174D02*
X22314230Y-6000650D01*
X22314230Y-6000650D02*
X22342801Y-6000650D01*
X22342801Y-6000650D02*
X22361849Y-6010174D01*
X22438039Y-6210174D02*
X22447563Y-6200650D01*
X22447563Y-6200650D02*
X22466611Y-6172079D01*
X22466611Y-6172079D02*
X22476134Y-6153031D01*
X22476134Y-6153031D02*
X22485658Y-6124460D01*
X22485658Y-6124460D02*
X22495182Y-6076841D01*
X22495182Y-6076841D02*
X22495182Y-6038746D01*
X22495182Y-6038746D02*
X22485658Y-5991127D01*
X22485658Y-5991127D02*
X22476134Y-5962555D01*
X22476134Y-5962555D02*
X22466611Y-5943508D01*
X22466611Y-5943508D02*
X22447563Y-5914936D01*
X22447563Y-5914936D02*
X22438039Y-5905412D01*
D12*
X17472500Y-6306500D02*
G75*
G02*
X17432500Y-6306500I-20000J0D01*
G01*
X17432500Y-6306500D02*
G75*
G02*
X17472500Y-6306500I20000J0D01*
G01*
D11*
X17771372Y-6197984D02*
X17790420Y-6197984D01*
X17790420Y-6197984D02*
X17809467Y-6207508D01*
X17809467Y-6207508D02*
X17818991Y-6217031D01*
X17818991Y-6217031D02*
X17828515Y-6236079D01*
X17828515Y-6236079D02*
X17838039Y-6274174D01*
X17838039Y-6274174D02*
X17838039Y-6321793D01*
X17838039Y-6321793D02*
X17828515Y-6359888D01*
X17828515Y-6359888D02*
X17818991Y-6378936D01*
X17818991Y-6378936D02*
X17809467Y-6388460D01*
X17809467Y-6388460D02*
X17790420Y-6397984D01*
X17790420Y-6397984D02*
X17771372Y-6397984D01*
X17771372Y-6397984D02*
X17752324Y-6388460D01*
X17752324Y-6388460D02*
X17742801Y-6378936D01*
X17742801Y-6378936D02*
X17733277Y-6359888D01*
X17733277Y-6359888D02*
X17723753Y-6321793D01*
X17723753Y-6321793D02*
X17723753Y-6274174D01*
X17723753Y-6274174D02*
X17733277Y-6236079D01*
X17733277Y-6236079D02*
X17742801Y-6217031D01*
X17742801Y-6217031D02*
X17752324Y-6207508D01*
X17752324Y-6207508D02*
X17771372Y-6197984D01*
X17923753Y-6378936D02*
X17933277Y-6388460D01*
X17933277Y-6388460D02*
X17923753Y-6397984D01*
X17923753Y-6397984D02*
X17914229Y-6388460D01*
X17914229Y-6388460D02*
X17923753Y-6378936D01*
X17923753Y-6378936D02*
X17923753Y-6397984D01*
X18104705Y-6264650D02*
X18104705Y-6397984D01*
X18057086Y-6188460D02*
X18009467Y-6331317D01*
X18009467Y-6331317D02*
X18133277Y-6331317D01*
X18247563Y-6197984D02*
X18266610Y-6197984D01*
X18266610Y-6197984D02*
X18285658Y-6207508D01*
X18285658Y-6207508D02*
X18295182Y-6217031D01*
X18295182Y-6217031D02*
X18304705Y-6236079D01*
X18304705Y-6236079D02*
X18314229Y-6274174D01*
X18314229Y-6274174D02*
X18314229Y-6321793D01*
X18314229Y-6321793D02*
X18304705Y-6359888D01*
X18304705Y-6359888D02*
X18295182Y-6378936D01*
X18295182Y-6378936D02*
X18285658Y-6388460D01*
X18285658Y-6388460D02*
X18266610Y-6397984D01*
X18266610Y-6397984D02*
X18247563Y-6397984D01*
X18247563Y-6397984D02*
X18228515Y-6388460D01*
X18228515Y-6388460D02*
X18218991Y-6378936D01*
X18218991Y-6378936D02*
X18209467Y-6359888D01*
X18209467Y-6359888D02*
X18199944Y-6321793D01*
X18199944Y-6321793D02*
X18199944Y-6274174D01*
X18199944Y-6274174D02*
X18209467Y-6236079D01*
X18209467Y-6236079D02*
X18218991Y-6217031D01*
X18218991Y-6217031D02*
X18228515Y-6207508D01*
X18228515Y-6207508D02*
X18247563Y-6197984D01*
X18438039Y-6197984D02*
X18457086Y-6197984D01*
X18457086Y-6197984D02*
X18476134Y-6207508D01*
X18476134Y-6207508D02*
X18485658Y-6217031D01*
X18485658Y-6217031D02*
X18495182Y-6236079D01*
X18495182Y-6236079D02*
X18504705Y-6274174D01*
X18504705Y-6274174D02*
X18504705Y-6321793D01*
X18504705Y-6321793D02*
X18495182Y-6359888D01*
X18495182Y-6359888D02*
X18485658Y-6378936D01*
X18485658Y-6378936D02*
X18476134Y-6388460D01*
X18476134Y-6388460D02*
X18457086Y-6397984D01*
X18457086Y-6397984D02*
X18438039Y-6397984D01*
X18438039Y-6397984D02*
X18418991Y-6388460D01*
X18418991Y-6388460D02*
X18409467Y-6378936D01*
X18409467Y-6378936D02*
X18399944Y-6359888D01*
X18399944Y-6359888D02*
X18390420Y-6321793D01*
X18390420Y-6321793D02*
X18390420Y-6274174D01*
X18390420Y-6274174D02*
X18399944Y-6236079D01*
X18399944Y-6236079D02*
X18409467Y-6217031D01*
X18409467Y-6217031D02*
X18418991Y-6207508D01*
X18418991Y-6207508D02*
X18438039Y-6197984D01*
X18590420Y-6397984D02*
X18590420Y-6264650D01*
X18590420Y-6283698D02*
X18599944Y-6274174D01*
X18599944Y-6274174D02*
X18618991Y-6264650D01*
X18618991Y-6264650D02*
X18647563Y-6264650D01*
X18647563Y-6264650D02*
X18666610Y-6274174D01*
X18666610Y-6274174D02*
X18676134Y-6293222D01*
X18676134Y-6293222D02*
X18676134Y-6397984D01*
X18676134Y-6293222D02*
X18685658Y-6274174D01*
X18685658Y-6274174D02*
X18704705Y-6264650D01*
X18704705Y-6264650D02*
X18733277Y-6264650D01*
X18733277Y-6264650D02*
X18752325Y-6274174D01*
X18752325Y-6274174D02*
X18761848Y-6293222D01*
X18761848Y-6293222D02*
X18761848Y-6397984D01*
X18857086Y-6397984D02*
X18857086Y-6264650D01*
X18857086Y-6283698D02*
X18866610Y-6274174D01*
X18866610Y-6274174D02*
X18885658Y-6264650D01*
X18885658Y-6264650D02*
X18914229Y-6264650D01*
X18914229Y-6264650D02*
X18933277Y-6274174D01*
X18933277Y-6274174D02*
X18942801Y-6293222D01*
X18942801Y-6293222D02*
X18942801Y-6397984D01*
X18942801Y-6293222D02*
X18952325Y-6274174D01*
X18952325Y-6274174D02*
X18971372Y-6264650D01*
X18971372Y-6264650D02*
X18999944Y-6264650D01*
X18999944Y-6264650D02*
X19018991Y-6274174D01*
X19018991Y-6274174D02*
X19028515Y-6293222D01*
X19028515Y-6293222D02*
X19028515Y-6397984D01*
X19418991Y-6188460D02*
X19247563Y-6445603D01*
X19676134Y-6197984D02*
X19695182Y-6197984D01*
X19695182Y-6197984D02*
X19714229Y-6207508D01*
X19714229Y-6207508D02*
X19723753Y-6217031D01*
X19723753Y-6217031D02*
X19733277Y-6236079D01*
X19733277Y-6236079D02*
X19742801Y-6274174D01*
X19742801Y-6274174D02*
X19742801Y-6321793D01*
X19742801Y-6321793D02*
X19733277Y-6359888D01*
X19733277Y-6359888D02*
X19723753Y-6378936D01*
X19723753Y-6378936D02*
X19714229Y-6388460D01*
X19714229Y-6388460D02*
X19695182Y-6397984D01*
X19695182Y-6397984D02*
X19676134Y-6397984D01*
X19676134Y-6397984D02*
X19657087Y-6388460D01*
X19657087Y-6388460D02*
X19647563Y-6378936D01*
X19647563Y-6378936D02*
X19638039Y-6359888D01*
X19638039Y-6359888D02*
X19628515Y-6321793D01*
X19628515Y-6321793D02*
X19628515Y-6274174D01*
X19628515Y-6274174D02*
X19638039Y-6236079D01*
X19638039Y-6236079D02*
X19647563Y-6217031D01*
X19647563Y-6217031D02*
X19657087Y-6207508D01*
X19657087Y-6207508D02*
X19676134Y-6197984D01*
X19828515Y-6378936D02*
X19838039Y-6388460D01*
X19838039Y-6388460D02*
X19828515Y-6397984D01*
X19828515Y-6397984D02*
X19818991Y-6388460D01*
X19818991Y-6388460D02*
X19828515Y-6378936D01*
X19828515Y-6378936D02*
X19828515Y-6397984D01*
X19961848Y-6197984D02*
X19980896Y-6197984D01*
X19980896Y-6197984D02*
X19999944Y-6207508D01*
X19999944Y-6207508D02*
X20009468Y-6217031D01*
X20009468Y-6217031D02*
X20018991Y-6236079D01*
X20018991Y-6236079D02*
X20028515Y-6274174D01*
X20028515Y-6274174D02*
X20028515Y-6321793D01*
X20028515Y-6321793D02*
X20018991Y-6359888D01*
X20018991Y-6359888D02*
X20009468Y-6378936D01*
X20009468Y-6378936D02*
X19999944Y-6388460D01*
X19999944Y-6388460D02*
X19980896Y-6397984D01*
X19980896Y-6397984D02*
X19961848Y-6397984D01*
X19961848Y-6397984D02*
X19942801Y-6388460D01*
X19942801Y-6388460D02*
X19933277Y-6378936D01*
X19933277Y-6378936D02*
X19923753Y-6359888D01*
X19923753Y-6359888D02*
X19914229Y-6321793D01*
X19914229Y-6321793D02*
X19914229Y-6274174D01*
X19914229Y-6274174D02*
X19923753Y-6236079D01*
X19923753Y-6236079D02*
X19933277Y-6217031D01*
X19933277Y-6217031D02*
X19942801Y-6207508D01*
X19942801Y-6207508D02*
X19961848Y-6197984D01*
X20218991Y-6397984D02*
X20104706Y-6397984D01*
X20161848Y-6397984D02*
X20161848Y-6197984D01*
X20161848Y-6197984D02*
X20142801Y-6226555D01*
X20142801Y-6226555D02*
X20123753Y-6245603D01*
X20123753Y-6245603D02*
X20104706Y-6255127D01*
X20399944Y-6197984D02*
X20304706Y-6197984D01*
X20304706Y-6197984D02*
X20295182Y-6293222D01*
X20295182Y-6293222D02*
X20304706Y-6283698D01*
X20304706Y-6283698D02*
X20323753Y-6274174D01*
X20323753Y-6274174D02*
X20371372Y-6274174D01*
X20371372Y-6274174D02*
X20390420Y-6283698D01*
X20390420Y-6283698D02*
X20399944Y-6293222D01*
X20399944Y-6293222D02*
X20409468Y-6312269D01*
X20409468Y-6312269D02*
X20409468Y-6359888D01*
X20409468Y-6359888D02*
X20399944Y-6378936D01*
X20399944Y-6378936D02*
X20390420Y-6388460D01*
X20390420Y-6388460D02*
X20371372Y-6397984D01*
X20371372Y-6397984D02*
X20323753Y-6397984D01*
X20323753Y-6397984D02*
X20304706Y-6388460D01*
X20304706Y-6388460D02*
X20295182Y-6378936D01*
X20476134Y-6197984D02*
X20609468Y-6197984D01*
X20609468Y-6197984D02*
X20523753Y-6397984D01*
X20676134Y-6197984D02*
X20676134Y-6236079D01*
X20752325Y-6197984D02*
X20752325Y-6236079D01*
X21047563Y-6474174D02*
X21038039Y-6464650D01*
X21038039Y-6464650D02*
X21018991Y-6436079D01*
X21018991Y-6436079D02*
X21009468Y-6417031D01*
X21009468Y-6417031D02*
X20999944Y-6388460D01*
X20999944Y-6388460D02*
X20990420Y-6340841D01*
X20990420Y-6340841D02*
X20990420Y-6302746D01*
X20990420Y-6302746D02*
X20999944Y-6255127D01*
X20999944Y-6255127D02*
X21009468Y-6226555D01*
X21009468Y-6226555D02*
X21018991Y-6207508D01*
X21018991Y-6207508D02*
X21038039Y-6178936D01*
X21038039Y-6178936D02*
X21047563Y-6169412D01*
X21114230Y-6217031D02*
X21123753Y-6207508D01*
X21123753Y-6207508D02*
X21142801Y-6197984D01*
X21142801Y-6197984D02*
X21190420Y-6197984D01*
X21190420Y-6197984D02*
X21209468Y-6207508D01*
X21209468Y-6207508D02*
X21218991Y-6217031D01*
X21218991Y-6217031D02*
X21228515Y-6236079D01*
X21228515Y-6236079D02*
X21228515Y-6255127D01*
X21228515Y-6255127D02*
X21218991Y-6283698D01*
X21218991Y-6283698D02*
X21104706Y-6397984D01*
X21104706Y-6397984D02*
X21228515Y-6397984D01*
X21399944Y-6264650D02*
X21399944Y-6397984D01*
X21352325Y-6188460D02*
X21304706Y-6331317D01*
X21304706Y-6331317D02*
X21428515Y-6331317D01*
X21657087Y-6397984D02*
X21657087Y-6197984D01*
X21742801Y-6397984D02*
X21742801Y-6293222D01*
X21742801Y-6293222D02*
X21733277Y-6274174D01*
X21733277Y-6274174D02*
X21714230Y-6264650D01*
X21714230Y-6264650D02*
X21685658Y-6264650D01*
X21685658Y-6264650D02*
X21666611Y-6274174D01*
X21666611Y-6274174D02*
X21657087Y-6283698D01*
X21866611Y-6397984D02*
X21847563Y-6388460D01*
X21847563Y-6388460D02*
X21838039Y-6378936D01*
X21838039Y-6378936D02*
X21828515Y-6359888D01*
X21828515Y-6359888D02*
X21828515Y-6302746D01*
X21828515Y-6302746D02*
X21838039Y-6283698D01*
X21838039Y-6283698D02*
X21847563Y-6274174D01*
X21847563Y-6274174D02*
X21866611Y-6264650D01*
X21866611Y-6264650D02*
X21895182Y-6264650D01*
X21895182Y-6264650D02*
X21914230Y-6274174D01*
X21914230Y-6274174D02*
X21923753Y-6283698D01*
X21923753Y-6283698D02*
X21933277Y-6302746D01*
X21933277Y-6302746D02*
X21933277Y-6359888D01*
X21933277Y-6359888D02*
X21923753Y-6378936D01*
X21923753Y-6378936D02*
X21914230Y-6388460D01*
X21914230Y-6388460D02*
X21895182Y-6397984D01*
X21895182Y-6397984D02*
X21866611Y-6397984D01*
X22047563Y-6397984D02*
X22028515Y-6388460D01*
X22028515Y-6388460D02*
X22018992Y-6369412D01*
X22018992Y-6369412D02*
X22018992Y-6197984D01*
X22199944Y-6388460D02*
X22180896Y-6397984D01*
X22180896Y-6397984D02*
X22142801Y-6397984D01*
X22142801Y-6397984D02*
X22123753Y-6388460D01*
X22123753Y-6388460D02*
X22114230Y-6369412D01*
X22114230Y-6369412D02*
X22114230Y-6293222D01*
X22114230Y-6293222D02*
X22123753Y-6274174D01*
X22123753Y-6274174D02*
X22142801Y-6264650D01*
X22142801Y-6264650D02*
X22180896Y-6264650D01*
X22180896Y-6264650D02*
X22199944Y-6274174D01*
X22199944Y-6274174D02*
X22209468Y-6293222D01*
X22209468Y-6293222D02*
X22209468Y-6312269D01*
X22209468Y-6312269D02*
X22114230Y-6331317D01*
X22285658Y-6388460D02*
X22304706Y-6397984D01*
X22304706Y-6397984D02*
X22342801Y-6397984D01*
X22342801Y-6397984D02*
X22361849Y-6388460D01*
X22361849Y-6388460D02*
X22371372Y-6369412D01*
X22371372Y-6369412D02*
X22371372Y-6359888D01*
X22371372Y-6359888D02*
X22361849Y-6340841D01*
X22361849Y-6340841D02*
X22342801Y-6331317D01*
X22342801Y-6331317D02*
X22314230Y-6331317D01*
X22314230Y-6331317D02*
X22295182Y-6321793D01*
X22295182Y-6321793D02*
X22285658Y-6302746D01*
X22285658Y-6302746D02*
X22285658Y-6293222D01*
X22285658Y-6293222D02*
X22295182Y-6274174D01*
X22295182Y-6274174D02*
X22314230Y-6264650D01*
X22314230Y-6264650D02*
X22342801Y-6264650D01*
X22342801Y-6264650D02*
X22361849Y-6274174D01*
X22438039Y-6474174D02*
X22447563Y-6464650D01*
X22447563Y-6464650D02*
X22466611Y-6436079D01*
X22466611Y-6436079D02*
X22476134Y-6417031D01*
X22476134Y-6417031D02*
X22485658Y-6388460D01*
X22485658Y-6388460D02*
X22495182Y-6340841D01*
X22495182Y-6340841D02*
X22495182Y-6302746D01*
X22495182Y-6302746D02*
X22485658Y-6255127D01*
X22485658Y-6255127D02*
X22476134Y-6226555D01*
X22476134Y-6226555D02*
X22466611Y-6207508D01*
X22466611Y-6207508D02*
X22447563Y-6178936D01*
X22447563Y-6178936D02*
X22438039Y-6169412D01*
D12*
X17442500Y-6540500D02*
X17442500Y-6600500D01*
X17412500Y-6570500D02*
X17472500Y-6570500D01*
D11*
X17771372Y-6461984D02*
X17790420Y-6461984D01*
X17790420Y-6461984D02*
X17809467Y-6471508D01*
X17809467Y-6471508D02*
X17818991Y-6481031D01*
X17818991Y-6481031D02*
X17828515Y-6500079D01*
X17828515Y-6500079D02*
X17838039Y-6538174D01*
X17838039Y-6538174D02*
X17838039Y-6585793D01*
X17838039Y-6585793D02*
X17828515Y-6623888D01*
X17828515Y-6623888D02*
X17818991Y-6642936D01*
X17818991Y-6642936D02*
X17809467Y-6652460D01*
X17809467Y-6652460D02*
X17790420Y-6661984D01*
X17790420Y-6661984D02*
X17771372Y-6661984D01*
X17771372Y-6661984D02*
X17752324Y-6652460D01*
X17752324Y-6652460D02*
X17742801Y-6642936D01*
X17742801Y-6642936D02*
X17733277Y-6623888D01*
X17733277Y-6623888D02*
X17723753Y-6585793D01*
X17723753Y-6585793D02*
X17723753Y-6538174D01*
X17723753Y-6538174D02*
X17733277Y-6500079D01*
X17733277Y-6500079D02*
X17742801Y-6481031D01*
X17742801Y-6481031D02*
X17752324Y-6471508D01*
X17752324Y-6471508D02*
X17771372Y-6461984D01*
X17923753Y-6642936D02*
X17933277Y-6652460D01*
X17933277Y-6652460D02*
X17923753Y-6661984D01*
X17923753Y-6661984D02*
X17914229Y-6652460D01*
X17914229Y-6652460D02*
X17923753Y-6642936D01*
X17923753Y-6642936D02*
X17923753Y-6661984D01*
X18104705Y-6461984D02*
X18066610Y-6461984D01*
X18066610Y-6461984D02*
X18047563Y-6471508D01*
X18047563Y-6471508D02*
X18038039Y-6481031D01*
X18038039Y-6481031D02*
X18018991Y-6509603D01*
X18018991Y-6509603D02*
X18009467Y-6547698D01*
X18009467Y-6547698D02*
X18009467Y-6623888D01*
X18009467Y-6623888D02*
X18018991Y-6642936D01*
X18018991Y-6642936D02*
X18028515Y-6652460D01*
X18028515Y-6652460D02*
X18047563Y-6661984D01*
X18047563Y-6661984D02*
X18085658Y-6661984D01*
X18085658Y-6661984D02*
X18104705Y-6652460D01*
X18104705Y-6652460D02*
X18114229Y-6642936D01*
X18114229Y-6642936D02*
X18123753Y-6623888D01*
X18123753Y-6623888D02*
X18123753Y-6576269D01*
X18123753Y-6576269D02*
X18114229Y-6557222D01*
X18114229Y-6557222D02*
X18104705Y-6547698D01*
X18104705Y-6547698D02*
X18085658Y-6538174D01*
X18085658Y-6538174D02*
X18047563Y-6538174D01*
X18047563Y-6538174D02*
X18028515Y-6547698D01*
X18028515Y-6547698D02*
X18018991Y-6557222D01*
X18018991Y-6557222D02*
X18009467Y-6576269D01*
X18247563Y-6461984D02*
X18266610Y-6461984D01*
X18266610Y-6461984D02*
X18285658Y-6471508D01*
X18285658Y-6471508D02*
X18295182Y-6481031D01*
X18295182Y-6481031D02*
X18304705Y-6500079D01*
X18304705Y-6500079D02*
X18314229Y-6538174D01*
X18314229Y-6538174D02*
X18314229Y-6585793D01*
X18314229Y-6585793D02*
X18304705Y-6623888D01*
X18304705Y-6623888D02*
X18295182Y-6642936D01*
X18295182Y-6642936D02*
X18285658Y-6652460D01*
X18285658Y-6652460D02*
X18266610Y-6661984D01*
X18266610Y-6661984D02*
X18247563Y-6661984D01*
X18247563Y-6661984D02*
X18228515Y-6652460D01*
X18228515Y-6652460D02*
X18218991Y-6642936D01*
X18218991Y-6642936D02*
X18209467Y-6623888D01*
X18209467Y-6623888D02*
X18199944Y-6585793D01*
X18199944Y-6585793D02*
X18199944Y-6538174D01*
X18199944Y-6538174D02*
X18209467Y-6500079D01*
X18209467Y-6500079D02*
X18218991Y-6481031D01*
X18218991Y-6481031D02*
X18228515Y-6471508D01*
X18228515Y-6471508D02*
X18247563Y-6461984D01*
X18438039Y-6461984D02*
X18457086Y-6461984D01*
X18457086Y-6461984D02*
X18476134Y-6471508D01*
X18476134Y-6471508D02*
X18485658Y-6481031D01*
X18485658Y-6481031D02*
X18495182Y-6500079D01*
X18495182Y-6500079D02*
X18504705Y-6538174D01*
X18504705Y-6538174D02*
X18504705Y-6585793D01*
X18504705Y-6585793D02*
X18495182Y-6623888D01*
X18495182Y-6623888D02*
X18485658Y-6642936D01*
X18485658Y-6642936D02*
X18476134Y-6652460D01*
X18476134Y-6652460D02*
X18457086Y-6661984D01*
X18457086Y-6661984D02*
X18438039Y-6661984D01*
X18438039Y-6661984D02*
X18418991Y-6652460D01*
X18418991Y-6652460D02*
X18409467Y-6642936D01*
X18409467Y-6642936D02*
X18399944Y-6623888D01*
X18399944Y-6623888D02*
X18390420Y-6585793D01*
X18390420Y-6585793D02*
X18390420Y-6538174D01*
X18390420Y-6538174D02*
X18399944Y-6500079D01*
X18399944Y-6500079D02*
X18409467Y-6481031D01*
X18409467Y-6481031D02*
X18418991Y-6471508D01*
X18418991Y-6471508D02*
X18438039Y-6461984D01*
X18590420Y-6661984D02*
X18590420Y-6528650D01*
X18590420Y-6547698D02*
X18599944Y-6538174D01*
X18599944Y-6538174D02*
X18618991Y-6528650D01*
X18618991Y-6528650D02*
X18647563Y-6528650D01*
X18647563Y-6528650D02*
X18666610Y-6538174D01*
X18666610Y-6538174D02*
X18676134Y-6557222D01*
X18676134Y-6557222D02*
X18676134Y-6661984D01*
X18676134Y-6557222D02*
X18685658Y-6538174D01*
X18685658Y-6538174D02*
X18704705Y-6528650D01*
X18704705Y-6528650D02*
X18733277Y-6528650D01*
X18733277Y-6528650D02*
X18752325Y-6538174D01*
X18752325Y-6538174D02*
X18761848Y-6557222D01*
X18761848Y-6557222D02*
X18761848Y-6661984D01*
X18857086Y-6661984D02*
X18857086Y-6528650D01*
X18857086Y-6547698D02*
X18866610Y-6538174D01*
X18866610Y-6538174D02*
X18885658Y-6528650D01*
X18885658Y-6528650D02*
X18914229Y-6528650D01*
X18914229Y-6528650D02*
X18933277Y-6538174D01*
X18933277Y-6538174D02*
X18942801Y-6557222D01*
X18942801Y-6557222D02*
X18942801Y-6661984D01*
X18942801Y-6557222D02*
X18952325Y-6538174D01*
X18952325Y-6538174D02*
X18971372Y-6528650D01*
X18971372Y-6528650D02*
X18999944Y-6528650D01*
X18999944Y-6528650D02*
X19018991Y-6538174D01*
X19018991Y-6538174D02*
X19028515Y-6557222D01*
X19028515Y-6557222D02*
X19028515Y-6661984D01*
X19418991Y-6452460D02*
X19247563Y-6709603D01*
X19676134Y-6461984D02*
X19695182Y-6461984D01*
X19695182Y-6461984D02*
X19714229Y-6471508D01*
X19714229Y-6471508D02*
X19723753Y-6481031D01*
X19723753Y-6481031D02*
X19733277Y-6500079D01*
X19733277Y-6500079D02*
X19742801Y-6538174D01*
X19742801Y-6538174D02*
X19742801Y-6585793D01*
X19742801Y-6585793D02*
X19733277Y-6623888D01*
X19733277Y-6623888D02*
X19723753Y-6642936D01*
X19723753Y-6642936D02*
X19714229Y-6652460D01*
X19714229Y-6652460D02*
X19695182Y-6661984D01*
X19695182Y-6661984D02*
X19676134Y-6661984D01*
X19676134Y-6661984D02*
X19657087Y-6652460D01*
X19657087Y-6652460D02*
X19647563Y-6642936D01*
X19647563Y-6642936D02*
X19638039Y-6623888D01*
X19638039Y-6623888D02*
X19628515Y-6585793D01*
X19628515Y-6585793D02*
X19628515Y-6538174D01*
X19628515Y-6538174D02*
X19638039Y-6500079D01*
X19638039Y-6500079D02*
X19647563Y-6481031D01*
X19647563Y-6481031D02*
X19657087Y-6471508D01*
X19657087Y-6471508D02*
X19676134Y-6461984D01*
X19828515Y-6642936D02*
X19838039Y-6652460D01*
X19838039Y-6652460D02*
X19828515Y-6661984D01*
X19828515Y-6661984D02*
X19818991Y-6652460D01*
X19818991Y-6652460D02*
X19828515Y-6642936D01*
X19828515Y-6642936D02*
X19828515Y-6661984D01*
X19961848Y-6461984D02*
X19980896Y-6461984D01*
X19980896Y-6461984D02*
X19999944Y-6471508D01*
X19999944Y-6471508D02*
X20009468Y-6481031D01*
X20009468Y-6481031D02*
X20018991Y-6500079D01*
X20018991Y-6500079D02*
X20028515Y-6538174D01*
X20028515Y-6538174D02*
X20028515Y-6585793D01*
X20028515Y-6585793D02*
X20018991Y-6623888D01*
X20018991Y-6623888D02*
X20009468Y-6642936D01*
X20009468Y-6642936D02*
X19999944Y-6652460D01*
X19999944Y-6652460D02*
X19980896Y-6661984D01*
X19980896Y-6661984D02*
X19961848Y-6661984D01*
X19961848Y-6661984D02*
X19942801Y-6652460D01*
X19942801Y-6652460D02*
X19933277Y-6642936D01*
X19933277Y-6642936D02*
X19923753Y-6623888D01*
X19923753Y-6623888D02*
X19914229Y-6585793D01*
X19914229Y-6585793D02*
X19914229Y-6538174D01*
X19914229Y-6538174D02*
X19923753Y-6500079D01*
X19923753Y-6500079D02*
X19933277Y-6481031D01*
X19933277Y-6481031D02*
X19942801Y-6471508D01*
X19942801Y-6471508D02*
X19961848Y-6461984D01*
X20104706Y-6481031D02*
X20114229Y-6471508D01*
X20114229Y-6471508D02*
X20133277Y-6461984D01*
X20133277Y-6461984D02*
X20180896Y-6461984D01*
X20180896Y-6461984D02*
X20199944Y-6471508D01*
X20199944Y-6471508D02*
X20209468Y-6481031D01*
X20209468Y-6481031D02*
X20218991Y-6500079D01*
X20218991Y-6500079D02*
X20218991Y-6519127D01*
X20218991Y-6519127D02*
X20209468Y-6547698D01*
X20209468Y-6547698D02*
X20095182Y-6661984D01*
X20095182Y-6661984D02*
X20218991Y-6661984D01*
X20285658Y-6461984D02*
X20409468Y-6461984D01*
X20409468Y-6461984D02*
X20342801Y-6538174D01*
X20342801Y-6538174D02*
X20371372Y-6538174D01*
X20371372Y-6538174D02*
X20390420Y-6547698D01*
X20390420Y-6547698D02*
X20399944Y-6557222D01*
X20399944Y-6557222D02*
X20409468Y-6576269D01*
X20409468Y-6576269D02*
X20409468Y-6623888D01*
X20409468Y-6623888D02*
X20399944Y-6642936D01*
X20399944Y-6642936D02*
X20390420Y-6652460D01*
X20390420Y-6652460D02*
X20371372Y-6661984D01*
X20371372Y-6661984D02*
X20314229Y-6661984D01*
X20314229Y-6661984D02*
X20295182Y-6652460D01*
X20295182Y-6652460D02*
X20285658Y-6642936D01*
X20580896Y-6461984D02*
X20542801Y-6461984D01*
X20542801Y-6461984D02*
X20523753Y-6471508D01*
X20523753Y-6471508D02*
X20514229Y-6481031D01*
X20514229Y-6481031D02*
X20495182Y-6509603D01*
X20495182Y-6509603D02*
X20485658Y-6547698D01*
X20485658Y-6547698D02*
X20485658Y-6623888D01*
X20485658Y-6623888D02*
X20495182Y-6642936D01*
X20495182Y-6642936D02*
X20504706Y-6652460D01*
X20504706Y-6652460D02*
X20523753Y-6661984D01*
X20523753Y-6661984D02*
X20561849Y-6661984D01*
X20561849Y-6661984D02*
X20580896Y-6652460D01*
X20580896Y-6652460D02*
X20590420Y-6642936D01*
X20590420Y-6642936D02*
X20599944Y-6623888D01*
X20599944Y-6623888D02*
X20599944Y-6576269D01*
X20599944Y-6576269D02*
X20590420Y-6557222D01*
X20590420Y-6557222D02*
X20580896Y-6547698D01*
X20580896Y-6547698D02*
X20561849Y-6538174D01*
X20561849Y-6538174D02*
X20523753Y-6538174D01*
X20523753Y-6538174D02*
X20504706Y-6547698D01*
X20504706Y-6547698D02*
X20495182Y-6557222D01*
X20495182Y-6557222D02*
X20485658Y-6576269D01*
X20676134Y-6461984D02*
X20676134Y-6500079D01*
X20752325Y-6461984D02*
X20752325Y-6500079D01*
X21047563Y-6738174D02*
X21038039Y-6728650D01*
X21038039Y-6728650D02*
X21018991Y-6700079D01*
X21018991Y-6700079D02*
X21009468Y-6681031D01*
X21009468Y-6681031D02*
X20999944Y-6652460D01*
X20999944Y-6652460D02*
X20990420Y-6604841D01*
X20990420Y-6604841D02*
X20990420Y-6566746D01*
X20990420Y-6566746D02*
X20999944Y-6519127D01*
X20999944Y-6519127D02*
X21009468Y-6490555D01*
X21009468Y-6490555D02*
X21018991Y-6471508D01*
X21018991Y-6471508D02*
X21038039Y-6442936D01*
X21038039Y-6442936D02*
X21047563Y-6433412D01*
X21152325Y-6547698D02*
X21133277Y-6538174D01*
X21133277Y-6538174D02*
X21123753Y-6528650D01*
X21123753Y-6528650D02*
X21114230Y-6509603D01*
X21114230Y-6509603D02*
X21114230Y-6500079D01*
X21114230Y-6500079D02*
X21123753Y-6481031D01*
X21123753Y-6481031D02*
X21133277Y-6471508D01*
X21133277Y-6471508D02*
X21152325Y-6461984D01*
X21152325Y-6461984D02*
X21190420Y-6461984D01*
X21190420Y-6461984D02*
X21209468Y-6471508D01*
X21209468Y-6471508D02*
X21218991Y-6481031D01*
X21218991Y-6481031D02*
X21228515Y-6500079D01*
X21228515Y-6500079D02*
X21228515Y-6509603D01*
X21228515Y-6509603D02*
X21218991Y-6528650D01*
X21218991Y-6528650D02*
X21209468Y-6538174D01*
X21209468Y-6538174D02*
X21190420Y-6547698D01*
X21190420Y-6547698D02*
X21152325Y-6547698D01*
X21152325Y-6547698D02*
X21133277Y-6557222D01*
X21133277Y-6557222D02*
X21123753Y-6566746D01*
X21123753Y-6566746D02*
X21114230Y-6585793D01*
X21114230Y-6585793D02*
X21114230Y-6623888D01*
X21114230Y-6623888D02*
X21123753Y-6642936D01*
X21123753Y-6642936D02*
X21133277Y-6652460D01*
X21133277Y-6652460D02*
X21152325Y-6661984D01*
X21152325Y-6661984D02*
X21190420Y-6661984D01*
X21190420Y-6661984D02*
X21209468Y-6652460D01*
X21209468Y-6652460D02*
X21218991Y-6642936D01*
X21218991Y-6642936D02*
X21228515Y-6623888D01*
X21228515Y-6623888D02*
X21228515Y-6585793D01*
X21228515Y-6585793D02*
X21218991Y-6566746D01*
X21218991Y-6566746D02*
X21209468Y-6557222D01*
X21209468Y-6557222D02*
X21190420Y-6547698D01*
X21466611Y-6661984D02*
X21466611Y-6461984D01*
X21552325Y-6661984D02*
X21552325Y-6557222D01*
X21552325Y-6557222D02*
X21542801Y-6538174D01*
X21542801Y-6538174D02*
X21523753Y-6528650D01*
X21523753Y-6528650D02*
X21495182Y-6528650D01*
X21495182Y-6528650D02*
X21476134Y-6538174D01*
X21476134Y-6538174D02*
X21466611Y-6547698D01*
X21676134Y-6661984D02*
X21657087Y-6652460D01*
X21657087Y-6652460D02*
X21647563Y-6642936D01*
X21647563Y-6642936D02*
X21638039Y-6623888D01*
X21638039Y-6623888D02*
X21638039Y-6566746D01*
X21638039Y-6566746D02*
X21647563Y-6547698D01*
X21647563Y-6547698D02*
X21657087Y-6538174D01*
X21657087Y-6538174D02*
X21676134Y-6528650D01*
X21676134Y-6528650D02*
X21704706Y-6528650D01*
X21704706Y-6528650D02*
X21723753Y-6538174D01*
X21723753Y-6538174D02*
X21733277Y-6547698D01*
X21733277Y-6547698D02*
X21742801Y-6566746D01*
X21742801Y-6566746D02*
X21742801Y-6623888D01*
X21742801Y-6623888D02*
X21733277Y-6642936D01*
X21733277Y-6642936D02*
X21723753Y-6652460D01*
X21723753Y-6652460D02*
X21704706Y-6661984D01*
X21704706Y-6661984D02*
X21676134Y-6661984D01*
X21857087Y-6661984D02*
X21838039Y-6652460D01*
X21838039Y-6652460D02*
X21828515Y-6633412D01*
X21828515Y-6633412D02*
X21828515Y-6461984D01*
X22009468Y-6652460D02*
X21990420Y-6661984D01*
X21990420Y-6661984D02*
X21952325Y-6661984D01*
X21952325Y-6661984D02*
X21933277Y-6652460D01*
X21933277Y-6652460D02*
X21923753Y-6633412D01*
X21923753Y-6633412D02*
X21923753Y-6557222D01*
X21923753Y-6557222D02*
X21933277Y-6538174D01*
X21933277Y-6538174D02*
X21952325Y-6528650D01*
X21952325Y-6528650D02*
X21990420Y-6528650D01*
X21990420Y-6528650D02*
X22009468Y-6538174D01*
X22009468Y-6538174D02*
X22018992Y-6557222D01*
X22018992Y-6557222D02*
X22018992Y-6576269D01*
X22018992Y-6576269D02*
X21923753Y-6595317D01*
X22095182Y-6652460D02*
X22114230Y-6661984D01*
X22114230Y-6661984D02*
X22152325Y-6661984D01*
X22152325Y-6661984D02*
X22171373Y-6652460D01*
X22171373Y-6652460D02*
X22180896Y-6633412D01*
X22180896Y-6633412D02*
X22180896Y-6623888D01*
X22180896Y-6623888D02*
X22171373Y-6604841D01*
X22171373Y-6604841D02*
X22152325Y-6595317D01*
X22152325Y-6595317D02*
X22123753Y-6595317D01*
X22123753Y-6595317D02*
X22104706Y-6585793D01*
X22104706Y-6585793D02*
X22095182Y-6566746D01*
X22095182Y-6566746D02*
X22095182Y-6557222D01*
X22095182Y-6557222D02*
X22104706Y-6538174D01*
X22104706Y-6538174D02*
X22123753Y-6528650D01*
X22123753Y-6528650D02*
X22152325Y-6528650D01*
X22152325Y-6528650D02*
X22171373Y-6538174D01*
X22247563Y-6738174D02*
X22257087Y-6728650D01*
X22257087Y-6728650D02*
X22276134Y-6700079D01*
X22276134Y-6700079D02*
X22285658Y-6681031D01*
X22285658Y-6681031D02*
X22295182Y-6652460D01*
X22295182Y-6652460D02*
X22304706Y-6604841D01*
X22304706Y-6604841D02*
X22304706Y-6566746D01*
X22304706Y-6566746D02*
X22295182Y-6519127D01*
X22295182Y-6519127D02*
X22285658Y-6490555D01*
X22285658Y-6490555D02*
X22276134Y-6471508D01*
X22276134Y-6471508D02*
X22257087Y-6442936D01*
X22257087Y-6442936D02*
X22247563Y-6433412D01*
D13*
X17457563Y-6870563D02*
X17457563Y-6798437D01*
X17385437Y-6798437D01*
X17385437Y-6870563D01*
X17457563Y-6870563D01*
D11*
X17838039Y-6925984D02*
X17723753Y-6925984D01*
X17780896Y-6925984D02*
X17780896Y-6725984D01*
X17780896Y-6725984D02*
X17761848Y-6754555D01*
X17761848Y-6754555D02*
X17742801Y-6773603D01*
X17742801Y-6773603D02*
X17723753Y-6783127D01*
X17923753Y-6906936D02*
X17933277Y-6916460D01*
X17933277Y-6916460D02*
X17923753Y-6925984D01*
X17923753Y-6925984D02*
X17914229Y-6916460D01*
X17914229Y-6916460D02*
X17923753Y-6906936D01*
X17923753Y-6906936D02*
X17923753Y-6925984D01*
X18057086Y-6725984D02*
X18076134Y-6725984D01*
X18076134Y-6725984D02*
X18095182Y-6735508D01*
X18095182Y-6735508D02*
X18104705Y-6745031D01*
X18104705Y-6745031D02*
X18114229Y-6764079D01*
X18114229Y-6764079D02*
X18123753Y-6802174D01*
X18123753Y-6802174D02*
X18123753Y-6849793D01*
X18123753Y-6849793D02*
X18114229Y-6887888D01*
X18114229Y-6887888D02*
X18104705Y-6906936D01*
X18104705Y-6906936D02*
X18095182Y-6916460D01*
X18095182Y-6916460D02*
X18076134Y-6925984D01*
X18076134Y-6925984D02*
X18057086Y-6925984D01*
X18057086Y-6925984D02*
X18038039Y-6916460D01*
X18038039Y-6916460D02*
X18028515Y-6906936D01*
X18028515Y-6906936D02*
X18018991Y-6887888D01*
X18018991Y-6887888D02*
X18009467Y-6849793D01*
X18009467Y-6849793D02*
X18009467Y-6802174D01*
X18009467Y-6802174D02*
X18018991Y-6764079D01*
X18018991Y-6764079D02*
X18028515Y-6745031D01*
X18028515Y-6745031D02*
X18038039Y-6735508D01*
X18038039Y-6735508D02*
X18057086Y-6725984D01*
X18199944Y-6745031D02*
X18209467Y-6735508D01*
X18209467Y-6735508D02*
X18228515Y-6725984D01*
X18228515Y-6725984D02*
X18276134Y-6725984D01*
X18276134Y-6725984D02*
X18295182Y-6735508D01*
X18295182Y-6735508D02*
X18304705Y-6745031D01*
X18304705Y-6745031D02*
X18314229Y-6764079D01*
X18314229Y-6764079D02*
X18314229Y-6783127D01*
X18314229Y-6783127D02*
X18304705Y-6811698D01*
X18304705Y-6811698D02*
X18190420Y-6925984D01*
X18190420Y-6925984D02*
X18314229Y-6925984D01*
X18438039Y-6725984D02*
X18457086Y-6725984D01*
X18457086Y-6725984D02*
X18476134Y-6735508D01*
X18476134Y-6735508D02*
X18485658Y-6745031D01*
X18485658Y-6745031D02*
X18495182Y-6764079D01*
X18495182Y-6764079D02*
X18504705Y-6802174D01*
X18504705Y-6802174D02*
X18504705Y-6849793D01*
X18504705Y-6849793D02*
X18495182Y-6887888D01*
X18495182Y-6887888D02*
X18485658Y-6906936D01*
X18485658Y-6906936D02*
X18476134Y-6916460D01*
X18476134Y-6916460D02*
X18457086Y-6925984D01*
X18457086Y-6925984D02*
X18438039Y-6925984D01*
X18438039Y-6925984D02*
X18418991Y-6916460D01*
X18418991Y-6916460D02*
X18409467Y-6906936D01*
X18409467Y-6906936D02*
X18399944Y-6887888D01*
X18399944Y-6887888D02*
X18390420Y-6849793D01*
X18390420Y-6849793D02*
X18390420Y-6802174D01*
X18390420Y-6802174D02*
X18399944Y-6764079D01*
X18399944Y-6764079D02*
X18409467Y-6745031D01*
X18409467Y-6745031D02*
X18418991Y-6735508D01*
X18418991Y-6735508D02*
X18438039Y-6725984D01*
X18590420Y-6925984D02*
X18590420Y-6792650D01*
X18590420Y-6811698D02*
X18599944Y-6802174D01*
X18599944Y-6802174D02*
X18618991Y-6792650D01*
X18618991Y-6792650D02*
X18647563Y-6792650D01*
X18647563Y-6792650D02*
X18666610Y-6802174D01*
X18666610Y-6802174D02*
X18676134Y-6821222D01*
X18676134Y-6821222D02*
X18676134Y-6925984D01*
X18676134Y-6821222D02*
X18685658Y-6802174D01*
X18685658Y-6802174D02*
X18704705Y-6792650D01*
X18704705Y-6792650D02*
X18733277Y-6792650D01*
X18733277Y-6792650D02*
X18752325Y-6802174D01*
X18752325Y-6802174D02*
X18761848Y-6821222D01*
X18761848Y-6821222D02*
X18761848Y-6925984D01*
X18857086Y-6925984D02*
X18857086Y-6792650D01*
X18857086Y-6811698D02*
X18866610Y-6802174D01*
X18866610Y-6802174D02*
X18885658Y-6792650D01*
X18885658Y-6792650D02*
X18914229Y-6792650D01*
X18914229Y-6792650D02*
X18933277Y-6802174D01*
X18933277Y-6802174D02*
X18942801Y-6821222D01*
X18942801Y-6821222D02*
X18942801Y-6925984D01*
X18942801Y-6821222D02*
X18952325Y-6802174D01*
X18952325Y-6802174D02*
X18971372Y-6792650D01*
X18971372Y-6792650D02*
X18999944Y-6792650D01*
X18999944Y-6792650D02*
X19018991Y-6802174D01*
X19018991Y-6802174D02*
X19028515Y-6821222D01*
X19028515Y-6821222D02*
X19028515Y-6925984D01*
X19418991Y-6716460D02*
X19247563Y-6973603D01*
X19676134Y-6725984D02*
X19695182Y-6725984D01*
X19695182Y-6725984D02*
X19714229Y-6735508D01*
X19714229Y-6735508D02*
X19723753Y-6745031D01*
X19723753Y-6745031D02*
X19733277Y-6764079D01*
X19733277Y-6764079D02*
X19742801Y-6802174D01*
X19742801Y-6802174D02*
X19742801Y-6849793D01*
X19742801Y-6849793D02*
X19733277Y-6887888D01*
X19733277Y-6887888D02*
X19723753Y-6906936D01*
X19723753Y-6906936D02*
X19714229Y-6916460D01*
X19714229Y-6916460D02*
X19695182Y-6925984D01*
X19695182Y-6925984D02*
X19676134Y-6925984D01*
X19676134Y-6925984D02*
X19657087Y-6916460D01*
X19657087Y-6916460D02*
X19647563Y-6906936D01*
X19647563Y-6906936D02*
X19638039Y-6887888D01*
X19638039Y-6887888D02*
X19628515Y-6849793D01*
X19628515Y-6849793D02*
X19628515Y-6802174D01*
X19628515Y-6802174D02*
X19638039Y-6764079D01*
X19638039Y-6764079D02*
X19647563Y-6745031D01*
X19647563Y-6745031D02*
X19657087Y-6735508D01*
X19657087Y-6735508D02*
X19676134Y-6725984D01*
X19828515Y-6906936D02*
X19838039Y-6916460D01*
X19838039Y-6916460D02*
X19828515Y-6925984D01*
X19828515Y-6925984D02*
X19818991Y-6916460D01*
X19818991Y-6916460D02*
X19828515Y-6906936D01*
X19828515Y-6906936D02*
X19828515Y-6925984D01*
X19961848Y-6725984D02*
X19980896Y-6725984D01*
X19980896Y-6725984D02*
X19999944Y-6735508D01*
X19999944Y-6735508D02*
X20009468Y-6745031D01*
X20009468Y-6745031D02*
X20018991Y-6764079D01*
X20018991Y-6764079D02*
X20028515Y-6802174D01*
X20028515Y-6802174D02*
X20028515Y-6849793D01*
X20028515Y-6849793D02*
X20018991Y-6887888D01*
X20018991Y-6887888D02*
X20009468Y-6906936D01*
X20009468Y-6906936D02*
X19999944Y-6916460D01*
X19999944Y-6916460D02*
X19980896Y-6925984D01*
X19980896Y-6925984D02*
X19961848Y-6925984D01*
X19961848Y-6925984D02*
X19942801Y-6916460D01*
X19942801Y-6916460D02*
X19933277Y-6906936D01*
X19933277Y-6906936D02*
X19923753Y-6887888D01*
X19923753Y-6887888D02*
X19914229Y-6849793D01*
X19914229Y-6849793D02*
X19914229Y-6802174D01*
X19914229Y-6802174D02*
X19923753Y-6764079D01*
X19923753Y-6764079D02*
X19933277Y-6745031D01*
X19933277Y-6745031D02*
X19942801Y-6735508D01*
X19942801Y-6735508D02*
X19961848Y-6725984D01*
X20199944Y-6792650D02*
X20199944Y-6925984D01*
X20152325Y-6716460D02*
X20104706Y-6859317D01*
X20104706Y-6859317D02*
X20228515Y-6859317D01*
X20342801Y-6725984D02*
X20361849Y-6725984D01*
X20361849Y-6725984D02*
X20380896Y-6735508D01*
X20380896Y-6735508D02*
X20390420Y-6745031D01*
X20390420Y-6745031D02*
X20399944Y-6764079D01*
X20399944Y-6764079D02*
X20409468Y-6802174D01*
X20409468Y-6802174D02*
X20409468Y-6849793D01*
X20409468Y-6849793D02*
X20399944Y-6887888D01*
X20399944Y-6887888D02*
X20390420Y-6906936D01*
X20390420Y-6906936D02*
X20380896Y-6916460D01*
X20380896Y-6916460D02*
X20361849Y-6925984D01*
X20361849Y-6925984D02*
X20342801Y-6925984D01*
X20342801Y-6925984D02*
X20323753Y-6916460D01*
X20323753Y-6916460D02*
X20314229Y-6906936D01*
X20314229Y-6906936D02*
X20304706Y-6887888D01*
X20304706Y-6887888D02*
X20295182Y-6849793D01*
X20295182Y-6849793D02*
X20295182Y-6802174D01*
X20295182Y-6802174D02*
X20304706Y-6764079D01*
X20304706Y-6764079D02*
X20314229Y-6745031D01*
X20314229Y-6745031D02*
X20323753Y-6735508D01*
X20323753Y-6735508D02*
X20342801Y-6725984D01*
X20485658Y-6745031D02*
X20495182Y-6735508D01*
X20495182Y-6735508D02*
X20514229Y-6725984D01*
X20514229Y-6725984D02*
X20561849Y-6725984D01*
X20561849Y-6725984D02*
X20580896Y-6735508D01*
X20580896Y-6735508D02*
X20590420Y-6745031D01*
X20590420Y-6745031D02*
X20599944Y-6764079D01*
X20599944Y-6764079D02*
X20599944Y-6783127D01*
X20599944Y-6783127D02*
X20590420Y-6811698D01*
X20590420Y-6811698D02*
X20476134Y-6925984D01*
X20476134Y-6925984D02*
X20599944Y-6925984D01*
X20676134Y-6725984D02*
X20676134Y-6764079D01*
X20752325Y-6725984D02*
X20752325Y-6764079D01*
X21047563Y-7002174D02*
X21038039Y-6992650D01*
X21038039Y-6992650D02*
X21018991Y-6964079D01*
X21018991Y-6964079D02*
X21009468Y-6945031D01*
X21009468Y-6945031D02*
X20999944Y-6916460D01*
X20999944Y-6916460D02*
X20990420Y-6868841D01*
X20990420Y-6868841D02*
X20990420Y-6830746D01*
X20990420Y-6830746D02*
X20999944Y-6783127D01*
X20999944Y-6783127D02*
X21009468Y-6754555D01*
X21009468Y-6754555D02*
X21018991Y-6735508D01*
X21018991Y-6735508D02*
X21038039Y-6706936D01*
X21038039Y-6706936D02*
X21047563Y-6697412D01*
X21209468Y-6792650D02*
X21209468Y-6925984D01*
X21161849Y-6716460D02*
X21114230Y-6859317D01*
X21114230Y-6859317D02*
X21238039Y-6859317D01*
X21466611Y-6925984D02*
X21466611Y-6725984D01*
X21552325Y-6925984D02*
X21552325Y-6821222D01*
X21552325Y-6821222D02*
X21542801Y-6802174D01*
X21542801Y-6802174D02*
X21523753Y-6792650D01*
X21523753Y-6792650D02*
X21495182Y-6792650D01*
X21495182Y-6792650D02*
X21476134Y-6802174D01*
X21476134Y-6802174D02*
X21466611Y-6811698D01*
X21676134Y-6925984D02*
X21657087Y-6916460D01*
X21657087Y-6916460D02*
X21647563Y-6906936D01*
X21647563Y-6906936D02*
X21638039Y-6887888D01*
X21638039Y-6887888D02*
X21638039Y-6830746D01*
X21638039Y-6830746D02*
X21647563Y-6811698D01*
X21647563Y-6811698D02*
X21657087Y-6802174D01*
X21657087Y-6802174D02*
X21676134Y-6792650D01*
X21676134Y-6792650D02*
X21704706Y-6792650D01*
X21704706Y-6792650D02*
X21723753Y-6802174D01*
X21723753Y-6802174D02*
X21733277Y-6811698D01*
X21733277Y-6811698D02*
X21742801Y-6830746D01*
X21742801Y-6830746D02*
X21742801Y-6887888D01*
X21742801Y-6887888D02*
X21733277Y-6906936D01*
X21733277Y-6906936D02*
X21723753Y-6916460D01*
X21723753Y-6916460D02*
X21704706Y-6925984D01*
X21704706Y-6925984D02*
X21676134Y-6925984D01*
X21857087Y-6925984D02*
X21838039Y-6916460D01*
X21838039Y-6916460D02*
X21828515Y-6897412D01*
X21828515Y-6897412D02*
X21828515Y-6725984D01*
X22009468Y-6916460D02*
X21990420Y-6925984D01*
X21990420Y-6925984D02*
X21952325Y-6925984D01*
X21952325Y-6925984D02*
X21933277Y-6916460D01*
X21933277Y-6916460D02*
X21923753Y-6897412D01*
X21923753Y-6897412D02*
X21923753Y-6821222D01*
X21923753Y-6821222D02*
X21933277Y-6802174D01*
X21933277Y-6802174D02*
X21952325Y-6792650D01*
X21952325Y-6792650D02*
X21990420Y-6792650D01*
X21990420Y-6792650D02*
X22009468Y-6802174D01*
X22009468Y-6802174D02*
X22018992Y-6821222D01*
X22018992Y-6821222D02*
X22018992Y-6840269D01*
X22018992Y-6840269D02*
X21923753Y-6859317D01*
X22095182Y-6916460D02*
X22114230Y-6925984D01*
X22114230Y-6925984D02*
X22152325Y-6925984D01*
X22152325Y-6925984D02*
X22171373Y-6916460D01*
X22171373Y-6916460D02*
X22180896Y-6897412D01*
X22180896Y-6897412D02*
X22180896Y-6887888D01*
X22180896Y-6887888D02*
X22171373Y-6868841D01*
X22171373Y-6868841D02*
X22152325Y-6859317D01*
X22152325Y-6859317D02*
X22123753Y-6859317D01*
X22123753Y-6859317D02*
X22104706Y-6849793D01*
X22104706Y-6849793D02*
X22095182Y-6830746D01*
X22095182Y-6830746D02*
X22095182Y-6821222D01*
X22095182Y-6821222D02*
X22104706Y-6802174D01*
X22104706Y-6802174D02*
X22123753Y-6792650D01*
X22123753Y-6792650D02*
X22152325Y-6792650D01*
X22152325Y-6792650D02*
X22171373Y-6802174D01*
X22247563Y-7002174D02*
X22257087Y-6992650D01*
X22257087Y-6992650D02*
X22276134Y-6964079D01*
X22276134Y-6964079D02*
X22285658Y-6945031D01*
X22285658Y-6945031D02*
X22295182Y-6916460D01*
X22295182Y-6916460D02*
X22304706Y-6868841D01*
X22304706Y-6868841D02*
X22304706Y-6830746D01*
X22304706Y-6830746D02*
X22295182Y-6783127D01*
X22295182Y-6783127D02*
X22285658Y-6754555D01*
X22285658Y-6754555D02*
X22276134Y-6735508D01*
X22276134Y-6735508D02*
X22257087Y-6706936D01*
X22257087Y-6706936D02*
X22247563Y-6697412D01*
D14*
X17407500Y-7163500D02*
X17472500Y-7098500D01*
X17407500Y-7033500D01*
X17342500Y-7098500D01*
X17407500Y-7163500D01*
D11*
X17838039Y-7189984D02*
X17723753Y-7189984D01*
X17780896Y-7189984D02*
X17780896Y-6989984D01*
X17780896Y-6989984D02*
X17761848Y-7018555D01*
X17761848Y-7018555D02*
X17742801Y-7037603D01*
X17742801Y-7037603D02*
X17723753Y-7047127D01*
X17923753Y-7170936D02*
X17933277Y-7180460D01*
X17933277Y-7180460D02*
X17923753Y-7189984D01*
X17923753Y-7189984D02*
X17914229Y-7180460D01*
X17914229Y-7180460D02*
X17923753Y-7170936D01*
X17923753Y-7170936D02*
X17923753Y-7189984D01*
X17999944Y-6989984D02*
X18123753Y-6989984D01*
X18123753Y-6989984D02*
X18057086Y-7066174D01*
X18057086Y-7066174D02*
X18085658Y-7066174D01*
X18085658Y-7066174D02*
X18104705Y-7075698D01*
X18104705Y-7075698D02*
X18114229Y-7085222D01*
X18114229Y-7085222D02*
X18123753Y-7104269D01*
X18123753Y-7104269D02*
X18123753Y-7151888D01*
X18123753Y-7151888D02*
X18114229Y-7170936D01*
X18114229Y-7170936D02*
X18104705Y-7180460D01*
X18104705Y-7180460D02*
X18085658Y-7189984D01*
X18085658Y-7189984D02*
X18028515Y-7189984D01*
X18028515Y-7189984D02*
X18009467Y-7180460D01*
X18009467Y-7180460D02*
X17999944Y-7170936D01*
X18247563Y-6989984D02*
X18266610Y-6989984D01*
X18266610Y-6989984D02*
X18285658Y-6999508D01*
X18285658Y-6999508D02*
X18295182Y-7009031D01*
X18295182Y-7009031D02*
X18304705Y-7028079D01*
X18304705Y-7028079D02*
X18314229Y-7066174D01*
X18314229Y-7066174D02*
X18314229Y-7113793D01*
X18314229Y-7113793D02*
X18304705Y-7151888D01*
X18304705Y-7151888D02*
X18295182Y-7170936D01*
X18295182Y-7170936D02*
X18285658Y-7180460D01*
X18285658Y-7180460D02*
X18266610Y-7189984D01*
X18266610Y-7189984D02*
X18247563Y-7189984D01*
X18247563Y-7189984D02*
X18228515Y-7180460D01*
X18228515Y-7180460D02*
X18218991Y-7170936D01*
X18218991Y-7170936D02*
X18209467Y-7151888D01*
X18209467Y-7151888D02*
X18199944Y-7113793D01*
X18199944Y-7113793D02*
X18199944Y-7066174D01*
X18199944Y-7066174D02*
X18209467Y-7028079D01*
X18209467Y-7028079D02*
X18218991Y-7009031D01*
X18218991Y-7009031D02*
X18228515Y-6999508D01*
X18228515Y-6999508D02*
X18247563Y-6989984D01*
X18438039Y-6989984D02*
X18457086Y-6989984D01*
X18457086Y-6989984D02*
X18476134Y-6999508D01*
X18476134Y-6999508D02*
X18485658Y-7009031D01*
X18485658Y-7009031D02*
X18495182Y-7028079D01*
X18495182Y-7028079D02*
X18504705Y-7066174D01*
X18504705Y-7066174D02*
X18504705Y-7113793D01*
X18504705Y-7113793D02*
X18495182Y-7151888D01*
X18495182Y-7151888D02*
X18485658Y-7170936D01*
X18485658Y-7170936D02*
X18476134Y-7180460D01*
X18476134Y-7180460D02*
X18457086Y-7189984D01*
X18457086Y-7189984D02*
X18438039Y-7189984D01*
X18438039Y-7189984D02*
X18418991Y-7180460D01*
X18418991Y-7180460D02*
X18409467Y-7170936D01*
X18409467Y-7170936D02*
X18399944Y-7151888D01*
X18399944Y-7151888D02*
X18390420Y-7113793D01*
X18390420Y-7113793D02*
X18390420Y-7066174D01*
X18390420Y-7066174D02*
X18399944Y-7028079D01*
X18399944Y-7028079D02*
X18409467Y-7009031D01*
X18409467Y-7009031D02*
X18418991Y-6999508D01*
X18418991Y-6999508D02*
X18438039Y-6989984D01*
X18590420Y-7189984D02*
X18590420Y-7056650D01*
X18590420Y-7075698D02*
X18599944Y-7066174D01*
X18599944Y-7066174D02*
X18618991Y-7056650D01*
X18618991Y-7056650D02*
X18647563Y-7056650D01*
X18647563Y-7056650D02*
X18666610Y-7066174D01*
X18666610Y-7066174D02*
X18676134Y-7085222D01*
X18676134Y-7085222D02*
X18676134Y-7189984D01*
X18676134Y-7085222D02*
X18685658Y-7066174D01*
X18685658Y-7066174D02*
X18704705Y-7056650D01*
X18704705Y-7056650D02*
X18733277Y-7056650D01*
X18733277Y-7056650D02*
X18752325Y-7066174D01*
X18752325Y-7066174D02*
X18761848Y-7085222D01*
X18761848Y-7085222D02*
X18761848Y-7189984D01*
X18857086Y-7189984D02*
X18857086Y-7056650D01*
X18857086Y-7075698D02*
X18866610Y-7066174D01*
X18866610Y-7066174D02*
X18885658Y-7056650D01*
X18885658Y-7056650D02*
X18914229Y-7056650D01*
X18914229Y-7056650D02*
X18933277Y-7066174D01*
X18933277Y-7066174D02*
X18942801Y-7085222D01*
X18942801Y-7085222D02*
X18942801Y-7189984D01*
X18942801Y-7085222D02*
X18952325Y-7066174D01*
X18952325Y-7066174D02*
X18971372Y-7056650D01*
X18971372Y-7056650D02*
X18999944Y-7056650D01*
X18999944Y-7056650D02*
X19018991Y-7066174D01*
X19018991Y-7066174D02*
X19028515Y-7085222D01*
X19028515Y-7085222D02*
X19028515Y-7189984D01*
X19418991Y-6980460D02*
X19247563Y-7237603D01*
X19676134Y-6989984D02*
X19695182Y-6989984D01*
X19695182Y-6989984D02*
X19714229Y-6999508D01*
X19714229Y-6999508D02*
X19723753Y-7009031D01*
X19723753Y-7009031D02*
X19733277Y-7028079D01*
X19733277Y-7028079D02*
X19742801Y-7066174D01*
X19742801Y-7066174D02*
X19742801Y-7113793D01*
X19742801Y-7113793D02*
X19733277Y-7151888D01*
X19733277Y-7151888D02*
X19723753Y-7170936D01*
X19723753Y-7170936D02*
X19714229Y-7180460D01*
X19714229Y-7180460D02*
X19695182Y-7189984D01*
X19695182Y-7189984D02*
X19676134Y-7189984D01*
X19676134Y-7189984D02*
X19657087Y-7180460D01*
X19657087Y-7180460D02*
X19647563Y-7170936D01*
X19647563Y-7170936D02*
X19638039Y-7151888D01*
X19638039Y-7151888D02*
X19628515Y-7113793D01*
X19628515Y-7113793D02*
X19628515Y-7066174D01*
X19628515Y-7066174D02*
X19638039Y-7028079D01*
X19638039Y-7028079D02*
X19647563Y-7009031D01*
X19647563Y-7009031D02*
X19657087Y-6999508D01*
X19657087Y-6999508D02*
X19676134Y-6989984D01*
X19828515Y-7170936D02*
X19838039Y-7180460D01*
X19838039Y-7180460D02*
X19828515Y-7189984D01*
X19828515Y-7189984D02*
X19818991Y-7180460D01*
X19818991Y-7180460D02*
X19828515Y-7170936D01*
X19828515Y-7170936D02*
X19828515Y-7189984D01*
X19961848Y-6989984D02*
X19980896Y-6989984D01*
X19980896Y-6989984D02*
X19999944Y-6999508D01*
X19999944Y-6999508D02*
X20009468Y-7009031D01*
X20009468Y-7009031D02*
X20018991Y-7028079D01*
X20018991Y-7028079D02*
X20028515Y-7066174D01*
X20028515Y-7066174D02*
X20028515Y-7113793D01*
X20028515Y-7113793D02*
X20018991Y-7151888D01*
X20018991Y-7151888D02*
X20009468Y-7170936D01*
X20009468Y-7170936D02*
X19999944Y-7180460D01*
X19999944Y-7180460D02*
X19980896Y-7189984D01*
X19980896Y-7189984D02*
X19961848Y-7189984D01*
X19961848Y-7189984D02*
X19942801Y-7180460D01*
X19942801Y-7180460D02*
X19933277Y-7170936D01*
X19933277Y-7170936D02*
X19923753Y-7151888D01*
X19923753Y-7151888D02*
X19914229Y-7113793D01*
X19914229Y-7113793D02*
X19914229Y-7066174D01*
X19914229Y-7066174D02*
X19923753Y-7028079D01*
X19923753Y-7028079D02*
X19933277Y-7009031D01*
X19933277Y-7009031D02*
X19942801Y-6999508D01*
X19942801Y-6999508D02*
X19961848Y-6989984D01*
X20209468Y-6989984D02*
X20114229Y-6989984D01*
X20114229Y-6989984D02*
X20104706Y-7085222D01*
X20104706Y-7085222D02*
X20114229Y-7075698D01*
X20114229Y-7075698D02*
X20133277Y-7066174D01*
X20133277Y-7066174D02*
X20180896Y-7066174D01*
X20180896Y-7066174D02*
X20199944Y-7075698D01*
X20199944Y-7075698D02*
X20209468Y-7085222D01*
X20209468Y-7085222D02*
X20218991Y-7104269D01*
X20218991Y-7104269D02*
X20218991Y-7151888D01*
X20218991Y-7151888D02*
X20209468Y-7170936D01*
X20209468Y-7170936D02*
X20199944Y-7180460D01*
X20199944Y-7180460D02*
X20180896Y-7189984D01*
X20180896Y-7189984D02*
X20133277Y-7189984D01*
X20133277Y-7189984D02*
X20114229Y-7180460D01*
X20114229Y-7180460D02*
X20104706Y-7170936D01*
X20409468Y-7189984D02*
X20295182Y-7189984D01*
X20352325Y-7189984D02*
X20352325Y-6989984D01*
X20352325Y-6989984D02*
X20333277Y-7018555D01*
X20333277Y-7018555D02*
X20314229Y-7037603D01*
X20314229Y-7037603D02*
X20295182Y-7047127D01*
X20485658Y-7009031D02*
X20495182Y-6999508D01*
X20495182Y-6999508D02*
X20514229Y-6989984D01*
X20514229Y-6989984D02*
X20561849Y-6989984D01*
X20561849Y-6989984D02*
X20580896Y-6999508D01*
X20580896Y-6999508D02*
X20590420Y-7009031D01*
X20590420Y-7009031D02*
X20599944Y-7028079D01*
X20599944Y-7028079D02*
X20599944Y-7047127D01*
X20599944Y-7047127D02*
X20590420Y-7075698D01*
X20590420Y-7075698D02*
X20476134Y-7189984D01*
X20476134Y-7189984D02*
X20599944Y-7189984D01*
X20676134Y-6989984D02*
X20676134Y-7028079D01*
X20752325Y-6989984D02*
X20752325Y-7028079D01*
X21047563Y-7266174D02*
X21038039Y-7256650D01*
X21038039Y-7256650D02*
X21018991Y-7228079D01*
X21018991Y-7228079D02*
X21009468Y-7209031D01*
X21009468Y-7209031D02*
X20999944Y-7180460D01*
X20999944Y-7180460D02*
X20990420Y-7132841D01*
X20990420Y-7132841D02*
X20990420Y-7094746D01*
X20990420Y-7094746D02*
X20999944Y-7047127D01*
X20999944Y-7047127D02*
X21009468Y-7018555D01*
X21009468Y-7018555D02*
X21018991Y-6999508D01*
X21018991Y-6999508D02*
X21038039Y-6970936D01*
X21038039Y-6970936D02*
X21047563Y-6961412D01*
X21152325Y-7075698D02*
X21133277Y-7066174D01*
X21133277Y-7066174D02*
X21123753Y-7056650D01*
X21123753Y-7056650D02*
X21114230Y-7037603D01*
X21114230Y-7037603D02*
X21114230Y-7028079D01*
X21114230Y-7028079D02*
X21123753Y-7009031D01*
X21123753Y-7009031D02*
X21133277Y-6999508D01*
X21133277Y-6999508D02*
X21152325Y-6989984D01*
X21152325Y-6989984D02*
X21190420Y-6989984D01*
X21190420Y-6989984D02*
X21209468Y-6999508D01*
X21209468Y-6999508D02*
X21218991Y-7009031D01*
X21218991Y-7009031D02*
X21228515Y-7028079D01*
X21228515Y-7028079D02*
X21228515Y-7037603D01*
X21228515Y-7037603D02*
X21218991Y-7056650D01*
X21218991Y-7056650D02*
X21209468Y-7066174D01*
X21209468Y-7066174D02*
X21190420Y-7075698D01*
X21190420Y-7075698D02*
X21152325Y-7075698D01*
X21152325Y-7075698D02*
X21133277Y-7085222D01*
X21133277Y-7085222D02*
X21123753Y-7094746D01*
X21123753Y-7094746D02*
X21114230Y-7113793D01*
X21114230Y-7113793D02*
X21114230Y-7151888D01*
X21114230Y-7151888D02*
X21123753Y-7170936D01*
X21123753Y-7170936D02*
X21133277Y-7180460D01*
X21133277Y-7180460D02*
X21152325Y-7189984D01*
X21152325Y-7189984D02*
X21190420Y-7189984D01*
X21190420Y-7189984D02*
X21209468Y-7180460D01*
X21209468Y-7180460D02*
X21218991Y-7170936D01*
X21218991Y-7170936D02*
X21228515Y-7151888D01*
X21228515Y-7151888D02*
X21228515Y-7113793D01*
X21228515Y-7113793D02*
X21218991Y-7094746D01*
X21218991Y-7094746D02*
X21209468Y-7085222D01*
X21209468Y-7085222D02*
X21190420Y-7075698D01*
X21466611Y-7189984D02*
X21466611Y-6989984D01*
X21552325Y-7189984D02*
X21552325Y-7085222D01*
X21552325Y-7085222D02*
X21542801Y-7066174D01*
X21542801Y-7066174D02*
X21523753Y-7056650D01*
X21523753Y-7056650D02*
X21495182Y-7056650D01*
X21495182Y-7056650D02*
X21476134Y-7066174D01*
X21476134Y-7066174D02*
X21466611Y-7075698D01*
X21676134Y-7189984D02*
X21657087Y-7180460D01*
X21657087Y-7180460D02*
X21647563Y-7170936D01*
X21647563Y-7170936D02*
X21638039Y-7151888D01*
X21638039Y-7151888D02*
X21638039Y-7094746D01*
X21638039Y-7094746D02*
X21647563Y-7075698D01*
X21647563Y-7075698D02*
X21657087Y-7066174D01*
X21657087Y-7066174D02*
X21676134Y-7056650D01*
X21676134Y-7056650D02*
X21704706Y-7056650D01*
X21704706Y-7056650D02*
X21723753Y-7066174D01*
X21723753Y-7066174D02*
X21733277Y-7075698D01*
X21733277Y-7075698D02*
X21742801Y-7094746D01*
X21742801Y-7094746D02*
X21742801Y-7151888D01*
X21742801Y-7151888D02*
X21733277Y-7170936D01*
X21733277Y-7170936D02*
X21723753Y-7180460D01*
X21723753Y-7180460D02*
X21704706Y-7189984D01*
X21704706Y-7189984D02*
X21676134Y-7189984D01*
X21857087Y-7189984D02*
X21838039Y-7180460D01*
X21838039Y-7180460D02*
X21828515Y-7161412D01*
X21828515Y-7161412D02*
X21828515Y-6989984D01*
X22009468Y-7180460D02*
X21990420Y-7189984D01*
X21990420Y-7189984D02*
X21952325Y-7189984D01*
X21952325Y-7189984D02*
X21933277Y-7180460D01*
X21933277Y-7180460D02*
X21923753Y-7161412D01*
X21923753Y-7161412D02*
X21923753Y-7085222D01*
X21923753Y-7085222D02*
X21933277Y-7066174D01*
X21933277Y-7066174D02*
X21952325Y-7056650D01*
X21952325Y-7056650D02*
X21990420Y-7056650D01*
X21990420Y-7056650D02*
X22009468Y-7066174D01*
X22009468Y-7066174D02*
X22018992Y-7085222D01*
X22018992Y-7085222D02*
X22018992Y-7104269D01*
X22018992Y-7104269D02*
X21923753Y-7123317D01*
X22095182Y-7180460D02*
X22114230Y-7189984D01*
X22114230Y-7189984D02*
X22152325Y-7189984D01*
X22152325Y-7189984D02*
X22171373Y-7180460D01*
X22171373Y-7180460D02*
X22180896Y-7161412D01*
X22180896Y-7161412D02*
X22180896Y-7151888D01*
X22180896Y-7151888D02*
X22171373Y-7132841D01*
X22171373Y-7132841D02*
X22152325Y-7123317D01*
X22152325Y-7123317D02*
X22123753Y-7123317D01*
X22123753Y-7123317D02*
X22104706Y-7113793D01*
X22104706Y-7113793D02*
X22095182Y-7094746D01*
X22095182Y-7094746D02*
X22095182Y-7085222D01*
X22095182Y-7085222D02*
X22104706Y-7066174D01*
X22104706Y-7066174D02*
X22123753Y-7056650D01*
X22123753Y-7056650D02*
X22152325Y-7056650D01*
X22152325Y-7056650D02*
X22171373Y-7066174D01*
X22247563Y-7266174D02*
X22257087Y-7256650D01*
X22257087Y-7256650D02*
X22276134Y-7228079D01*
X22276134Y-7228079D02*
X22285658Y-7209031D01*
X22285658Y-7209031D02*
X22295182Y-7180460D01*
X22295182Y-7180460D02*
X22304706Y-7132841D01*
X22304706Y-7132841D02*
X22304706Y-7094746D01*
X22304706Y-7094746D02*
X22295182Y-7047127D01*
X22295182Y-7047127D02*
X22285658Y-7018555D01*
X22285658Y-7018555D02*
X22276134Y-6999508D01*
X22276134Y-6999508D02*
X22257087Y-6970936D01*
X22257087Y-6970936D02*
X22247563Y-6961412D01*
M02*
