G04 #@! TF.GenerationSoftware,KiCad,Pcbnew,9.0.2*
G04 #@! TF.CreationDate,2025-09-03T18:49:59+02:00*
G04 #@! TF.ProjectId,Afterburner_Nano,41667465-7262-4757-926e-65725f4e616e,rev?*
G04 #@! TF.SameCoordinates,Original*
G04 #@! TF.FileFunction,Legend,Bot*
G04 #@! TF.FilePolarity,Positive*
%FSLAX46Y46*%
G04 Gerber Fmt 4.6, Leading zero omitted, Abs format (unit mm)*
G04 Created by KiCad (PCBNEW 9.0.2) date 2025-09-03 18:49:59*
%MOMM*%
%LPD*%
G01*
G04 APERTURE LIST*
G04 APERTURE END LIST*
%LPC*%
G36*
X207847832Y-51618179D02*
G01*
X208033653Y-51695149D01*
X208200888Y-51806891D01*
X208343109Y-51949112D01*
X208454851Y-52116347D01*
X208531821Y-52302168D01*
X208571060Y-52499434D01*
X208571060Y-52700566D01*
X208531821Y-52897832D01*
X208454851Y-53083653D01*
X208343109Y-53250888D01*
X208200888Y-53393109D01*
X208033653Y-53504851D01*
X207847832Y-53581821D01*
X207650566Y-53621060D01*
X207449434Y-53621060D01*
X207252168Y-53581821D01*
X207066347Y-53504851D01*
X206899112Y-53393109D01*
X206756891Y-53250888D01*
X206645149Y-53083653D01*
X206568179Y-52897832D01*
X206528940Y-52700566D01*
X206528940Y-52499434D01*
X206568179Y-52302168D01*
X206645149Y-52116347D01*
X206756891Y-51949112D01*
X206899112Y-51806891D01*
X207066347Y-51695149D01*
X207252168Y-51618179D01*
X207449434Y-51578940D01*
X207650566Y-51578940D01*
X207847832Y-51618179D01*
G37*
G36*
X210847832Y-51618179D02*
G01*
X211033653Y-51695149D01*
X211200888Y-51806891D01*
X211343109Y-51949112D01*
X211454851Y-52116347D01*
X211531821Y-52302168D01*
X211571060Y-52499434D01*
X211571060Y-52700566D01*
X211531821Y-52897832D01*
X211454851Y-53083653D01*
X211343109Y-53250888D01*
X211200888Y-53393109D01*
X211033653Y-53504851D01*
X210847832Y-53581821D01*
X210650566Y-53621060D01*
X210449434Y-53621060D01*
X210252168Y-53581821D01*
X210066347Y-53504851D01*
X209899112Y-53393109D01*
X209756891Y-53250888D01*
X209645149Y-53083653D01*
X209568179Y-52897832D01*
X209528940Y-52700566D01*
X209528940Y-52499434D01*
X209568179Y-52302168D01*
X209645149Y-52116347D01*
X209756891Y-51949112D01*
X209899112Y-51806891D01*
X210066347Y-51695149D01*
X210252168Y-51618179D01*
X210449434Y-51578940D01*
X210650566Y-51578940D01*
X210847832Y-51618179D01*
G37*
G36*
X207767101Y-50672293D02*
G01*
X207836281Y-50712234D01*
X207892766Y-50768719D01*
X207932707Y-50837899D01*
X207953382Y-50915059D01*
X207953382Y-50994941D01*
X207932707Y-51072101D01*
X207892766Y-51141281D01*
X207836281Y-51197766D01*
X207767101Y-51237707D01*
X207689941Y-51258382D01*
X207610059Y-51258382D01*
X207532899Y-51237707D01*
X207463719Y-51197766D01*
X207407234Y-51141281D01*
X207367293Y-51072101D01*
X207346618Y-50994941D01*
X207346618Y-50915059D01*
X207367293Y-50837899D01*
X207407234Y-50768719D01*
X207463719Y-50712234D01*
X207532899Y-50672293D01*
X207610059Y-50651618D01*
X207689941Y-50651618D01*
X207767101Y-50672293D01*
G37*
G36*
X176869517Y-47402882D02*
G01*
X176886062Y-47413938D01*
X176897118Y-47430483D01*
X176901000Y-47450000D01*
X176901000Y-48450000D01*
X176897118Y-48469517D01*
X176886062Y-48486062D01*
X176869517Y-48497118D01*
X176850000Y-48501000D01*
X174850000Y-48501000D01*
X174830483Y-48497118D01*
X174813938Y-48486062D01*
X174802882Y-48469517D01*
X174799000Y-48450000D01*
X174799000Y-47450000D01*
X174802882Y-47430483D01*
X174813938Y-47413938D01*
X174830483Y-47402882D01*
X174850000Y-47399000D01*
X176850000Y-47399000D01*
X176869517Y-47402882D01*
G37*
G36*
X176869517Y-45902882D02*
G01*
X176886062Y-45913938D01*
X176897118Y-45930483D01*
X176901000Y-45950000D01*
X176901000Y-46950000D01*
X176897118Y-46969517D01*
X176886062Y-46986062D01*
X176869517Y-46997118D01*
X176850000Y-47001000D01*
X174850000Y-47001000D01*
X174830483Y-46997118D01*
X174813938Y-46986062D01*
X174802882Y-46969517D01*
X174799000Y-46950000D01*
X174799000Y-45950000D01*
X174802882Y-45930483D01*
X174813938Y-45913938D01*
X174830483Y-45902882D01*
X174850000Y-45899000D01*
X176850000Y-45899000D01*
X176869517Y-45902882D01*
G37*
G36*
X176869517Y-44402882D02*
G01*
X176886062Y-44413938D01*
X176897118Y-44430483D01*
X176901000Y-44450000D01*
X176901000Y-45450000D01*
X176897118Y-45469517D01*
X176886062Y-45486062D01*
X176869517Y-45497118D01*
X176850000Y-45501000D01*
X174850000Y-45501000D01*
X174830483Y-45497118D01*
X174813938Y-45486062D01*
X174802882Y-45469517D01*
X174799000Y-45450000D01*
X174799000Y-44450000D01*
X174802882Y-44430483D01*
X174813938Y-44413938D01*
X174830483Y-44402882D01*
X174850000Y-44399000D01*
X176850000Y-44399000D01*
X176869517Y-44402882D01*
G37*
G36*
X207767101Y-44172293D02*
G01*
X207836281Y-44212234D01*
X207892766Y-44268719D01*
X207932707Y-44337899D01*
X207953382Y-44415059D01*
X207953382Y-44494941D01*
X207932707Y-44572101D01*
X207892766Y-44641281D01*
X207836281Y-44697766D01*
X207767101Y-44737707D01*
X207689941Y-44758382D01*
X207610059Y-44758382D01*
X207532899Y-44737707D01*
X207463719Y-44697766D01*
X207407234Y-44641281D01*
X207367293Y-44572101D01*
X207346618Y-44494941D01*
X207346618Y-44415059D01*
X207367293Y-44337899D01*
X207407234Y-44268719D01*
X207463719Y-44212234D01*
X207532899Y-44172293D01*
X207610059Y-44151618D01*
X207689941Y-44151618D01*
X207767101Y-44172293D01*
G37*
G36*
X176869517Y-42902882D02*
G01*
X176886062Y-42913938D01*
X176897118Y-42930483D01*
X176901000Y-42950000D01*
X176901000Y-43950000D01*
X176897118Y-43969517D01*
X176886062Y-43986062D01*
X176869517Y-43997118D01*
X176850000Y-44001000D01*
X174850000Y-44001000D01*
X174830483Y-43997118D01*
X174813938Y-43986062D01*
X174802882Y-43969517D01*
X174799000Y-43950000D01*
X174799000Y-42950000D01*
X174802882Y-42930483D01*
X174813938Y-42913938D01*
X174830483Y-42902882D01*
X174850000Y-42899000D01*
X176850000Y-42899000D01*
X176869517Y-42902882D01*
G37*
G36*
X207847832Y-41828179D02*
G01*
X208033653Y-41905149D01*
X208200888Y-42016891D01*
X208343109Y-42159112D01*
X208454851Y-42326347D01*
X208531821Y-42512168D01*
X208571060Y-42709434D01*
X208571060Y-42910566D01*
X208531821Y-43107832D01*
X208454851Y-43293653D01*
X208343109Y-43460888D01*
X208200888Y-43603109D01*
X208033653Y-43714851D01*
X207847832Y-43791821D01*
X207650566Y-43831060D01*
X207449434Y-43831060D01*
X207252168Y-43791821D01*
X207066347Y-43714851D01*
X206899112Y-43603109D01*
X206756891Y-43460888D01*
X206645149Y-43293653D01*
X206568179Y-43107832D01*
X206528940Y-42910566D01*
X206528940Y-42709434D01*
X206568179Y-42512168D01*
X206645149Y-42326347D01*
X206756891Y-42159112D01*
X206899112Y-42016891D01*
X207066347Y-41905149D01*
X207252168Y-41828179D01*
X207449434Y-41788940D01*
X207650566Y-41788940D01*
X207847832Y-41828179D01*
G37*
G36*
X210847832Y-41828179D02*
G01*
X211033653Y-41905149D01*
X211200888Y-42016891D01*
X211343109Y-42159112D01*
X211454851Y-42326347D01*
X211531821Y-42512168D01*
X211571060Y-42709434D01*
X211571060Y-42910566D01*
X211531821Y-43107832D01*
X211454851Y-43293653D01*
X211343109Y-43460888D01*
X211200888Y-43603109D01*
X211033653Y-43714851D01*
X210847832Y-43791821D01*
X210650566Y-43831060D01*
X210449434Y-43831060D01*
X210252168Y-43791821D01*
X210066347Y-43714851D01*
X209899112Y-43603109D01*
X209756891Y-43460888D01*
X209645149Y-43293653D01*
X209568179Y-43107832D01*
X209528940Y-42910566D01*
X209528940Y-42709434D01*
X209568179Y-42512168D01*
X209645149Y-42326347D01*
X209756891Y-42159112D01*
X209899112Y-42016891D01*
X210066347Y-41905149D01*
X210252168Y-41828179D01*
X210449434Y-41788940D01*
X210650566Y-41788940D01*
X210847832Y-41828179D01*
G37*
G36*
X176869517Y-40252882D02*
G01*
X176886062Y-40263938D01*
X176897118Y-40280483D01*
X176901000Y-40300000D01*
X176901000Y-41300000D01*
X176897118Y-41319517D01*
X176886062Y-41336062D01*
X176869517Y-41347118D01*
X176850000Y-41351000D01*
X174850000Y-41351000D01*
X174830483Y-41347118D01*
X174813938Y-41336062D01*
X174802882Y-41319517D01*
X174799000Y-41300000D01*
X174799000Y-40300000D01*
X174802882Y-40280483D01*
X174813938Y-40263938D01*
X174830483Y-40252882D01*
X174850000Y-40249000D01*
X176850000Y-40249000D01*
X176869517Y-40252882D01*
G37*
G36*
X192048696Y-38600802D02*
G01*
X192220469Y-38656615D01*
X192381396Y-38738611D01*
X192527515Y-38844773D01*
X192655227Y-38972485D01*
X192761389Y-39118604D01*
X192843385Y-39279531D01*
X192899198Y-39451304D01*
X192927452Y-39629694D01*
X192927452Y-39810306D01*
X192899198Y-39988696D01*
X192843385Y-40160469D01*
X192761389Y-40321396D01*
X192655227Y-40467515D01*
X192527515Y-40595227D01*
X192381396Y-40701389D01*
X192220469Y-40783385D01*
X192048696Y-40839198D01*
X191870306Y-40867452D01*
X191689694Y-40867452D01*
X191511304Y-40839198D01*
X191339531Y-40783385D01*
X191178604Y-40701389D01*
X191032485Y-40595227D01*
X190904773Y-40467515D01*
X190798611Y-40321396D01*
X190716615Y-40160469D01*
X190660802Y-39988696D01*
X190632548Y-39810306D01*
X190632548Y-39629694D01*
X190660802Y-39451304D01*
X190716615Y-39279531D01*
X190798611Y-39118604D01*
X190904773Y-38972485D01*
X191032485Y-38844773D01*
X191178604Y-38738611D01*
X191339531Y-38656615D01*
X191511304Y-38600802D01*
X191689694Y-38572548D01*
X191870306Y-38572548D01*
X192048696Y-38600802D01*
G37*
G36*
X176869517Y-38752882D02*
G01*
X176886062Y-38763938D01*
X176897118Y-38780483D01*
X176901000Y-38800000D01*
X176901000Y-39800000D01*
X176897118Y-39819517D01*
X176886062Y-39836062D01*
X176869517Y-39847118D01*
X176850000Y-39851000D01*
X174850000Y-39851000D01*
X174830483Y-39847118D01*
X174813938Y-39836062D01*
X174802882Y-39819517D01*
X174799000Y-39800000D01*
X174799000Y-38800000D01*
X174802882Y-38780483D01*
X174813938Y-38763938D01*
X174830483Y-38752882D01*
X174850000Y-38749000D01*
X176850000Y-38749000D01*
X176869517Y-38752882D01*
G37*
G36*
X176869517Y-37252882D02*
G01*
X176886062Y-37263938D01*
X176897118Y-37280483D01*
X176901000Y-37300000D01*
X176901000Y-38300000D01*
X176897118Y-38319517D01*
X176886062Y-38336062D01*
X176869517Y-38347118D01*
X176850000Y-38351000D01*
X174850000Y-38351000D01*
X174830483Y-38347118D01*
X174813938Y-38336062D01*
X174802882Y-38319517D01*
X174799000Y-38300000D01*
X174799000Y-37300000D01*
X174802882Y-37280483D01*
X174813938Y-37263938D01*
X174830483Y-37252882D01*
X174850000Y-37249000D01*
X176850000Y-37249000D01*
X176869517Y-37252882D01*
G37*
G36*
X176869517Y-35752882D02*
G01*
X176886062Y-35763938D01*
X176897118Y-35780483D01*
X176901000Y-35800000D01*
X176901000Y-36800000D01*
X176897118Y-36819517D01*
X176886062Y-36836062D01*
X176869517Y-36847118D01*
X176850000Y-36851000D01*
X174850000Y-36851000D01*
X174830483Y-36847118D01*
X174813938Y-36836062D01*
X174802882Y-36819517D01*
X174799000Y-36800000D01*
X174799000Y-35800000D01*
X174802882Y-35780483D01*
X174813938Y-35763938D01*
X174830483Y-35752882D01*
X174850000Y-35749000D01*
X176850000Y-35749000D01*
X176869517Y-35752882D01*
G37*
G36*
X177601434Y-31380802D02*
G01*
X177773207Y-31436615D01*
X177934134Y-31518611D01*
X178080253Y-31624773D01*
X178207965Y-31752485D01*
X178314127Y-31898604D01*
X178396123Y-32059531D01*
X178451936Y-32231304D01*
X178480190Y-32409694D01*
X178480190Y-32590306D01*
X178451936Y-32768696D01*
X178396123Y-32940469D01*
X178314127Y-33101396D01*
X178207965Y-33247515D01*
X178080253Y-33375227D01*
X177934134Y-33481389D01*
X177773207Y-33563385D01*
X177601434Y-33619198D01*
X177423044Y-33647452D01*
X177242432Y-33647452D01*
X177064042Y-33619198D01*
X176892269Y-33563385D01*
X176731342Y-33481389D01*
X176585223Y-33375227D01*
X176457511Y-33247515D01*
X176351349Y-33101396D01*
X176269353Y-32940469D01*
X176213540Y-32768696D01*
X176185286Y-32590306D01*
X176185286Y-32409694D01*
X176213540Y-32231304D01*
X176269353Y-32059531D01*
X176351349Y-31898604D01*
X176457511Y-31752485D01*
X176585223Y-31624773D01*
X176731342Y-31518611D01*
X176892269Y-31436615D01*
X177064042Y-31380802D01*
X177242432Y-31352548D01*
X177423044Y-31352548D01*
X177601434Y-31380802D01*
G37*
G36*
X207847832Y-28313179D02*
G01*
X208033653Y-28390149D01*
X208200888Y-28501891D01*
X208343109Y-28644112D01*
X208454851Y-28811347D01*
X208531821Y-28997168D01*
X208571060Y-29194434D01*
X208571060Y-29395566D01*
X208531821Y-29592832D01*
X208454851Y-29778653D01*
X208343109Y-29945888D01*
X208200888Y-30088109D01*
X208033653Y-30199851D01*
X207847832Y-30276821D01*
X207650566Y-30316060D01*
X207449434Y-30316060D01*
X207252168Y-30276821D01*
X207066347Y-30199851D01*
X206899112Y-30088109D01*
X206756891Y-29945888D01*
X206645149Y-29778653D01*
X206568179Y-29592832D01*
X206528940Y-29395566D01*
X206528940Y-29194434D01*
X206568179Y-28997168D01*
X206645149Y-28811347D01*
X206756891Y-28644112D01*
X206899112Y-28501891D01*
X207066347Y-28390149D01*
X207252168Y-28313179D01*
X207449434Y-28273940D01*
X207650566Y-28273940D01*
X207847832Y-28313179D01*
G37*
G36*
X210847832Y-28313179D02*
G01*
X211033653Y-28390149D01*
X211200888Y-28501891D01*
X211343109Y-28644112D01*
X211454851Y-28811347D01*
X211531821Y-28997168D01*
X211571060Y-29194434D01*
X211571060Y-29395566D01*
X211531821Y-29592832D01*
X211454851Y-29778653D01*
X211343109Y-29945888D01*
X211200888Y-30088109D01*
X211033653Y-30199851D01*
X210847832Y-30276821D01*
X210650566Y-30316060D01*
X210449434Y-30316060D01*
X210252168Y-30276821D01*
X210066347Y-30199851D01*
X209899112Y-30088109D01*
X209756891Y-29945888D01*
X209645149Y-29778653D01*
X209568179Y-29592832D01*
X209528940Y-29395566D01*
X209528940Y-29194434D01*
X209568179Y-28997168D01*
X209645149Y-28811347D01*
X209756891Y-28644112D01*
X209899112Y-28501891D01*
X210066347Y-28390149D01*
X210252168Y-28313179D01*
X210449434Y-28273940D01*
X210650566Y-28273940D01*
X210847832Y-28313179D01*
G37*
G36*
X179025932Y-26454741D02*
G01*
X179031554Y-26456568D01*
X179032075Y-26457286D01*
X179039598Y-26460402D01*
X179046570Y-26477236D01*
X179053301Y-26486499D01*
X179055092Y-26497807D01*
X179056000Y-26500000D01*
X179056000Y-26503541D01*
X179056000Y-28500000D01*
X179056000Y-29500000D01*
X179045254Y-29525941D01*
X179043431Y-29531554D01*
X179042714Y-29532074D01*
X179039598Y-29539598D01*
X179022761Y-29546571D01*
X179013500Y-29553301D01*
X179002192Y-29555091D01*
X179000000Y-29556000D01*
X178000000Y-29556000D01*
X177000000Y-29556000D01*
X176000000Y-29556000D01*
X175007128Y-29556000D01*
X175000000Y-29556000D01*
X174974061Y-29545255D01*
X174968445Y-29543431D01*
X174967923Y-29542713D01*
X174960402Y-29539598D01*
X174953429Y-29522764D01*
X174946698Y-29513500D01*
X174944907Y-29502191D01*
X174944000Y-29500000D01*
X174944000Y-28500000D01*
X174944000Y-26507127D01*
X174944000Y-26500000D01*
X174954739Y-26474071D01*
X174956568Y-26468445D01*
X174957286Y-26467922D01*
X174960402Y-26460402D01*
X174977233Y-26453430D01*
X174986499Y-26446698D01*
X174997809Y-26444907D01*
X175000000Y-26444000D01*
X176000000Y-26444000D01*
X178992872Y-26444000D01*
X179000000Y-26444000D01*
X179025932Y-26454741D01*
G37*
G36*
X207767101Y-27367293D02*
G01*
X207836281Y-27407234D01*
X207892766Y-27463719D01*
X207932707Y-27532899D01*
X207953382Y-27610059D01*
X207953382Y-27689941D01*
X207932707Y-27767101D01*
X207892766Y-27836281D01*
X207836281Y-27892766D01*
X207767101Y-27932707D01*
X207689941Y-27953382D01*
X207610059Y-27953382D01*
X207532899Y-27932707D01*
X207463719Y-27892766D01*
X207407234Y-27836281D01*
X207367293Y-27767101D01*
X207346618Y-27689941D01*
X207346618Y-27610059D01*
X207367293Y-27532899D01*
X207407234Y-27463719D01*
X207463719Y-27407234D01*
X207532899Y-27367293D01*
X207610059Y-27346618D01*
X207689941Y-27346618D01*
X207767101Y-27367293D01*
G37*
G36*
X179025932Y-21454741D02*
G01*
X179031554Y-21456568D01*
X179032075Y-21457286D01*
X179039598Y-21460402D01*
X179046570Y-21477236D01*
X179053301Y-21486499D01*
X179055092Y-21497807D01*
X179056000Y-21500000D01*
X179056000Y-21503541D01*
X179056000Y-23500000D01*
X179056000Y-24500000D01*
X179045254Y-24525941D01*
X179043431Y-24531554D01*
X179042714Y-24532074D01*
X179039598Y-24539598D01*
X179022761Y-24546571D01*
X179013500Y-24553301D01*
X179002192Y-24555091D01*
X179000000Y-24556000D01*
X178000000Y-24556000D01*
X177000000Y-24556000D01*
X176000000Y-24556000D01*
X175007128Y-24556000D01*
X175000000Y-24556000D01*
X174974061Y-24545255D01*
X174968445Y-24543431D01*
X174967923Y-24542713D01*
X174960402Y-24539598D01*
X174953429Y-24522764D01*
X174946698Y-24513500D01*
X174944907Y-24502191D01*
X174944000Y-24500000D01*
X174944000Y-23500000D01*
X174944000Y-21507127D01*
X174944000Y-21500000D01*
X174954739Y-21474071D01*
X174956568Y-21468445D01*
X174957286Y-21467922D01*
X174960402Y-21460402D01*
X174977233Y-21453430D01*
X174986499Y-21446698D01*
X174997809Y-21444907D01*
X175000000Y-21444000D01*
X176000000Y-21444000D01*
X178992872Y-21444000D01*
X179000000Y-21444000D01*
X179025932Y-21454741D01*
G37*
G36*
X207767101Y-20867293D02*
G01*
X207836281Y-20907234D01*
X207892766Y-20963719D01*
X207932707Y-21032899D01*
X207953382Y-21110059D01*
X207953382Y-21189941D01*
X207932707Y-21267101D01*
X207892766Y-21336281D01*
X207836281Y-21392766D01*
X207767101Y-21432707D01*
X207689941Y-21453382D01*
X207610059Y-21453382D01*
X207532899Y-21432707D01*
X207463719Y-21392766D01*
X207407234Y-21336281D01*
X207367293Y-21267101D01*
X207346618Y-21189941D01*
X207346618Y-21110059D01*
X207367293Y-21032899D01*
X207407234Y-20963719D01*
X207463719Y-20907234D01*
X207532899Y-20867293D01*
X207610059Y-20846618D01*
X207689941Y-20846618D01*
X207767101Y-20867293D01*
G37*
G36*
X207847832Y-18523179D02*
G01*
X208033653Y-18600149D01*
X208200888Y-18711891D01*
X208343109Y-18854112D01*
X208454851Y-19021347D01*
X208531821Y-19207168D01*
X208571060Y-19404434D01*
X208571060Y-19605566D01*
X208531821Y-19802832D01*
X208454851Y-19988653D01*
X208343109Y-20155888D01*
X208200888Y-20298109D01*
X208033653Y-20409851D01*
X207847832Y-20486821D01*
X207650566Y-20526060D01*
X207449434Y-20526060D01*
X207252168Y-20486821D01*
X207066347Y-20409851D01*
X206899112Y-20298109D01*
X206756891Y-20155888D01*
X206645149Y-19988653D01*
X206568179Y-19802832D01*
X206528940Y-19605566D01*
X206528940Y-19404434D01*
X206568179Y-19207168D01*
X206645149Y-19021347D01*
X206756891Y-18854112D01*
X206899112Y-18711891D01*
X207066347Y-18600149D01*
X207252168Y-18523179D01*
X207449434Y-18483940D01*
X207650566Y-18483940D01*
X207847832Y-18523179D01*
G37*
G36*
X210847832Y-18523179D02*
G01*
X211033653Y-18600149D01*
X211200888Y-18711891D01*
X211343109Y-18854112D01*
X211454851Y-19021347D01*
X211531821Y-19207168D01*
X211571060Y-19404434D01*
X211571060Y-19605566D01*
X211531821Y-19802832D01*
X211454851Y-19988653D01*
X211343109Y-20155888D01*
X211200888Y-20298109D01*
X211033653Y-20409851D01*
X210847832Y-20486821D01*
X210650566Y-20526060D01*
X210449434Y-20526060D01*
X210252168Y-20486821D01*
X210066347Y-20409851D01*
X209899112Y-20298109D01*
X209756891Y-20155888D01*
X209645149Y-19988653D01*
X209568179Y-19802832D01*
X209528940Y-19605566D01*
X209528940Y-19404434D01*
X209568179Y-19207168D01*
X209645149Y-19021347D01*
X209756891Y-18854112D01*
X209899112Y-18711891D01*
X210066347Y-18600149D01*
X210252168Y-18523179D01*
X210449434Y-18483940D01*
X210650566Y-18483940D01*
X210847832Y-18523179D01*
G37*
%LPD*%
M02*
