G04 #@! TF.GenerationSoftware,KiCad,Pcbnew,9.0.2*
G04 #@! TF.CreationDate,2025-09-03T18:49:59+02:00*
G04 #@! TF.ProjectId,Afterburner_Nano,41667465-7262-4757-926e-65725f4e616e,rev?*
G04 #@! TF.SameCoordinates,Original*
G04 #@! TF.FileFunction,Copper,L3,Inr*
G04 #@! TF.FilePolarity,Positive*
%FSLAX46Y46*%
G04 Gerber Fmt 4.6, Leading zero omitted, Abs format (unit mm)*
G04 Created by KiCad (PCBNEW 9.0.2) date 2025-09-03 18:49:59*
%MOMM*%
%LPD*%
G01*
G04 APERTURE LIST*
G04 Aperture macros list*
%AMFreePoly0*
4,1,5,0.500000,-0.500000,-0.500000,-0.500000,-0.500000,0.500000,0.500000,0.500000,0.500000,-0.500000,0.500000,-0.500000,$1*%
G04 Aperture macros list end*
G04 #@! TA.AperFunction,ComponentPad*
%ADD10C,1.950000*%
G04 #@! TD*
G04 #@! TA.AperFunction,ComponentPad*
%ADD11C,0.510000*%
G04 #@! TD*
G04 #@! TA.AperFunction,ComponentPad*
%ADD12FreePoly0,0.000000*%
G04 #@! TD*
G04 #@! TA.AperFunction,ComponentPad*
%ADD13R,2.000000X1.000000*%
G04 #@! TD*
G04 #@! TA.AperFunction,ViaPad*
%ADD14C,0.600000*%
G04 #@! TD*
G04 #@! TA.AperFunction,Conductor*
%ADD15C,0.200000*%
G04 #@! TD*
G04 APERTURE END LIST*
D10*
X207550000Y-29295000D03*
X210550000Y-29295000D03*
X210550000Y-19505000D03*
X207550000Y-19505000D03*
D11*
X207650000Y-27650000D03*
X207650000Y-21150000D03*
D10*
X207550000Y-52600000D03*
X210550000Y-52600000D03*
X210550000Y-42810000D03*
X207550000Y-42810000D03*
D11*
X207650000Y-50955000D03*
X207650000Y-44455000D03*
D12*
X175500000Y-27000000D03*
X175500000Y-28000000D03*
X175500000Y-29000000D03*
X176500000Y-27000000D03*
X176500000Y-28000000D03*
X176500000Y-29000000D03*
X177500000Y-27000000D03*
X177500000Y-28000000D03*
X177500000Y-29000000D03*
X178500000Y-27000000D03*
X178500000Y-28000000D03*
X178500000Y-29000000D03*
X175500000Y-22000000D03*
X175500000Y-23000000D03*
X175500000Y-24000000D03*
X176500000Y-22000000D03*
X176500000Y-23000000D03*
X176500000Y-24000000D03*
X177500000Y-22000000D03*
X177500000Y-23000000D03*
X177500000Y-24000000D03*
X178500000Y-22000000D03*
X178500000Y-23000000D03*
X178500000Y-24000000D03*
D13*
X175850000Y-43450000D03*
X175850000Y-44950000D03*
X175850000Y-46450000D03*
X175850000Y-47950000D03*
X175850000Y-36300000D03*
X175850000Y-37800000D03*
X175850000Y-39300000D03*
X175850000Y-40800000D03*
D14*
X202068500Y-23895000D03*
X201960000Y-33960000D03*
X196290000Y-37620000D03*
X205594500Y-44505000D03*
X199020000Y-36890000D03*
X192330000Y-28170000D03*
X195060000Y-37620000D03*
X202410000Y-48270000D03*
X200350000Y-36920000D03*
X205594500Y-21200000D03*
X188350000Y-30150000D03*
X193330000Y-28170000D03*
X198300000Y-37620000D03*
X194330000Y-28170000D03*
X205594500Y-27600000D03*
X197300000Y-37620000D03*
X192330000Y-28180000D03*
X190350000Y-30150000D03*
X189350000Y-30150000D03*
X205594500Y-50905000D03*
X199650000Y-23100000D03*
X190920000Y-29050000D03*
X194060000Y-37620000D03*
X191800000Y-29020000D03*
X204090000Y-38180000D03*
X188245000Y-44505000D03*
X185080000Y-46240000D03*
X182918902Y-42300000D03*
X180620000Y-42300000D03*
X184260000Y-46250000D03*
X181515000Y-42425000D03*
X204120000Y-33970000D03*
X205400000Y-33950000D03*
X197733847Y-46827998D03*
X185960000Y-29970000D03*
X197780000Y-23040000D03*
X197550000Y-29010000D03*
X195750000Y-38390000D03*
X203268500Y-22395000D03*
X200000000Y-24800000D03*
X197250000Y-21750000D03*
X195749999Y-22500000D03*
X193800000Y-26125002D03*
X193040000Y-27250000D03*
X192900000Y-23950000D03*
X196950000Y-23050000D03*
X177440000Y-19630000D03*
X187566731Y-20358600D03*
X187680000Y-21100000D03*
X177450000Y-18600000D03*
X188590002Y-46290002D03*
X184900000Y-31680000D03*
X178450000Y-45550000D03*
X179450000Y-44750000D03*
X183170000Y-44940000D03*
X185470000Y-47370000D03*
X183350000Y-19590000D03*
X187260000Y-37290000D03*
X186160000Y-37260000D03*
X182360000Y-19810000D03*
X187990000Y-45840000D03*
X184020000Y-20250000D03*
X188340000Y-37280000D03*
X197600000Y-40190000D03*
X195230000Y-42640000D03*
D15*
X187566731Y-20358600D02*
X187124331Y-20801000D01*
X181791000Y-20801000D02*
X180630000Y-19640000D01*
X187124331Y-20801000D02*
X181791000Y-20801000D01*
X180630000Y-19640000D02*
X177440000Y-19640000D01*
X180170000Y-20310000D02*
X177190000Y-20310000D01*
X177190000Y-20310000D02*
X176880000Y-20000000D01*
X187628000Y-21152000D02*
X181012000Y-21152000D01*
X181012000Y-21152000D02*
X180170000Y-20310000D01*
X187680000Y-21100000D02*
X187628000Y-21152000D01*
X176880000Y-19170000D02*
X177450000Y-18600000D01*
X176880000Y-20000000D02*
X176880000Y-19170000D01*
M02*
