G04 #@! TF.GenerationSoftware,KiCad,Pcbnew,9.0.2*
G04 #@! TF.CreationDate,2025-09-03T18:49:59+02:00*
G04 #@! TF.ProjectId,Afterburner_Nano,41667465-7262-4757-926e-65725f4e616e,rev?*
G04 #@! TF.SameCoordinates,Original*
G04 #@! TF.FileFunction,Paste,Top*
G04 #@! TF.FilePolarity,Positive*
%FSLAX46Y46*%
G04 Gerber Fmt 4.6, Leading zero omitted, Abs format (unit mm)*
G04 Created by KiCad (PCBNEW 9.0.2) date 2025-09-03 18:49:59*
%MOMM*%
%LPD*%
G01*
G04 APERTURE LIST*
G04 Aperture macros list*
%AMRoundRect*
0 Rectangle with rounded corners*
0 $1 Rounding radius*
0 $2 $3 $4 $5 $6 $7 $8 $9 X,Y pos of 4 corners*
0 Add a 4 corners polygon primitive as box body*
4,1,4,$2,$3,$4,$5,$6,$7,$8,$9,$2,$3,0*
0 Add four circle primitives for the rounded corners*
1,1,$1+$1,$2,$3*
1,1,$1+$1,$4,$5*
1,1,$1+$1,$6,$7*
1,1,$1+$1,$8,$9*
0 Add four rect primitives between the rounded corners*
20,1,$1+$1,$2,$3,$4,$5,0*
20,1,$1+$1,$4,$5,$6,$7,0*
20,1,$1+$1,$6,$7,$8,$9,0*
20,1,$1+$1,$8,$9,$2,$3,0*%
%AMOutline5P*
0 Free polygon, 5 corners , with rotation*
0 The origin of the aperture is its center*
0 number of corners: always 5*
0 $1 to $10 corner X, Y*
0 $11 Rotation angle, in degrees counterclockwise*
0 create outline with 5 corners*
4,1,5,$1,$2,$3,$4,$5,$6,$7,$8,$9,$10,$1,$2,$11*%
%AMOutline6P*
0 Free polygon, 6 corners , with rotation*
0 The origin of the aperture is its center*
0 number of corners: always 6*
0 $1 to $12 corner X, Y*
0 $13 Rotation angle, in degrees counterclockwise*
0 create outline with 6 corners*
4,1,6,$1,$2,$3,$4,$5,$6,$7,$8,$9,$10,$11,$12,$1,$2,$13*%
%AMOutline7P*
0 Free polygon, 7 corners , with rotation*
0 The origin of the aperture is its center*
0 number of corners: always 7*
0 $1 to $14 corner X, Y*
0 $15 Rotation angle, in degrees counterclockwise*
0 create outline with 7 corners*
4,1,7,$1,$2,$3,$4,$5,$6,$7,$8,$9,$10,$11,$12,$13,$14,$1,$2,$15*%
%AMOutline8P*
0 Free polygon, 8 corners , with rotation*
0 The origin of the aperture is its center*
0 number of corners: always 8*
0 $1 to $16 corner X, Y*
0 $17 Rotation angle, in degrees counterclockwise*
0 create outline with 8 corners*
4,1,8,$1,$2,$3,$4,$5,$6,$7,$8,$9,$10,$11,$12,$13,$14,$15,$16,$1,$2,$17*%
G04 Aperture macros list end*
%ADD10C,0.010000*%
%ADD11RoundRect,0.135000X0.135000X0.185000X-0.135000X0.185000X-0.135000X-0.185000X0.135000X-0.185000X0*%
%ADD12RoundRect,0.135000X-0.135000X-0.185000X0.135000X-0.185000X0.135000X0.185000X-0.135000X0.185000X0*%
%ADD13R,1.550000X0.600000*%
%ADD14R,1.550000X0.300000*%
%ADD15RoundRect,0.135000X0.185000X-0.135000X0.185000X0.135000X-0.185000X0.135000X-0.185000X-0.135000X0*%
%ADD16R,1.400000X0.600000*%
%ADD17R,0.300000X0.800000*%
%ADD18R,0.800000X0.300000*%
%ADD19R,2.240000X2.240000*%
%ADD20RoundRect,0.250000X-1.100000X0.325000X-1.100000X-0.325000X1.100000X-0.325000X1.100000X0.325000X0*%
%ADD21R,0.190000X0.770000*%
%ADD22R,0.190000X0.710000*%
%ADD23R,0.600000X0.500000*%
%ADD24RoundRect,0.079500X-0.100500X0.079500X-0.100500X-0.079500X0.100500X-0.079500X0.100500X0.079500X0*%
%ADD25RoundRect,0.140000X-0.170000X0.140000X-0.170000X-0.140000X0.170000X-0.140000X0.170000X0.140000X0*%
%ADD26R,1.000000X1.400000*%
%ADD27R,3.500000X2.350000*%
%ADD28RoundRect,0.140000X-0.140000X-0.170000X0.140000X-0.170000X0.140000X0.170000X-0.140000X0.170000X0*%
%ADD29R,1.000000X0.750000*%
%ADD30R,4.055000X4.560000*%
%ADD31R,0.905000X0.495000*%
%ADD32R,0.475000X0.750000*%
%ADD33R,0.800000X0.400000*%
%ADD34R,0.400000X0.800000*%
%ADD35Outline5P,-0.725000X0.130500X-0.130500X0.725000X0.725000X0.725000X0.725000X-0.725000X-0.725000X-0.725000X180.000000*%
%ADD36R,1.450000X1.450000*%
%ADD37R,0.700000X0.700000*%
%ADD38RoundRect,0.250000X0.650000X-0.325000X0.650000X0.325000X-0.650000X0.325000X-0.650000X-0.325000X0*%
%ADD39R,0.310000X0.600000*%
%ADD40R,1.750000X1.500000*%
%ADD41R,0.825000X0.230000*%
%ADD42RoundRect,0.135000X-0.185000X0.135000X-0.185000X-0.135000X0.185000X-0.135000X0.185000X0.135000X0*%
%ADD43R,0.750000X0.600000*%
%ADD44RoundRect,0.079500X0.100500X-0.079500X0.100500X0.079500X-0.100500X0.079500X-0.100500X-0.079500X0*%
%ADD45RoundRect,0.140000X0.140000X0.170000X-0.140000X0.170000X-0.140000X-0.170000X0.140000X-0.170000X0*%
%ADD46R,1.000000X1.000000*%
%ADD47RoundRect,0.079500X0.014849X-0.127279X0.127279X-0.014849X-0.014849X0.127279X-0.127279X0.014849X0*%
%ADD48R,1.475000X0.450000*%
%ADD49RoundRect,0.250000X-0.475000X0.250000X-0.475000X-0.250000X0.475000X-0.250000X0.475000X0.250000X0*%
%ADD50R,0.350000X1.000000*%
%ADD51R,1.000000X0.350000*%
%ADD52R,3.350000X3.350000*%
%ADD53RoundRect,0.225000X-0.250000X0.225000X-0.250000X-0.225000X0.250000X-0.225000X0.250000X0.225000X0*%
%ADD54R,0.350000X0.500000*%
%ADD55R,0.380000X0.430000*%
%ADD56R,0.400000X0.300000*%
%ADD57R,2.450000X1.980000*%
%ADD58R,0.300000X0.475000*%
%ADD59R,0.750000X0.300000*%
%ADD60R,0.300000X0.750000*%
%ADD61R,2.700000X2.700000*%
%ADD62RoundRect,0.079500X0.079500X0.100500X-0.079500X0.100500X-0.079500X-0.100500X0.079500X-0.100500X0*%
G04 APERTURE END LIST*
D10*
X203181500Y-23791000D02*
X203183500Y-23791000D01*
X203186500Y-23792000D01*
X203188500Y-23792000D01*
X203191500Y-23793000D01*
X203193500Y-23794000D01*
X203196500Y-23795000D01*
X203198500Y-23797000D01*
X203200500Y-23798000D01*
X203202500Y-23800000D01*
X203204500Y-23801000D01*
X203206500Y-23803000D01*
X203208500Y-23805000D01*
X203210500Y-23807000D01*
X203212500Y-23809000D01*
X203213500Y-23811000D01*
X203215500Y-23813000D01*
X203216500Y-23815000D01*
X203218500Y-23817000D01*
X203219500Y-23820000D01*
X203220500Y-23822000D01*
X203221500Y-23825000D01*
X203221500Y-23827000D01*
X203222500Y-23830000D01*
X203222500Y-23832000D01*
X203223500Y-23835000D01*
X203223500Y-23837000D01*
X203223500Y-23840000D01*
X203223500Y-23950000D01*
X203223500Y-23953000D01*
X203223500Y-23955000D01*
X203222500Y-23958000D01*
X203222500Y-23960000D01*
X203221500Y-23963000D01*
X203221500Y-23965000D01*
X203220500Y-23968000D01*
X203219500Y-23970000D01*
X203218500Y-23973000D01*
X203216500Y-23975000D01*
X203215500Y-23977000D01*
X203213500Y-23979000D01*
X203212500Y-23981000D01*
X203210500Y-23983000D01*
X203208500Y-23985000D01*
X203206500Y-23987000D01*
X203204500Y-23989000D01*
X203202500Y-23990000D01*
X203200500Y-23992000D01*
X203198500Y-23993000D01*
X203196500Y-23995000D01*
X203193500Y-23996000D01*
X203191500Y-23997000D01*
X203188500Y-23998000D01*
X203186500Y-23998000D01*
X203183500Y-23999000D01*
X203181500Y-23999000D01*
X203178500Y-24000000D01*
X203176500Y-24000000D01*
X203173500Y-24000000D01*
X203063500Y-24000000D01*
X203060500Y-24000000D01*
X203058500Y-24000000D01*
X203055500Y-23999000D01*
X203053500Y-23999000D01*
X203050500Y-23998000D01*
X203048500Y-23998000D01*
X203045500Y-23997000D01*
X203043500Y-23996000D01*
X203040500Y-23995000D01*
X203038500Y-23993000D01*
X203036500Y-23992000D01*
X203034500Y-23990000D01*
X203032500Y-23989000D01*
X203030500Y-23987000D01*
X203028500Y-23985000D01*
X203026500Y-23983000D01*
X203024500Y-23981000D01*
X203023500Y-23979000D01*
X203021500Y-23977000D01*
X203020500Y-23975000D01*
X203018500Y-23973000D01*
X203017500Y-23970000D01*
X203016500Y-23968000D01*
X203015500Y-23965000D01*
X203015500Y-23963000D01*
X203014500Y-23960000D01*
X203014500Y-23958000D01*
X203013500Y-23955000D01*
X203013500Y-23953000D01*
X203013500Y-23950000D01*
X203013500Y-23840000D01*
X203013500Y-23837000D01*
X203013500Y-23835000D01*
X203014500Y-23832000D01*
X203014500Y-23830000D01*
X203015500Y-23827000D01*
X203015500Y-23825000D01*
X203016500Y-23822000D01*
X203017500Y-23820000D01*
X203018500Y-23817000D01*
X203020500Y-23815000D01*
X203021500Y-23813000D01*
X203023500Y-23811000D01*
X203024500Y-23809000D01*
X203026500Y-23807000D01*
X203028500Y-23805000D01*
X203030500Y-23803000D01*
X203032500Y-23801000D01*
X203034500Y-23800000D01*
X203036500Y-23798000D01*
X203038500Y-23797000D01*
X203040500Y-23795000D01*
X203043500Y-23794000D01*
X203045500Y-23793000D01*
X203048500Y-23792000D01*
X203050500Y-23792000D01*
X203053500Y-23791000D01*
X203055500Y-23791000D01*
X203058500Y-23790000D01*
X203060500Y-23790000D01*
X203063500Y-23790000D01*
X203173500Y-23790000D01*
X203176500Y-23790000D01*
X203178500Y-23790000D01*
X203181500Y-23791000D01*
G36*
X203181500Y-23791000D02*
G01*
X203183500Y-23791000D01*
X203186500Y-23792000D01*
X203188500Y-23792000D01*
X203191500Y-23793000D01*
X203193500Y-23794000D01*
X203196500Y-23795000D01*
X203198500Y-23797000D01*
X203200500Y-23798000D01*
X203202500Y-23800000D01*
X203204500Y-23801000D01*
X203206500Y-23803000D01*
X203208500Y-23805000D01*
X203210500Y-23807000D01*
X203212500Y-23809000D01*
X203213500Y-23811000D01*
X203215500Y-23813000D01*
X203216500Y-23815000D01*
X203218500Y-23817000D01*
X203219500Y-23820000D01*
X203220500Y-23822000D01*
X203221500Y-23825000D01*
X203221500Y-23827000D01*
X203222500Y-23830000D01*
X203222500Y-23832000D01*
X203223500Y-23835000D01*
X203223500Y-23837000D01*
X203223500Y-23840000D01*
X203223500Y-23950000D01*
X203223500Y-23953000D01*
X203223500Y-23955000D01*
X203222500Y-23958000D01*
X203222500Y-23960000D01*
X203221500Y-23963000D01*
X203221500Y-23965000D01*
X203220500Y-23968000D01*
X203219500Y-23970000D01*
X203218500Y-23973000D01*
X203216500Y-23975000D01*
X203215500Y-23977000D01*
X203213500Y-23979000D01*
X203212500Y-23981000D01*
X203210500Y-23983000D01*
X203208500Y-23985000D01*
X203206500Y-23987000D01*
X203204500Y-23989000D01*
X203202500Y-23990000D01*
X203200500Y-23992000D01*
X203198500Y-23993000D01*
X203196500Y-23995000D01*
X203193500Y-23996000D01*
X203191500Y-23997000D01*
X203188500Y-23998000D01*
X203186500Y-23998000D01*
X203183500Y-23999000D01*
X203181500Y-23999000D01*
X203178500Y-24000000D01*
X203176500Y-24000000D01*
X203173500Y-24000000D01*
X203063500Y-24000000D01*
X203060500Y-24000000D01*
X203058500Y-24000000D01*
X203055500Y-23999000D01*
X203053500Y-23999000D01*
X203050500Y-23998000D01*
X203048500Y-23998000D01*
X203045500Y-23997000D01*
X203043500Y-23996000D01*
X203040500Y-23995000D01*
X203038500Y-23993000D01*
X203036500Y-23992000D01*
X203034500Y-23990000D01*
X203032500Y-23989000D01*
X203030500Y-23987000D01*
X203028500Y-23985000D01*
X203026500Y-23983000D01*
X203024500Y-23981000D01*
X203023500Y-23979000D01*
X203021500Y-23977000D01*
X203020500Y-23975000D01*
X203018500Y-23973000D01*
X203017500Y-23970000D01*
X203016500Y-23968000D01*
X203015500Y-23965000D01*
X203015500Y-23963000D01*
X203014500Y-23960000D01*
X203014500Y-23958000D01*
X203013500Y-23955000D01*
X203013500Y-23953000D01*
X203013500Y-23950000D01*
X203013500Y-23840000D01*
X203013500Y-23837000D01*
X203013500Y-23835000D01*
X203014500Y-23832000D01*
X203014500Y-23830000D01*
X203015500Y-23827000D01*
X203015500Y-23825000D01*
X203016500Y-23822000D01*
X203017500Y-23820000D01*
X203018500Y-23817000D01*
X203020500Y-23815000D01*
X203021500Y-23813000D01*
X203023500Y-23811000D01*
X203024500Y-23809000D01*
X203026500Y-23807000D01*
X203028500Y-23805000D01*
X203030500Y-23803000D01*
X203032500Y-23801000D01*
X203034500Y-23800000D01*
X203036500Y-23798000D01*
X203038500Y-23797000D01*
X203040500Y-23795000D01*
X203043500Y-23794000D01*
X203045500Y-23793000D01*
X203048500Y-23792000D01*
X203050500Y-23792000D01*
X203053500Y-23791000D01*
X203055500Y-23791000D01*
X203058500Y-23790000D01*
X203060500Y-23790000D01*
X203063500Y-23790000D01*
X203173500Y-23790000D01*
X203176500Y-23790000D01*
X203178500Y-23790000D01*
X203181500Y-23791000D01*
G37*
X203431500Y-23291000D02*
X203433500Y-23291000D01*
X203436500Y-23292000D01*
X203438500Y-23292000D01*
X203441500Y-23293000D01*
X203443500Y-23294000D01*
X203446500Y-23295000D01*
X203448500Y-23297000D01*
X203450500Y-23298000D01*
X203452500Y-23300000D01*
X203454500Y-23301000D01*
X203456500Y-23303000D01*
X203458500Y-23305000D01*
X203460500Y-23307000D01*
X203462500Y-23309000D01*
X203463500Y-23311000D01*
X203465500Y-23313000D01*
X203466500Y-23315000D01*
X203468500Y-23317000D01*
X203469500Y-23320000D01*
X203470500Y-23322000D01*
X203471500Y-23325000D01*
X203471500Y-23327000D01*
X203472500Y-23330000D01*
X203472500Y-23332000D01*
X203473500Y-23335000D01*
X203473500Y-23337000D01*
X203473500Y-23340000D01*
X203473500Y-23450000D01*
X203473500Y-23453000D01*
X203473500Y-23455000D01*
X203472500Y-23458000D01*
X203472500Y-23460000D01*
X203471500Y-23463000D01*
X203471500Y-23465000D01*
X203470500Y-23468000D01*
X203469500Y-23470000D01*
X203468500Y-23473000D01*
X203466500Y-23475000D01*
X203465500Y-23477000D01*
X203463500Y-23479000D01*
X203462500Y-23481000D01*
X203460500Y-23483000D01*
X203458500Y-23485000D01*
X203456500Y-23487000D01*
X203454500Y-23489000D01*
X203452500Y-23490000D01*
X203450500Y-23492000D01*
X203448500Y-23493000D01*
X203446500Y-23495000D01*
X203443500Y-23496000D01*
X203441500Y-23497000D01*
X203438500Y-23498000D01*
X203436500Y-23498000D01*
X203433500Y-23499000D01*
X203431500Y-23499000D01*
X203428500Y-23500000D01*
X203426500Y-23500000D01*
X203423500Y-23500000D01*
X203313500Y-23500000D01*
X203310500Y-23500000D01*
X203308500Y-23500000D01*
X203305500Y-23499000D01*
X203303500Y-23499000D01*
X203300500Y-23498000D01*
X203298500Y-23498000D01*
X203295500Y-23497000D01*
X203293500Y-23496000D01*
X203290500Y-23495000D01*
X203288500Y-23493000D01*
X203286500Y-23492000D01*
X203284500Y-23490000D01*
X203282500Y-23489000D01*
X203280500Y-23487000D01*
X203278500Y-23485000D01*
X203276500Y-23483000D01*
X203274500Y-23481000D01*
X203273500Y-23479000D01*
X203271500Y-23477000D01*
X203270500Y-23475000D01*
X203268500Y-23473000D01*
X203267500Y-23470000D01*
X203266500Y-23468000D01*
X203265500Y-23465000D01*
X203265500Y-23463000D01*
X203264500Y-23460000D01*
X203264500Y-23458000D01*
X203263500Y-23455000D01*
X203263500Y-23453000D01*
X203263500Y-23450000D01*
X203263500Y-23340000D01*
X203263500Y-23337000D01*
X203263500Y-23335000D01*
X203264500Y-23332000D01*
X203264500Y-23330000D01*
X203265500Y-23327000D01*
X203265500Y-23325000D01*
X203266500Y-23322000D01*
X203267500Y-23320000D01*
X203268500Y-23317000D01*
X203270500Y-23315000D01*
X203271500Y-23313000D01*
X203273500Y-23311000D01*
X203274500Y-23309000D01*
X203276500Y-23307000D01*
X203278500Y-23305000D01*
X203280500Y-23303000D01*
X203282500Y-23301000D01*
X203284500Y-23300000D01*
X203286500Y-23298000D01*
X203288500Y-23297000D01*
X203290500Y-23295000D01*
X203293500Y-23294000D01*
X203295500Y-23293000D01*
X203298500Y-23292000D01*
X203300500Y-23292000D01*
X203303500Y-23291000D01*
X203305500Y-23291000D01*
X203308500Y-23290000D01*
X203310500Y-23290000D01*
X203313500Y-23290000D01*
X203423500Y-23290000D01*
X203426500Y-23290000D01*
X203428500Y-23290000D01*
X203431500Y-23291000D01*
G36*
X203431500Y-23291000D02*
G01*
X203433500Y-23291000D01*
X203436500Y-23292000D01*
X203438500Y-23292000D01*
X203441500Y-23293000D01*
X203443500Y-23294000D01*
X203446500Y-23295000D01*
X203448500Y-23297000D01*
X203450500Y-23298000D01*
X203452500Y-23300000D01*
X203454500Y-23301000D01*
X203456500Y-23303000D01*
X203458500Y-23305000D01*
X203460500Y-23307000D01*
X203462500Y-23309000D01*
X203463500Y-23311000D01*
X203465500Y-23313000D01*
X203466500Y-23315000D01*
X203468500Y-23317000D01*
X203469500Y-23320000D01*
X203470500Y-23322000D01*
X203471500Y-23325000D01*
X203471500Y-23327000D01*
X203472500Y-23330000D01*
X203472500Y-23332000D01*
X203473500Y-23335000D01*
X203473500Y-23337000D01*
X203473500Y-23340000D01*
X203473500Y-23450000D01*
X203473500Y-23453000D01*
X203473500Y-23455000D01*
X203472500Y-23458000D01*
X203472500Y-23460000D01*
X203471500Y-23463000D01*
X203471500Y-23465000D01*
X203470500Y-23468000D01*
X203469500Y-23470000D01*
X203468500Y-23473000D01*
X203466500Y-23475000D01*
X203465500Y-23477000D01*
X203463500Y-23479000D01*
X203462500Y-23481000D01*
X203460500Y-23483000D01*
X203458500Y-23485000D01*
X203456500Y-23487000D01*
X203454500Y-23489000D01*
X203452500Y-23490000D01*
X203450500Y-23492000D01*
X203448500Y-23493000D01*
X203446500Y-23495000D01*
X203443500Y-23496000D01*
X203441500Y-23497000D01*
X203438500Y-23498000D01*
X203436500Y-23498000D01*
X203433500Y-23499000D01*
X203431500Y-23499000D01*
X203428500Y-23500000D01*
X203426500Y-23500000D01*
X203423500Y-23500000D01*
X203313500Y-23500000D01*
X203310500Y-23500000D01*
X203308500Y-23500000D01*
X203305500Y-23499000D01*
X203303500Y-23499000D01*
X203300500Y-23498000D01*
X203298500Y-23498000D01*
X203295500Y-23497000D01*
X203293500Y-23496000D01*
X203290500Y-23495000D01*
X203288500Y-23493000D01*
X203286500Y-23492000D01*
X203284500Y-23490000D01*
X203282500Y-23489000D01*
X203280500Y-23487000D01*
X203278500Y-23485000D01*
X203276500Y-23483000D01*
X203274500Y-23481000D01*
X203273500Y-23479000D01*
X203271500Y-23477000D01*
X203270500Y-23475000D01*
X203268500Y-23473000D01*
X203267500Y-23470000D01*
X203266500Y-23468000D01*
X203265500Y-23465000D01*
X203265500Y-23463000D01*
X203264500Y-23460000D01*
X203264500Y-23458000D01*
X203263500Y-23455000D01*
X203263500Y-23453000D01*
X203263500Y-23450000D01*
X203263500Y-23340000D01*
X203263500Y-23337000D01*
X203263500Y-23335000D01*
X203264500Y-23332000D01*
X203264500Y-23330000D01*
X203265500Y-23327000D01*
X203265500Y-23325000D01*
X203266500Y-23322000D01*
X203267500Y-23320000D01*
X203268500Y-23317000D01*
X203270500Y-23315000D01*
X203271500Y-23313000D01*
X203273500Y-23311000D01*
X203274500Y-23309000D01*
X203276500Y-23307000D01*
X203278500Y-23305000D01*
X203280500Y-23303000D01*
X203282500Y-23301000D01*
X203284500Y-23300000D01*
X203286500Y-23298000D01*
X203288500Y-23297000D01*
X203290500Y-23295000D01*
X203293500Y-23294000D01*
X203295500Y-23293000D01*
X203298500Y-23292000D01*
X203300500Y-23292000D01*
X203303500Y-23291000D01*
X203305500Y-23291000D01*
X203308500Y-23290000D01*
X203310500Y-23290000D01*
X203313500Y-23290000D01*
X203423500Y-23290000D01*
X203426500Y-23290000D01*
X203428500Y-23290000D01*
X203431500Y-23291000D01*
G37*
X203431500Y-24291000D02*
X203433500Y-24291000D01*
X203436500Y-24292000D01*
X203438500Y-24292000D01*
X203441500Y-24293000D01*
X203443500Y-24294000D01*
X203446500Y-24295000D01*
X203448500Y-24297000D01*
X203450500Y-24298000D01*
X203452500Y-24300000D01*
X203454500Y-24301000D01*
X203456500Y-24303000D01*
X203458500Y-24305000D01*
X203460500Y-24307000D01*
X203462500Y-24309000D01*
X203463500Y-24311000D01*
X203465500Y-24313000D01*
X203466500Y-24315000D01*
X203468500Y-24317000D01*
X203469500Y-24320000D01*
X203470500Y-24322000D01*
X203471500Y-24325000D01*
X203471500Y-24327000D01*
X203472500Y-24330000D01*
X203472500Y-24332000D01*
X203473500Y-24335000D01*
X203473500Y-24337000D01*
X203473500Y-24340000D01*
X203473500Y-24450000D01*
X203473500Y-24453000D01*
X203473500Y-24455000D01*
X203472500Y-24458000D01*
X203472500Y-24460000D01*
X203471500Y-24463000D01*
X203471500Y-24465000D01*
X203470500Y-24468000D01*
X203469500Y-24470000D01*
X203468500Y-24473000D01*
X203466500Y-24475000D01*
X203465500Y-24477000D01*
X203463500Y-24479000D01*
X203462500Y-24481000D01*
X203460500Y-24483000D01*
X203458500Y-24485000D01*
X203456500Y-24487000D01*
X203454500Y-24489000D01*
X203452500Y-24490000D01*
X203450500Y-24492000D01*
X203448500Y-24493000D01*
X203446500Y-24495000D01*
X203443500Y-24496000D01*
X203441500Y-24497000D01*
X203438500Y-24498000D01*
X203436500Y-24498000D01*
X203433500Y-24499000D01*
X203431500Y-24499000D01*
X203428500Y-24500000D01*
X203426500Y-24500000D01*
X203423500Y-24500000D01*
X203313500Y-24500000D01*
X203310500Y-24500000D01*
X203308500Y-24500000D01*
X203305500Y-24499000D01*
X203303500Y-24499000D01*
X203300500Y-24498000D01*
X203298500Y-24498000D01*
X203295500Y-24497000D01*
X203293500Y-24496000D01*
X203290500Y-24495000D01*
X203288500Y-24493000D01*
X203286500Y-24492000D01*
X203284500Y-24490000D01*
X203282500Y-24489000D01*
X203280500Y-24487000D01*
X203278500Y-24485000D01*
X203276500Y-24483000D01*
X203274500Y-24481000D01*
X203273500Y-24479000D01*
X203271500Y-24477000D01*
X203270500Y-24475000D01*
X203268500Y-24473000D01*
X203267500Y-24470000D01*
X203266500Y-24468000D01*
X203265500Y-24465000D01*
X203265500Y-24463000D01*
X203264500Y-24460000D01*
X203264500Y-24458000D01*
X203263500Y-24455000D01*
X203263500Y-24453000D01*
X203263500Y-24450000D01*
X203263500Y-24340000D01*
X203263500Y-24337000D01*
X203263500Y-24335000D01*
X203264500Y-24332000D01*
X203264500Y-24330000D01*
X203265500Y-24327000D01*
X203265500Y-24325000D01*
X203266500Y-24322000D01*
X203267500Y-24320000D01*
X203268500Y-24317000D01*
X203270500Y-24315000D01*
X203271500Y-24313000D01*
X203273500Y-24311000D01*
X203274500Y-24309000D01*
X203276500Y-24307000D01*
X203278500Y-24305000D01*
X203280500Y-24303000D01*
X203282500Y-24301000D01*
X203284500Y-24300000D01*
X203286500Y-24298000D01*
X203288500Y-24297000D01*
X203290500Y-24295000D01*
X203293500Y-24294000D01*
X203295500Y-24293000D01*
X203298500Y-24292000D01*
X203300500Y-24292000D01*
X203303500Y-24291000D01*
X203305500Y-24291000D01*
X203308500Y-24290000D01*
X203310500Y-24290000D01*
X203313500Y-24290000D01*
X203423500Y-24290000D01*
X203426500Y-24290000D01*
X203428500Y-24290000D01*
X203431500Y-24291000D01*
G36*
X203431500Y-24291000D02*
G01*
X203433500Y-24291000D01*
X203436500Y-24292000D01*
X203438500Y-24292000D01*
X203441500Y-24293000D01*
X203443500Y-24294000D01*
X203446500Y-24295000D01*
X203448500Y-24297000D01*
X203450500Y-24298000D01*
X203452500Y-24300000D01*
X203454500Y-24301000D01*
X203456500Y-24303000D01*
X203458500Y-24305000D01*
X203460500Y-24307000D01*
X203462500Y-24309000D01*
X203463500Y-24311000D01*
X203465500Y-24313000D01*
X203466500Y-24315000D01*
X203468500Y-24317000D01*
X203469500Y-24320000D01*
X203470500Y-24322000D01*
X203471500Y-24325000D01*
X203471500Y-24327000D01*
X203472500Y-24330000D01*
X203472500Y-24332000D01*
X203473500Y-24335000D01*
X203473500Y-24337000D01*
X203473500Y-24340000D01*
X203473500Y-24450000D01*
X203473500Y-24453000D01*
X203473500Y-24455000D01*
X203472500Y-24458000D01*
X203472500Y-24460000D01*
X203471500Y-24463000D01*
X203471500Y-24465000D01*
X203470500Y-24468000D01*
X203469500Y-24470000D01*
X203468500Y-24473000D01*
X203466500Y-24475000D01*
X203465500Y-24477000D01*
X203463500Y-24479000D01*
X203462500Y-24481000D01*
X203460500Y-24483000D01*
X203458500Y-24485000D01*
X203456500Y-24487000D01*
X203454500Y-24489000D01*
X203452500Y-24490000D01*
X203450500Y-24492000D01*
X203448500Y-24493000D01*
X203446500Y-24495000D01*
X203443500Y-24496000D01*
X203441500Y-24497000D01*
X203438500Y-24498000D01*
X203436500Y-24498000D01*
X203433500Y-24499000D01*
X203431500Y-24499000D01*
X203428500Y-24500000D01*
X203426500Y-24500000D01*
X203423500Y-24500000D01*
X203313500Y-24500000D01*
X203310500Y-24500000D01*
X203308500Y-24500000D01*
X203305500Y-24499000D01*
X203303500Y-24499000D01*
X203300500Y-24498000D01*
X203298500Y-24498000D01*
X203295500Y-24497000D01*
X203293500Y-24496000D01*
X203290500Y-24495000D01*
X203288500Y-24493000D01*
X203286500Y-24492000D01*
X203284500Y-24490000D01*
X203282500Y-24489000D01*
X203280500Y-24487000D01*
X203278500Y-24485000D01*
X203276500Y-24483000D01*
X203274500Y-24481000D01*
X203273500Y-24479000D01*
X203271500Y-24477000D01*
X203270500Y-24475000D01*
X203268500Y-24473000D01*
X203267500Y-24470000D01*
X203266500Y-24468000D01*
X203265500Y-24465000D01*
X203265500Y-24463000D01*
X203264500Y-24460000D01*
X203264500Y-24458000D01*
X203263500Y-24455000D01*
X203263500Y-24453000D01*
X203263500Y-24450000D01*
X203263500Y-24340000D01*
X203263500Y-24337000D01*
X203263500Y-24335000D01*
X203264500Y-24332000D01*
X203264500Y-24330000D01*
X203265500Y-24327000D01*
X203265500Y-24325000D01*
X203266500Y-24322000D01*
X203267500Y-24320000D01*
X203268500Y-24317000D01*
X203270500Y-24315000D01*
X203271500Y-24313000D01*
X203273500Y-24311000D01*
X203274500Y-24309000D01*
X203276500Y-24307000D01*
X203278500Y-24305000D01*
X203280500Y-24303000D01*
X203282500Y-24301000D01*
X203284500Y-24300000D01*
X203286500Y-24298000D01*
X203288500Y-24297000D01*
X203290500Y-24295000D01*
X203293500Y-24294000D01*
X203295500Y-24293000D01*
X203298500Y-24292000D01*
X203300500Y-24292000D01*
X203303500Y-24291000D01*
X203305500Y-24291000D01*
X203308500Y-24290000D01*
X203310500Y-24290000D01*
X203313500Y-24290000D01*
X203423500Y-24290000D01*
X203426500Y-24290000D01*
X203428500Y-24290000D01*
X203431500Y-24291000D01*
G37*
X203073000Y-48166000D02*
X203075000Y-48166000D01*
X203078000Y-48167000D01*
X203080000Y-48167000D01*
X203083000Y-48168000D01*
X203085000Y-48169000D01*
X203088000Y-48170000D01*
X203090000Y-48172000D01*
X203092000Y-48173000D01*
X203094000Y-48175000D01*
X203096000Y-48176000D01*
X203098000Y-48178000D01*
X203100000Y-48180000D01*
X203102000Y-48182000D01*
X203104000Y-48184000D01*
X203105000Y-48186000D01*
X203107000Y-48188000D01*
X203108000Y-48190000D01*
X203110000Y-48192000D01*
X203111000Y-48195000D01*
X203112000Y-48197000D01*
X203113000Y-48200000D01*
X203113000Y-48202000D01*
X203114000Y-48205000D01*
X203114000Y-48207000D01*
X203115000Y-48210000D01*
X203115000Y-48212000D01*
X203115000Y-48215000D01*
X203115000Y-48325000D01*
X203115000Y-48328000D01*
X203115000Y-48330000D01*
X203114000Y-48333000D01*
X203114000Y-48335000D01*
X203113000Y-48338000D01*
X203113000Y-48340000D01*
X203112000Y-48343000D01*
X203111000Y-48345000D01*
X203110000Y-48348000D01*
X203108000Y-48350000D01*
X203107000Y-48352000D01*
X203105000Y-48354000D01*
X203104000Y-48356000D01*
X203102000Y-48358000D01*
X203100000Y-48360000D01*
X203098000Y-48362000D01*
X203096000Y-48364000D01*
X203094000Y-48365000D01*
X203092000Y-48367000D01*
X203090000Y-48368000D01*
X203088000Y-48370000D01*
X203085000Y-48371000D01*
X203083000Y-48372000D01*
X203080000Y-48373000D01*
X203078000Y-48373000D01*
X203075000Y-48374000D01*
X203073000Y-48374000D01*
X203070000Y-48375000D01*
X203068000Y-48375000D01*
X203065000Y-48375000D01*
X202955000Y-48375000D01*
X202952000Y-48375000D01*
X202950000Y-48375000D01*
X202947000Y-48374000D01*
X202945000Y-48374000D01*
X202942000Y-48373000D01*
X202940000Y-48373000D01*
X202937000Y-48372000D01*
X202935000Y-48371000D01*
X202932000Y-48370000D01*
X202930000Y-48368000D01*
X202928000Y-48367000D01*
X202926000Y-48365000D01*
X202924000Y-48364000D01*
X202922000Y-48362000D01*
X202920000Y-48360000D01*
X202918000Y-48358000D01*
X202916000Y-48356000D01*
X202915000Y-48354000D01*
X202913000Y-48352000D01*
X202912000Y-48350000D01*
X202910000Y-48348000D01*
X202909000Y-48345000D01*
X202908000Y-48343000D01*
X202907000Y-48340000D01*
X202907000Y-48338000D01*
X202906000Y-48335000D01*
X202906000Y-48333000D01*
X202905000Y-48330000D01*
X202905000Y-48328000D01*
X202905000Y-48325000D01*
X202905000Y-48215000D01*
X202905000Y-48212000D01*
X202905000Y-48210000D01*
X202906000Y-48207000D01*
X202906000Y-48205000D01*
X202907000Y-48202000D01*
X202907000Y-48200000D01*
X202908000Y-48197000D01*
X202909000Y-48195000D01*
X202910000Y-48192000D01*
X202912000Y-48190000D01*
X202913000Y-48188000D01*
X202915000Y-48186000D01*
X202916000Y-48184000D01*
X202918000Y-48182000D01*
X202920000Y-48180000D01*
X202922000Y-48178000D01*
X202924000Y-48176000D01*
X202926000Y-48175000D01*
X202928000Y-48173000D01*
X202930000Y-48172000D01*
X202932000Y-48170000D01*
X202935000Y-48169000D01*
X202937000Y-48168000D01*
X202940000Y-48167000D01*
X202942000Y-48167000D01*
X202945000Y-48166000D01*
X202947000Y-48166000D01*
X202950000Y-48165000D01*
X202952000Y-48165000D01*
X202955000Y-48165000D01*
X203065000Y-48165000D01*
X203068000Y-48165000D01*
X203070000Y-48165000D01*
X203073000Y-48166000D01*
G36*
X203073000Y-48166000D02*
G01*
X203075000Y-48166000D01*
X203078000Y-48167000D01*
X203080000Y-48167000D01*
X203083000Y-48168000D01*
X203085000Y-48169000D01*
X203088000Y-48170000D01*
X203090000Y-48172000D01*
X203092000Y-48173000D01*
X203094000Y-48175000D01*
X203096000Y-48176000D01*
X203098000Y-48178000D01*
X203100000Y-48180000D01*
X203102000Y-48182000D01*
X203104000Y-48184000D01*
X203105000Y-48186000D01*
X203107000Y-48188000D01*
X203108000Y-48190000D01*
X203110000Y-48192000D01*
X203111000Y-48195000D01*
X203112000Y-48197000D01*
X203113000Y-48200000D01*
X203113000Y-48202000D01*
X203114000Y-48205000D01*
X203114000Y-48207000D01*
X203115000Y-48210000D01*
X203115000Y-48212000D01*
X203115000Y-48215000D01*
X203115000Y-48325000D01*
X203115000Y-48328000D01*
X203115000Y-48330000D01*
X203114000Y-48333000D01*
X203114000Y-48335000D01*
X203113000Y-48338000D01*
X203113000Y-48340000D01*
X203112000Y-48343000D01*
X203111000Y-48345000D01*
X203110000Y-48348000D01*
X203108000Y-48350000D01*
X203107000Y-48352000D01*
X203105000Y-48354000D01*
X203104000Y-48356000D01*
X203102000Y-48358000D01*
X203100000Y-48360000D01*
X203098000Y-48362000D01*
X203096000Y-48364000D01*
X203094000Y-48365000D01*
X203092000Y-48367000D01*
X203090000Y-48368000D01*
X203088000Y-48370000D01*
X203085000Y-48371000D01*
X203083000Y-48372000D01*
X203080000Y-48373000D01*
X203078000Y-48373000D01*
X203075000Y-48374000D01*
X203073000Y-48374000D01*
X203070000Y-48375000D01*
X203068000Y-48375000D01*
X203065000Y-48375000D01*
X202955000Y-48375000D01*
X202952000Y-48375000D01*
X202950000Y-48375000D01*
X202947000Y-48374000D01*
X202945000Y-48374000D01*
X202942000Y-48373000D01*
X202940000Y-48373000D01*
X202937000Y-48372000D01*
X202935000Y-48371000D01*
X202932000Y-48370000D01*
X202930000Y-48368000D01*
X202928000Y-48367000D01*
X202926000Y-48365000D01*
X202924000Y-48364000D01*
X202922000Y-48362000D01*
X202920000Y-48360000D01*
X202918000Y-48358000D01*
X202916000Y-48356000D01*
X202915000Y-48354000D01*
X202913000Y-48352000D01*
X202912000Y-48350000D01*
X202910000Y-48348000D01*
X202909000Y-48345000D01*
X202908000Y-48343000D01*
X202907000Y-48340000D01*
X202907000Y-48338000D01*
X202906000Y-48335000D01*
X202906000Y-48333000D01*
X202905000Y-48330000D01*
X202905000Y-48328000D01*
X202905000Y-48325000D01*
X202905000Y-48215000D01*
X202905000Y-48212000D01*
X202905000Y-48210000D01*
X202906000Y-48207000D01*
X202906000Y-48205000D01*
X202907000Y-48202000D01*
X202907000Y-48200000D01*
X202908000Y-48197000D01*
X202909000Y-48195000D01*
X202910000Y-48192000D01*
X202912000Y-48190000D01*
X202913000Y-48188000D01*
X202915000Y-48186000D01*
X202916000Y-48184000D01*
X202918000Y-48182000D01*
X202920000Y-48180000D01*
X202922000Y-48178000D01*
X202924000Y-48176000D01*
X202926000Y-48175000D01*
X202928000Y-48173000D01*
X202930000Y-48172000D01*
X202932000Y-48170000D01*
X202935000Y-48169000D01*
X202937000Y-48168000D01*
X202940000Y-48167000D01*
X202942000Y-48167000D01*
X202945000Y-48166000D01*
X202947000Y-48166000D01*
X202950000Y-48165000D01*
X202952000Y-48165000D01*
X202955000Y-48165000D01*
X203065000Y-48165000D01*
X203068000Y-48165000D01*
X203070000Y-48165000D01*
X203073000Y-48166000D01*
G37*
X203323000Y-47666000D02*
X203325000Y-47666000D01*
X203328000Y-47667000D01*
X203330000Y-47667000D01*
X203333000Y-47668000D01*
X203335000Y-47669000D01*
X203338000Y-47670000D01*
X203340000Y-47672000D01*
X203342000Y-47673000D01*
X203344000Y-47675000D01*
X203346000Y-47676000D01*
X203348000Y-47678000D01*
X203350000Y-47680000D01*
X203352000Y-47682000D01*
X203354000Y-47684000D01*
X203355000Y-47686000D01*
X203357000Y-47688000D01*
X203358000Y-47690000D01*
X203360000Y-47692000D01*
X203361000Y-47695000D01*
X203362000Y-47697000D01*
X203363000Y-47700000D01*
X203363000Y-47702000D01*
X203364000Y-47705000D01*
X203364000Y-47707000D01*
X203365000Y-47710000D01*
X203365000Y-47712000D01*
X203365000Y-47715000D01*
X203365000Y-47825000D01*
X203365000Y-47828000D01*
X203365000Y-47830000D01*
X203364000Y-47833000D01*
X203364000Y-47835000D01*
X203363000Y-47838000D01*
X203363000Y-47840000D01*
X203362000Y-47843000D01*
X203361000Y-47845000D01*
X203360000Y-47848000D01*
X203358000Y-47850000D01*
X203357000Y-47852000D01*
X203355000Y-47854000D01*
X203354000Y-47856000D01*
X203352000Y-47858000D01*
X203350000Y-47860000D01*
X203348000Y-47862000D01*
X203346000Y-47864000D01*
X203344000Y-47865000D01*
X203342000Y-47867000D01*
X203340000Y-47868000D01*
X203338000Y-47870000D01*
X203335000Y-47871000D01*
X203333000Y-47872000D01*
X203330000Y-47873000D01*
X203328000Y-47873000D01*
X203325000Y-47874000D01*
X203323000Y-47874000D01*
X203320000Y-47875000D01*
X203318000Y-47875000D01*
X203315000Y-47875000D01*
X203205000Y-47875000D01*
X203202000Y-47875000D01*
X203200000Y-47875000D01*
X203197000Y-47874000D01*
X203195000Y-47874000D01*
X203192000Y-47873000D01*
X203190000Y-47873000D01*
X203187000Y-47872000D01*
X203185000Y-47871000D01*
X203182000Y-47870000D01*
X203180000Y-47868000D01*
X203178000Y-47867000D01*
X203176000Y-47865000D01*
X203174000Y-47864000D01*
X203172000Y-47862000D01*
X203170000Y-47860000D01*
X203168000Y-47858000D01*
X203166000Y-47856000D01*
X203165000Y-47854000D01*
X203163000Y-47852000D01*
X203162000Y-47850000D01*
X203160000Y-47848000D01*
X203159000Y-47845000D01*
X203158000Y-47843000D01*
X203157000Y-47840000D01*
X203157000Y-47838000D01*
X203156000Y-47835000D01*
X203156000Y-47833000D01*
X203155000Y-47830000D01*
X203155000Y-47828000D01*
X203155000Y-47825000D01*
X203155000Y-47715000D01*
X203155000Y-47712000D01*
X203155000Y-47710000D01*
X203156000Y-47707000D01*
X203156000Y-47705000D01*
X203157000Y-47702000D01*
X203157000Y-47700000D01*
X203158000Y-47697000D01*
X203159000Y-47695000D01*
X203160000Y-47692000D01*
X203162000Y-47690000D01*
X203163000Y-47688000D01*
X203165000Y-47686000D01*
X203166000Y-47684000D01*
X203168000Y-47682000D01*
X203170000Y-47680000D01*
X203172000Y-47678000D01*
X203174000Y-47676000D01*
X203176000Y-47675000D01*
X203178000Y-47673000D01*
X203180000Y-47672000D01*
X203182000Y-47670000D01*
X203185000Y-47669000D01*
X203187000Y-47668000D01*
X203190000Y-47667000D01*
X203192000Y-47667000D01*
X203195000Y-47666000D01*
X203197000Y-47666000D01*
X203200000Y-47665000D01*
X203202000Y-47665000D01*
X203205000Y-47665000D01*
X203315000Y-47665000D01*
X203318000Y-47665000D01*
X203320000Y-47665000D01*
X203323000Y-47666000D01*
G36*
X203323000Y-47666000D02*
G01*
X203325000Y-47666000D01*
X203328000Y-47667000D01*
X203330000Y-47667000D01*
X203333000Y-47668000D01*
X203335000Y-47669000D01*
X203338000Y-47670000D01*
X203340000Y-47672000D01*
X203342000Y-47673000D01*
X203344000Y-47675000D01*
X203346000Y-47676000D01*
X203348000Y-47678000D01*
X203350000Y-47680000D01*
X203352000Y-47682000D01*
X203354000Y-47684000D01*
X203355000Y-47686000D01*
X203357000Y-47688000D01*
X203358000Y-47690000D01*
X203360000Y-47692000D01*
X203361000Y-47695000D01*
X203362000Y-47697000D01*
X203363000Y-47700000D01*
X203363000Y-47702000D01*
X203364000Y-47705000D01*
X203364000Y-47707000D01*
X203365000Y-47710000D01*
X203365000Y-47712000D01*
X203365000Y-47715000D01*
X203365000Y-47825000D01*
X203365000Y-47828000D01*
X203365000Y-47830000D01*
X203364000Y-47833000D01*
X203364000Y-47835000D01*
X203363000Y-47838000D01*
X203363000Y-47840000D01*
X203362000Y-47843000D01*
X203361000Y-47845000D01*
X203360000Y-47848000D01*
X203358000Y-47850000D01*
X203357000Y-47852000D01*
X203355000Y-47854000D01*
X203354000Y-47856000D01*
X203352000Y-47858000D01*
X203350000Y-47860000D01*
X203348000Y-47862000D01*
X203346000Y-47864000D01*
X203344000Y-47865000D01*
X203342000Y-47867000D01*
X203340000Y-47868000D01*
X203338000Y-47870000D01*
X203335000Y-47871000D01*
X203333000Y-47872000D01*
X203330000Y-47873000D01*
X203328000Y-47873000D01*
X203325000Y-47874000D01*
X203323000Y-47874000D01*
X203320000Y-47875000D01*
X203318000Y-47875000D01*
X203315000Y-47875000D01*
X203205000Y-47875000D01*
X203202000Y-47875000D01*
X203200000Y-47875000D01*
X203197000Y-47874000D01*
X203195000Y-47874000D01*
X203192000Y-47873000D01*
X203190000Y-47873000D01*
X203187000Y-47872000D01*
X203185000Y-47871000D01*
X203182000Y-47870000D01*
X203180000Y-47868000D01*
X203178000Y-47867000D01*
X203176000Y-47865000D01*
X203174000Y-47864000D01*
X203172000Y-47862000D01*
X203170000Y-47860000D01*
X203168000Y-47858000D01*
X203166000Y-47856000D01*
X203165000Y-47854000D01*
X203163000Y-47852000D01*
X203162000Y-47850000D01*
X203160000Y-47848000D01*
X203159000Y-47845000D01*
X203158000Y-47843000D01*
X203157000Y-47840000D01*
X203157000Y-47838000D01*
X203156000Y-47835000D01*
X203156000Y-47833000D01*
X203155000Y-47830000D01*
X203155000Y-47828000D01*
X203155000Y-47825000D01*
X203155000Y-47715000D01*
X203155000Y-47712000D01*
X203155000Y-47710000D01*
X203156000Y-47707000D01*
X203156000Y-47705000D01*
X203157000Y-47702000D01*
X203157000Y-47700000D01*
X203158000Y-47697000D01*
X203159000Y-47695000D01*
X203160000Y-47692000D01*
X203162000Y-47690000D01*
X203163000Y-47688000D01*
X203165000Y-47686000D01*
X203166000Y-47684000D01*
X203168000Y-47682000D01*
X203170000Y-47680000D01*
X203172000Y-47678000D01*
X203174000Y-47676000D01*
X203176000Y-47675000D01*
X203178000Y-47673000D01*
X203180000Y-47672000D01*
X203182000Y-47670000D01*
X203185000Y-47669000D01*
X203187000Y-47668000D01*
X203190000Y-47667000D01*
X203192000Y-47667000D01*
X203195000Y-47666000D01*
X203197000Y-47666000D01*
X203200000Y-47665000D01*
X203202000Y-47665000D01*
X203205000Y-47665000D01*
X203315000Y-47665000D01*
X203318000Y-47665000D01*
X203320000Y-47665000D01*
X203323000Y-47666000D01*
G37*
X203323000Y-48666000D02*
X203325000Y-48666000D01*
X203328000Y-48667000D01*
X203330000Y-48667000D01*
X203333000Y-48668000D01*
X203335000Y-48669000D01*
X203338000Y-48670000D01*
X203340000Y-48672000D01*
X203342000Y-48673000D01*
X203344000Y-48675000D01*
X203346000Y-48676000D01*
X203348000Y-48678000D01*
X203350000Y-48680000D01*
X203352000Y-48682000D01*
X203354000Y-48684000D01*
X203355000Y-48686000D01*
X203357000Y-48688000D01*
X203358000Y-48690000D01*
X203360000Y-48692000D01*
X203361000Y-48695000D01*
X203362000Y-48697000D01*
X203363000Y-48700000D01*
X203363000Y-48702000D01*
X203364000Y-48705000D01*
X203364000Y-48707000D01*
X203365000Y-48710000D01*
X203365000Y-48712000D01*
X203365000Y-48715000D01*
X203365000Y-48825000D01*
X203365000Y-48828000D01*
X203365000Y-48830000D01*
X203364000Y-48833000D01*
X203364000Y-48835000D01*
X203363000Y-48838000D01*
X203363000Y-48840000D01*
X203362000Y-48843000D01*
X203361000Y-48845000D01*
X203360000Y-48848000D01*
X203358000Y-48850000D01*
X203357000Y-48852000D01*
X203355000Y-48854000D01*
X203354000Y-48856000D01*
X203352000Y-48858000D01*
X203350000Y-48860000D01*
X203348000Y-48862000D01*
X203346000Y-48864000D01*
X203344000Y-48865000D01*
X203342000Y-48867000D01*
X203340000Y-48868000D01*
X203338000Y-48870000D01*
X203335000Y-48871000D01*
X203333000Y-48872000D01*
X203330000Y-48873000D01*
X203328000Y-48873000D01*
X203325000Y-48874000D01*
X203323000Y-48874000D01*
X203320000Y-48875000D01*
X203318000Y-48875000D01*
X203315000Y-48875000D01*
X203205000Y-48875000D01*
X203202000Y-48875000D01*
X203200000Y-48875000D01*
X203197000Y-48874000D01*
X203195000Y-48874000D01*
X203192000Y-48873000D01*
X203190000Y-48873000D01*
X203187000Y-48872000D01*
X203185000Y-48871000D01*
X203182000Y-48870000D01*
X203180000Y-48868000D01*
X203178000Y-48867000D01*
X203176000Y-48865000D01*
X203174000Y-48864000D01*
X203172000Y-48862000D01*
X203170000Y-48860000D01*
X203168000Y-48858000D01*
X203166000Y-48856000D01*
X203165000Y-48854000D01*
X203163000Y-48852000D01*
X203162000Y-48850000D01*
X203160000Y-48848000D01*
X203159000Y-48845000D01*
X203158000Y-48843000D01*
X203157000Y-48840000D01*
X203157000Y-48838000D01*
X203156000Y-48835000D01*
X203156000Y-48833000D01*
X203155000Y-48830000D01*
X203155000Y-48828000D01*
X203155000Y-48825000D01*
X203155000Y-48715000D01*
X203155000Y-48712000D01*
X203155000Y-48710000D01*
X203156000Y-48707000D01*
X203156000Y-48705000D01*
X203157000Y-48702000D01*
X203157000Y-48700000D01*
X203158000Y-48697000D01*
X203159000Y-48695000D01*
X203160000Y-48692000D01*
X203162000Y-48690000D01*
X203163000Y-48688000D01*
X203165000Y-48686000D01*
X203166000Y-48684000D01*
X203168000Y-48682000D01*
X203170000Y-48680000D01*
X203172000Y-48678000D01*
X203174000Y-48676000D01*
X203176000Y-48675000D01*
X203178000Y-48673000D01*
X203180000Y-48672000D01*
X203182000Y-48670000D01*
X203185000Y-48669000D01*
X203187000Y-48668000D01*
X203190000Y-48667000D01*
X203192000Y-48667000D01*
X203195000Y-48666000D01*
X203197000Y-48666000D01*
X203200000Y-48665000D01*
X203202000Y-48665000D01*
X203205000Y-48665000D01*
X203315000Y-48665000D01*
X203318000Y-48665000D01*
X203320000Y-48665000D01*
X203323000Y-48666000D01*
G36*
X203323000Y-48666000D02*
G01*
X203325000Y-48666000D01*
X203328000Y-48667000D01*
X203330000Y-48667000D01*
X203333000Y-48668000D01*
X203335000Y-48669000D01*
X203338000Y-48670000D01*
X203340000Y-48672000D01*
X203342000Y-48673000D01*
X203344000Y-48675000D01*
X203346000Y-48676000D01*
X203348000Y-48678000D01*
X203350000Y-48680000D01*
X203352000Y-48682000D01*
X203354000Y-48684000D01*
X203355000Y-48686000D01*
X203357000Y-48688000D01*
X203358000Y-48690000D01*
X203360000Y-48692000D01*
X203361000Y-48695000D01*
X203362000Y-48697000D01*
X203363000Y-48700000D01*
X203363000Y-48702000D01*
X203364000Y-48705000D01*
X203364000Y-48707000D01*
X203365000Y-48710000D01*
X203365000Y-48712000D01*
X203365000Y-48715000D01*
X203365000Y-48825000D01*
X203365000Y-48828000D01*
X203365000Y-48830000D01*
X203364000Y-48833000D01*
X203364000Y-48835000D01*
X203363000Y-48838000D01*
X203363000Y-48840000D01*
X203362000Y-48843000D01*
X203361000Y-48845000D01*
X203360000Y-48848000D01*
X203358000Y-48850000D01*
X203357000Y-48852000D01*
X203355000Y-48854000D01*
X203354000Y-48856000D01*
X203352000Y-48858000D01*
X203350000Y-48860000D01*
X203348000Y-48862000D01*
X203346000Y-48864000D01*
X203344000Y-48865000D01*
X203342000Y-48867000D01*
X203340000Y-48868000D01*
X203338000Y-48870000D01*
X203335000Y-48871000D01*
X203333000Y-48872000D01*
X203330000Y-48873000D01*
X203328000Y-48873000D01*
X203325000Y-48874000D01*
X203323000Y-48874000D01*
X203320000Y-48875000D01*
X203318000Y-48875000D01*
X203315000Y-48875000D01*
X203205000Y-48875000D01*
X203202000Y-48875000D01*
X203200000Y-48875000D01*
X203197000Y-48874000D01*
X203195000Y-48874000D01*
X203192000Y-48873000D01*
X203190000Y-48873000D01*
X203187000Y-48872000D01*
X203185000Y-48871000D01*
X203182000Y-48870000D01*
X203180000Y-48868000D01*
X203178000Y-48867000D01*
X203176000Y-48865000D01*
X203174000Y-48864000D01*
X203172000Y-48862000D01*
X203170000Y-48860000D01*
X203168000Y-48858000D01*
X203166000Y-48856000D01*
X203165000Y-48854000D01*
X203163000Y-48852000D01*
X203162000Y-48850000D01*
X203160000Y-48848000D01*
X203159000Y-48845000D01*
X203158000Y-48843000D01*
X203157000Y-48840000D01*
X203157000Y-48838000D01*
X203156000Y-48835000D01*
X203156000Y-48833000D01*
X203155000Y-48830000D01*
X203155000Y-48828000D01*
X203155000Y-48825000D01*
X203155000Y-48715000D01*
X203155000Y-48712000D01*
X203155000Y-48710000D01*
X203156000Y-48707000D01*
X203156000Y-48705000D01*
X203157000Y-48702000D01*
X203157000Y-48700000D01*
X203158000Y-48697000D01*
X203159000Y-48695000D01*
X203160000Y-48692000D01*
X203162000Y-48690000D01*
X203163000Y-48688000D01*
X203165000Y-48686000D01*
X203166000Y-48684000D01*
X203168000Y-48682000D01*
X203170000Y-48680000D01*
X203172000Y-48678000D01*
X203174000Y-48676000D01*
X203176000Y-48675000D01*
X203178000Y-48673000D01*
X203180000Y-48672000D01*
X203182000Y-48670000D01*
X203185000Y-48669000D01*
X203187000Y-48668000D01*
X203190000Y-48667000D01*
X203192000Y-48667000D01*
X203195000Y-48666000D01*
X203197000Y-48666000D01*
X203200000Y-48665000D01*
X203202000Y-48665000D01*
X203205000Y-48665000D01*
X203315000Y-48665000D01*
X203318000Y-48665000D01*
X203320000Y-48665000D01*
X203323000Y-48666000D01*
G37*
D11*
X185070000Y-34980000D03*
X184050000Y-34980000D03*
D12*
X181560000Y-34980000D03*
X182580000Y-34980000D03*
D13*
X205576000Y-27600000D03*
X205576000Y-26800000D03*
D14*
X205576000Y-25650000D03*
X205576000Y-24650000D03*
X205576000Y-24150000D03*
X205576000Y-23150000D03*
D13*
X205576000Y-22000000D03*
X205576000Y-21200000D03*
D14*
X205576000Y-22650000D03*
X205576000Y-23650000D03*
X205576000Y-25150000D03*
X205576000Y-26150000D03*
D13*
X205576000Y-50905000D03*
X205576000Y-50105000D03*
D14*
X205576000Y-48955000D03*
X205576000Y-47955000D03*
X205576000Y-47455000D03*
X205576000Y-46455000D03*
D13*
X205576000Y-45305000D03*
X205576000Y-44505000D03*
D14*
X205576000Y-45955000D03*
X205576000Y-46955000D03*
X205576000Y-48455000D03*
X205576000Y-49455000D03*
D15*
X201360000Y-36910000D03*
X201360000Y-35890000D03*
D16*
X183490000Y-33420000D03*
X183490000Y-32470000D03*
X183490000Y-31520000D03*
X180990000Y-31520000D03*
X180990000Y-33420000D03*
D17*
X181950000Y-44750000D03*
X181450000Y-44750000D03*
X180950000Y-44750000D03*
X180450000Y-44750000D03*
D18*
X179500000Y-45700000D03*
X179500000Y-46200000D03*
X179500000Y-46700000D03*
X179500000Y-47200000D03*
D17*
X180450000Y-48150000D03*
X180950000Y-48150000D03*
X181450000Y-48150000D03*
X181950000Y-48150000D03*
D18*
X182900000Y-47200000D03*
X182900000Y-46700000D03*
X182900000Y-46200000D03*
X182900000Y-45700000D03*
D19*
X181200000Y-46450000D03*
D20*
X189470000Y-31460000D03*
X189470000Y-34410000D03*
D21*
X185960000Y-32120000D03*
D22*
X186310000Y-32150000D03*
X186660000Y-32150000D03*
X187010000Y-32150000D03*
X187010000Y-31160000D03*
X186660000Y-31160000D03*
X186310000Y-31160000D03*
X185960000Y-31160000D03*
D11*
X202010000Y-34950000D03*
X200990000Y-34950000D03*
D23*
X203168500Y-25695000D03*
X202168500Y-25695000D03*
D24*
X179770000Y-42275000D03*
X179770000Y-42965000D03*
D23*
X203152500Y-49790000D03*
X202152500Y-49790000D03*
D25*
X178120000Y-37925000D03*
X178120000Y-38885000D03*
D24*
X185830000Y-33185000D03*
X185830000Y-33875000D03*
D26*
X202850000Y-19400000D03*
X200950000Y-19400000D03*
D27*
X194470000Y-36006000D03*
X194470000Y-29956000D03*
D24*
X180520000Y-42995000D03*
X180520000Y-43685000D03*
D28*
X199920000Y-26150000D03*
X200880000Y-26150000D03*
D11*
X177890000Y-18670000D03*
X176870000Y-18670000D03*
D28*
X197772204Y-23073559D03*
X198732204Y-23073559D03*
D29*
X185987000Y-28785000D03*
X185987000Y-27515000D03*
X185987000Y-26245000D03*
X185987000Y-24975000D03*
D30*
X182495000Y-26880000D03*
D31*
X183645000Y-24353000D03*
X183645000Y-29407000D03*
D32*
X180230000Y-24975000D03*
X180230000Y-28785000D03*
D33*
X198750000Y-52440000D03*
X198750000Y-51640000D03*
X198750000Y-50840000D03*
X198750000Y-50040000D03*
X198750000Y-49240000D03*
X198750000Y-48440000D03*
X198750000Y-47640000D03*
X198750000Y-46840000D03*
X198750000Y-46040000D03*
X198750000Y-45240000D03*
X198750000Y-44440000D03*
D34*
X197650000Y-43540000D03*
X196850000Y-43540000D03*
X196050000Y-43540000D03*
X195250000Y-43540000D03*
X194450000Y-43540000D03*
X193650000Y-43540000D03*
X192850000Y-43540000D03*
X192050000Y-43540000D03*
X191250000Y-43540000D03*
X190450000Y-43540000D03*
X189650000Y-43540000D03*
X188850000Y-43540000D03*
X188050000Y-43540000D03*
D33*
X186950000Y-44440000D03*
X186950000Y-45240000D03*
X186950000Y-46040000D03*
X186950000Y-46840000D03*
X186950000Y-47640000D03*
X186950000Y-48440000D03*
X186950000Y-49240000D03*
X186950000Y-50040000D03*
X186950000Y-50840000D03*
X186950000Y-51640000D03*
X186950000Y-52440000D03*
D34*
X188050000Y-53340000D03*
X188850000Y-53340000D03*
X189650000Y-53340000D03*
X190450000Y-53340000D03*
X191250000Y-53340000D03*
X192050000Y-53340000D03*
X192850000Y-53340000D03*
X193650000Y-53340000D03*
X194450000Y-53340000D03*
X195250000Y-53340000D03*
X196050000Y-53340000D03*
X196850000Y-53340000D03*
X197650000Y-53340000D03*
D35*
X194825000Y-50415000D03*
D36*
X194825000Y-48440000D03*
X194825000Y-46465000D03*
X192850000Y-50415000D03*
X192850000Y-48440000D03*
X192850000Y-46465000D03*
X190875000Y-50415000D03*
X190875000Y-48440000D03*
X190875000Y-46465000D03*
D37*
X186900000Y-53390000D03*
X186900000Y-43490000D03*
X198800000Y-43490000D03*
X198800000Y-53390000D03*
D38*
X189200000Y-22350000D03*
X189200000Y-19400000D03*
D39*
X201486000Y-42695000D03*
X202136000Y-42695000D03*
X202786000Y-42695000D03*
X203436000Y-42695000D03*
X203436000Y-39895000D03*
X202786000Y-39895000D03*
X202136000Y-39895000D03*
X201486000Y-39895000D03*
D40*
X202461000Y-41295000D03*
D41*
X203750000Y-41620000D03*
X203750000Y-40970000D03*
X201172000Y-40970000D03*
X201172000Y-41620000D03*
D42*
X200350000Y-35900000D03*
X200350000Y-36920000D03*
D23*
X203268500Y-22395000D03*
X202268500Y-22395000D03*
D43*
X200100000Y-27260000D03*
X201200000Y-27260000D03*
D39*
X204520000Y-28570000D03*
X203870000Y-28570000D03*
X203220000Y-28570000D03*
X202570000Y-28570000D03*
X202570000Y-31370000D03*
X203220000Y-31370000D03*
X203870000Y-31370000D03*
X204520000Y-31370000D03*
D40*
X203545000Y-29970000D03*
D41*
X202256000Y-29645000D03*
X202256000Y-30295000D03*
X204834000Y-30295000D03*
X204834000Y-29645000D03*
D44*
X178360000Y-48415000D03*
X178360000Y-47725000D03*
D28*
X199900000Y-28330000D03*
X200860000Y-28330000D03*
D45*
X199250000Y-35920000D03*
X198290000Y-35920000D03*
D44*
X177580000Y-48415000D03*
X177580000Y-47725000D03*
D24*
X185050000Y-32450000D03*
X185050000Y-33140000D03*
D11*
X203400000Y-44680000D03*
X202380000Y-44680000D03*
D24*
X184840000Y-30330000D03*
X184840000Y-31020000D03*
D46*
X211600000Y-38680000D03*
X204100000Y-38680000D03*
D11*
X203281032Y-50810391D03*
X202261032Y-50810391D03*
D23*
X203268500Y-45700000D03*
X202268500Y-45700000D03*
D47*
X183766048Y-43113952D03*
X184253952Y-42626048D03*
D15*
X196840000Y-40190000D03*
X196840000Y-39170000D03*
D44*
X187240000Y-36645000D03*
X187240000Y-35955000D03*
D25*
X178840000Y-18630000D03*
X178840000Y-19590000D03*
D48*
X186238000Y-23275000D03*
X186238000Y-22625000D03*
X186238000Y-21975000D03*
X186238000Y-21325000D03*
X186238000Y-20675000D03*
X186238000Y-20025000D03*
X186238000Y-19375000D03*
X186238000Y-18725000D03*
X180362000Y-18725000D03*
X180362000Y-19375000D03*
X180362000Y-20025000D03*
X180362000Y-20675000D03*
X180362000Y-21325000D03*
X180362000Y-21975000D03*
X180362000Y-22625000D03*
X180362000Y-23275000D03*
D44*
X186150000Y-36635000D03*
X186150000Y-35945000D03*
D49*
X200520000Y-30270000D03*
X200520000Y-32170000D03*
D24*
X203340000Y-36065000D03*
X203340000Y-36755000D03*
D50*
X183220000Y-36300000D03*
X182570000Y-36300000D03*
X181920000Y-36300000D03*
X181270000Y-36300000D03*
X180620000Y-36300000D03*
D51*
X179570000Y-37350000D03*
X179570000Y-38000000D03*
X179570000Y-38650000D03*
X179570000Y-39300000D03*
X179570000Y-39950000D03*
D50*
X180620000Y-41000000D03*
X181270000Y-41000000D03*
X181920000Y-41000000D03*
X182570000Y-41000000D03*
X183220000Y-41000000D03*
D51*
X184270000Y-39950000D03*
X184270000Y-39300000D03*
X184270000Y-38650000D03*
X184270000Y-38000000D03*
X184270000Y-37350000D03*
D52*
X181920000Y-38650000D03*
D44*
X188330000Y-36635000D03*
X188330000Y-35945000D03*
D11*
X188190000Y-26130000D03*
X187170000Y-26130000D03*
X203400000Y-21320000D03*
X202380000Y-21320000D03*
D42*
X189230000Y-25060000D03*
X189230000Y-26080000D03*
D11*
X177890000Y-19690000D03*
X176870000Y-19690000D03*
D53*
X198750000Y-30660000D03*
X198750000Y-32210000D03*
D28*
X200265000Y-51870000D03*
X201225000Y-51870000D03*
D42*
X195760000Y-39170000D03*
X195760000Y-40190000D03*
D54*
X193650000Y-21660000D03*
X194300000Y-21660000D03*
X194950000Y-21660000D03*
X195600000Y-21660000D03*
D55*
X193210000Y-20260000D03*
D56*
X193650000Y-18760000D03*
X194300000Y-18760000D03*
D57*
X194625000Y-19900000D03*
D56*
X194950000Y-18760000D03*
X195600000Y-18760000D03*
D55*
X196040000Y-20260000D03*
D44*
X204110000Y-35825000D03*
X204110000Y-35135000D03*
D58*
X200010000Y-33360000D03*
X199510000Y-33360000D03*
X199010000Y-33360000D03*
X198510000Y-33360000D03*
X198510000Y-35036000D03*
X199010000Y-35036000D03*
X199510000Y-35036000D03*
X200010000Y-35036000D03*
D38*
X191700000Y-22350000D03*
X191700000Y-19400000D03*
D54*
X197250000Y-21660000D03*
X197900000Y-21660000D03*
X198550000Y-21660000D03*
X199200000Y-21660000D03*
D55*
X196810000Y-20260000D03*
D56*
X197250000Y-18760000D03*
X197900000Y-18760000D03*
D57*
X198225000Y-19900000D03*
D56*
X198550000Y-18760000D03*
X199200000Y-18760000D03*
D55*
X199640000Y-20260000D03*
D28*
X200270000Y-50840000D03*
X201230000Y-50840000D03*
D46*
X211620000Y-33970000D03*
X204120000Y-33970000D03*
D59*
X195100000Y-24650001D03*
X195100000Y-25150000D03*
X195100000Y-25650001D03*
X195100000Y-26150001D03*
X195100000Y-26650002D03*
X195100000Y-27150001D03*
D60*
X195775000Y-27825001D03*
X196274999Y-27825001D03*
X196775000Y-27825001D03*
X197275000Y-27825001D03*
X197775001Y-27825001D03*
X198275000Y-27825001D03*
D59*
X198950000Y-27150001D03*
X198950000Y-26650002D03*
X198950000Y-26150001D03*
X198950000Y-25650001D03*
X198950000Y-25150000D03*
X198950000Y-24650001D03*
D60*
X198275000Y-23975001D03*
X197775001Y-23975001D03*
X197275000Y-23975001D03*
X196775000Y-23975001D03*
X196274999Y-23975001D03*
X195775000Y-23975001D03*
D61*
X197025000Y-25900001D03*
D11*
X188180000Y-25030000D03*
X187160000Y-25030000D03*
D62*
X184085000Y-30320000D03*
X183395000Y-30320000D03*
D28*
X191570000Y-24000000D03*
X192530000Y-24000000D03*
D11*
X203300963Y-26766141D03*
X202280963Y-26766141D03*
D28*
X201000000Y-33960000D03*
X201960000Y-33960000D03*
M02*
