%TF.GenerationSoftware,KiCad,Pcbnew,9.0.2*%
%TF.CreationDate,2025-09-03T18:51:06+02:00*%
%TF.ProjectId,Afterburner_Nano,41667465-7262-4757-926e-65725f4e616e,rev?*%
%TF.SameCoordinates,Original*%
%TF.FileFunction,Drillmap*%
%TF.FilePolarity,Positive*%
%FSLAX45Y45*%
G04 Gerber Fmt 4.5, Leading zero omitted, Abs format (unit mm)*
G04 Created by KiCad (PCBNEW 9.0.2) date 2025-09-03 18:51:06*
%MOMM*%
%LPD*%
G01*
G04 APERTURE LIST*
%ADD10C,0.050000*%
%ADD11C,0.200000*%
%ADD12C,0.220000*%
G04 APERTURE END LIST*
D10*
X18275000Y-4900000D02*
X17575000Y-4900000D01*
X17475000Y-4800000D02*
X17475000Y-1900000D01*
X21125000Y-1800000D02*
X17575000Y-1800000D01*
X21125000Y-1800000D02*
G75*
G02*
X21225000Y-1900000I0J-100000D01*
G01*
X18575000Y-5300000D02*
X18575000Y-5200000D01*
X17575000Y-4900000D02*
G75*
G02*
X17475000Y-4800000I0J100000D01*
G01*
X18675000Y-5400000D02*
G75*
G02*
X18575000Y-5300000I0J100000D01*
G01*
X18275000Y-4900000D02*
G75*
G02*
X18575000Y-5200000I0J-300000D01*
G01*
X21225000Y-5300000D02*
X21225000Y-1900000D01*
X17475000Y-1900000D02*
G75*
G02*
X17575000Y-1800000I100000J0D01*
G01*
X21125000Y-5400000D02*
X18675000Y-5400000D01*
X21225000Y-5300000D02*
G75*
G02*
X21125000Y-5400000I-100000J0D01*
G01*
D11*
D12*
X17623274Y-3140000D02*
X17843274Y-3360000D01*
X17843274Y-3140000D02*
X17623274Y-3360000D01*
X19068000Y-3862000D02*
X19288000Y-4082000D01*
X19288000Y-3862000D02*
X19068000Y-4082000D01*
D11*
X17733277Y-5713984D02*
X17733277Y-5513984D01*
X17733277Y-5513984D02*
X17780896Y-5513984D01*
X17780896Y-5513984D02*
X17809467Y-5523508D01*
X17809467Y-5523508D02*
X17828515Y-5542555D01*
X17828515Y-5542555D02*
X17838039Y-5561603D01*
X17838039Y-5561603D02*
X17847563Y-5599698D01*
X17847563Y-5599698D02*
X17847563Y-5628269D01*
X17847563Y-5628269D02*
X17838039Y-5666365D01*
X17838039Y-5666365D02*
X17828515Y-5685412D01*
X17828515Y-5685412D02*
X17809467Y-5704460D01*
X17809467Y-5704460D02*
X17780896Y-5713984D01*
X17780896Y-5713984D02*
X17733277Y-5713984D01*
X17933277Y-5713984D02*
X17933277Y-5580650D01*
X17933277Y-5618746D02*
X17942801Y-5599698D01*
X17942801Y-5599698D02*
X17952324Y-5590174D01*
X17952324Y-5590174D02*
X17971372Y-5580650D01*
X17971372Y-5580650D02*
X17990420Y-5580650D01*
X18057086Y-5713984D02*
X18057086Y-5580650D01*
X18057086Y-5513984D02*
X18047563Y-5523508D01*
X18047563Y-5523508D02*
X18057086Y-5533031D01*
X18057086Y-5533031D02*
X18066610Y-5523508D01*
X18066610Y-5523508D02*
X18057086Y-5513984D01*
X18057086Y-5513984D02*
X18057086Y-5533031D01*
X18180896Y-5713984D02*
X18161848Y-5704460D01*
X18161848Y-5704460D02*
X18152324Y-5685412D01*
X18152324Y-5685412D02*
X18152324Y-5513984D01*
X18285658Y-5713984D02*
X18266610Y-5704460D01*
X18266610Y-5704460D02*
X18257086Y-5685412D01*
X18257086Y-5685412D02*
X18257086Y-5513984D01*
X18514229Y-5713984D02*
X18514229Y-5513984D01*
X18514229Y-5513984D02*
X18580896Y-5656841D01*
X18580896Y-5656841D02*
X18647563Y-5513984D01*
X18647563Y-5513984D02*
X18647563Y-5713984D01*
X18828515Y-5713984D02*
X18828515Y-5609222D01*
X18828515Y-5609222D02*
X18818991Y-5590174D01*
X18818991Y-5590174D02*
X18799944Y-5580650D01*
X18799944Y-5580650D02*
X18761848Y-5580650D01*
X18761848Y-5580650D02*
X18742801Y-5590174D01*
X18828515Y-5704460D02*
X18809467Y-5713984D01*
X18809467Y-5713984D02*
X18761848Y-5713984D01*
X18761848Y-5713984D02*
X18742801Y-5704460D01*
X18742801Y-5704460D02*
X18733277Y-5685412D01*
X18733277Y-5685412D02*
X18733277Y-5666365D01*
X18733277Y-5666365D02*
X18742801Y-5647317D01*
X18742801Y-5647317D02*
X18761848Y-5637793D01*
X18761848Y-5637793D02*
X18809467Y-5637793D01*
X18809467Y-5637793D02*
X18828515Y-5628269D01*
X18923753Y-5580650D02*
X18923753Y-5780650D01*
X18923753Y-5590174D02*
X18942801Y-5580650D01*
X18942801Y-5580650D02*
X18980896Y-5580650D01*
X18980896Y-5580650D02*
X18999944Y-5590174D01*
X18999944Y-5590174D02*
X19009467Y-5599698D01*
X19009467Y-5599698D02*
X19018991Y-5618746D01*
X19018991Y-5618746D02*
X19018991Y-5675888D01*
X19018991Y-5675888D02*
X19009467Y-5694936D01*
X19009467Y-5694936D02*
X18999944Y-5704460D01*
X18999944Y-5704460D02*
X18980896Y-5713984D01*
X18980896Y-5713984D02*
X18942801Y-5713984D01*
X18942801Y-5713984D02*
X18923753Y-5704460D01*
X19104705Y-5694936D02*
X19114229Y-5704460D01*
X19114229Y-5704460D02*
X19104705Y-5713984D01*
X19104705Y-5713984D02*
X19095182Y-5704460D01*
X19095182Y-5704460D02*
X19104705Y-5694936D01*
X19104705Y-5694936D02*
X19104705Y-5713984D01*
X19104705Y-5590174D02*
X19114229Y-5599698D01*
X19114229Y-5599698D02*
X19104705Y-5609222D01*
X19104705Y-5609222D02*
X19095182Y-5599698D01*
X19095182Y-5599698D02*
X19104705Y-5590174D01*
X19104705Y-5590174D02*
X19104705Y-5609222D01*
X17272500Y-5942500D02*
X17472500Y-6142500D01*
X17472500Y-5942500D02*
X17272500Y-6142500D01*
X17723753Y-5953031D02*
X17733277Y-5943508D01*
X17733277Y-5943508D02*
X17752324Y-5933984D01*
X17752324Y-5933984D02*
X17799944Y-5933984D01*
X17799944Y-5933984D02*
X17818991Y-5943508D01*
X17818991Y-5943508D02*
X17828515Y-5953031D01*
X17828515Y-5953031D02*
X17838039Y-5972079D01*
X17838039Y-5972079D02*
X17838039Y-5991127D01*
X17838039Y-5991127D02*
X17828515Y-6019698D01*
X17828515Y-6019698D02*
X17714229Y-6133984D01*
X17714229Y-6133984D02*
X17838039Y-6133984D01*
X17923753Y-6114936D02*
X17933277Y-6124460D01*
X17933277Y-6124460D02*
X17923753Y-6133984D01*
X17923753Y-6133984D02*
X17914229Y-6124460D01*
X17914229Y-6124460D02*
X17923753Y-6114936D01*
X17923753Y-6114936D02*
X17923753Y-6133984D01*
X18009467Y-5953031D02*
X18018991Y-5943508D01*
X18018991Y-5943508D02*
X18038039Y-5933984D01*
X18038039Y-5933984D02*
X18085658Y-5933984D01*
X18085658Y-5933984D02*
X18104705Y-5943508D01*
X18104705Y-5943508D02*
X18114229Y-5953031D01*
X18114229Y-5953031D02*
X18123753Y-5972079D01*
X18123753Y-5972079D02*
X18123753Y-5991127D01*
X18123753Y-5991127D02*
X18114229Y-6019698D01*
X18114229Y-6019698D02*
X17999944Y-6133984D01*
X17999944Y-6133984D02*
X18123753Y-6133984D01*
X18247563Y-5933984D02*
X18266610Y-5933984D01*
X18266610Y-5933984D02*
X18285658Y-5943508D01*
X18285658Y-5943508D02*
X18295182Y-5953031D01*
X18295182Y-5953031D02*
X18304705Y-5972079D01*
X18304705Y-5972079D02*
X18314229Y-6010174D01*
X18314229Y-6010174D02*
X18314229Y-6057793D01*
X18314229Y-6057793D02*
X18304705Y-6095888D01*
X18304705Y-6095888D02*
X18295182Y-6114936D01*
X18295182Y-6114936D02*
X18285658Y-6124460D01*
X18285658Y-6124460D02*
X18266610Y-6133984D01*
X18266610Y-6133984D02*
X18247563Y-6133984D01*
X18247563Y-6133984D02*
X18228515Y-6124460D01*
X18228515Y-6124460D02*
X18218991Y-6114936D01*
X18218991Y-6114936D02*
X18209467Y-6095888D01*
X18209467Y-6095888D02*
X18199944Y-6057793D01*
X18199944Y-6057793D02*
X18199944Y-6010174D01*
X18199944Y-6010174D02*
X18209467Y-5972079D01*
X18209467Y-5972079D02*
X18218991Y-5953031D01*
X18218991Y-5953031D02*
X18228515Y-5943508D01*
X18228515Y-5943508D02*
X18247563Y-5933984D01*
X18438039Y-5933984D02*
X18457086Y-5933984D01*
X18457086Y-5933984D02*
X18476134Y-5943508D01*
X18476134Y-5943508D02*
X18485658Y-5953031D01*
X18485658Y-5953031D02*
X18495182Y-5972079D01*
X18495182Y-5972079D02*
X18504705Y-6010174D01*
X18504705Y-6010174D02*
X18504705Y-6057793D01*
X18504705Y-6057793D02*
X18495182Y-6095888D01*
X18495182Y-6095888D02*
X18485658Y-6114936D01*
X18485658Y-6114936D02*
X18476134Y-6124460D01*
X18476134Y-6124460D02*
X18457086Y-6133984D01*
X18457086Y-6133984D02*
X18438039Y-6133984D01*
X18438039Y-6133984D02*
X18418991Y-6124460D01*
X18418991Y-6124460D02*
X18409467Y-6114936D01*
X18409467Y-6114936D02*
X18399944Y-6095888D01*
X18399944Y-6095888D02*
X18390420Y-6057793D01*
X18390420Y-6057793D02*
X18390420Y-6010174D01*
X18390420Y-6010174D02*
X18399944Y-5972079D01*
X18399944Y-5972079D02*
X18409467Y-5953031D01*
X18409467Y-5953031D02*
X18418991Y-5943508D01*
X18418991Y-5943508D02*
X18438039Y-5933984D01*
X18590420Y-6133984D02*
X18590420Y-6000650D01*
X18590420Y-6019698D02*
X18599944Y-6010174D01*
X18599944Y-6010174D02*
X18618991Y-6000650D01*
X18618991Y-6000650D02*
X18647563Y-6000650D01*
X18647563Y-6000650D02*
X18666610Y-6010174D01*
X18666610Y-6010174D02*
X18676134Y-6029222D01*
X18676134Y-6029222D02*
X18676134Y-6133984D01*
X18676134Y-6029222D02*
X18685658Y-6010174D01*
X18685658Y-6010174D02*
X18704705Y-6000650D01*
X18704705Y-6000650D02*
X18733277Y-6000650D01*
X18733277Y-6000650D02*
X18752325Y-6010174D01*
X18752325Y-6010174D02*
X18761848Y-6029222D01*
X18761848Y-6029222D02*
X18761848Y-6133984D01*
X18857086Y-6133984D02*
X18857086Y-6000650D01*
X18857086Y-6019698D02*
X18866610Y-6010174D01*
X18866610Y-6010174D02*
X18885658Y-6000650D01*
X18885658Y-6000650D02*
X18914229Y-6000650D01*
X18914229Y-6000650D02*
X18933277Y-6010174D01*
X18933277Y-6010174D02*
X18942801Y-6029222D01*
X18942801Y-6029222D02*
X18942801Y-6133984D01*
X18942801Y-6029222D02*
X18952325Y-6010174D01*
X18952325Y-6010174D02*
X18971372Y-6000650D01*
X18971372Y-6000650D02*
X18999944Y-6000650D01*
X18999944Y-6000650D02*
X19018991Y-6010174D01*
X19018991Y-6010174D02*
X19028515Y-6029222D01*
X19028515Y-6029222D02*
X19028515Y-6133984D01*
X19418991Y-5924460D02*
X19247563Y-6181603D01*
X19676134Y-5933984D02*
X19695182Y-5933984D01*
X19695182Y-5933984D02*
X19714229Y-5943508D01*
X19714229Y-5943508D02*
X19723753Y-5953031D01*
X19723753Y-5953031D02*
X19733277Y-5972079D01*
X19733277Y-5972079D02*
X19742801Y-6010174D01*
X19742801Y-6010174D02*
X19742801Y-6057793D01*
X19742801Y-6057793D02*
X19733277Y-6095888D01*
X19733277Y-6095888D02*
X19723753Y-6114936D01*
X19723753Y-6114936D02*
X19714229Y-6124460D01*
X19714229Y-6124460D02*
X19695182Y-6133984D01*
X19695182Y-6133984D02*
X19676134Y-6133984D01*
X19676134Y-6133984D02*
X19657087Y-6124460D01*
X19657087Y-6124460D02*
X19647563Y-6114936D01*
X19647563Y-6114936D02*
X19638039Y-6095888D01*
X19638039Y-6095888D02*
X19628515Y-6057793D01*
X19628515Y-6057793D02*
X19628515Y-6010174D01*
X19628515Y-6010174D02*
X19638039Y-5972079D01*
X19638039Y-5972079D02*
X19647563Y-5953031D01*
X19647563Y-5953031D02*
X19657087Y-5943508D01*
X19657087Y-5943508D02*
X19676134Y-5933984D01*
X19828515Y-6114936D02*
X19838039Y-6124460D01*
X19838039Y-6124460D02*
X19828515Y-6133984D01*
X19828515Y-6133984D02*
X19818991Y-6124460D01*
X19818991Y-6124460D02*
X19828515Y-6114936D01*
X19828515Y-6114936D02*
X19828515Y-6133984D01*
X19961848Y-5933984D02*
X19980896Y-5933984D01*
X19980896Y-5933984D02*
X19999944Y-5943508D01*
X19999944Y-5943508D02*
X20009468Y-5953031D01*
X20009468Y-5953031D02*
X20018991Y-5972079D01*
X20018991Y-5972079D02*
X20028515Y-6010174D01*
X20028515Y-6010174D02*
X20028515Y-6057793D01*
X20028515Y-6057793D02*
X20018991Y-6095888D01*
X20018991Y-6095888D02*
X20009468Y-6114936D01*
X20009468Y-6114936D02*
X19999944Y-6124460D01*
X19999944Y-6124460D02*
X19980896Y-6133984D01*
X19980896Y-6133984D02*
X19961848Y-6133984D01*
X19961848Y-6133984D02*
X19942801Y-6124460D01*
X19942801Y-6124460D02*
X19933277Y-6114936D01*
X19933277Y-6114936D02*
X19923753Y-6095888D01*
X19923753Y-6095888D02*
X19914229Y-6057793D01*
X19914229Y-6057793D02*
X19914229Y-6010174D01*
X19914229Y-6010174D02*
X19923753Y-5972079D01*
X19923753Y-5972079D02*
X19933277Y-5953031D01*
X19933277Y-5953031D02*
X19942801Y-5943508D01*
X19942801Y-5943508D02*
X19961848Y-5933984D01*
X20142801Y-6019698D02*
X20123753Y-6010174D01*
X20123753Y-6010174D02*
X20114229Y-6000650D01*
X20114229Y-6000650D02*
X20104706Y-5981603D01*
X20104706Y-5981603D02*
X20104706Y-5972079D01*
X20104706Y-5972079D02*
X20114229Y-5953031D01*
X20114229Y-5953031D02*
X20123753Y-5943508D01*
X20123753Y-5943508D02*
X20142801Y-5933984D01*
X20142801Y-5933984D02*
X20180896Y-5933984D01*
X20180896Y-5933984D02*
X20199944Y-5943508D01*
X20199944Y-5943508D02*
X20209468Y-5953031D01*
X20209468Y-5953031D02*
X20218991Y-5972079D01*
X20218991Y-5972079D02*
X20218991Y-5981603D01*
X20218991Y-5981603D02*
X20209468Y-6000650D01*
X20209468Y-6000650D02*
X20199944Y-6010174D01*
X20199944Y-6010174D02*
X20180896Y-6019698D01*
X20180896Y-6019698D02*
X20142801Y-6019698D01*
X20142801Y-6019698D02*
X20123753Y-6029222D01*
X20123753Y-6029222D02*
X20114229Y-6038746D01*
X20114229Y-6038746D02*
X20104706Y-6057793D01*
X20104706Y-6057793D02*
X20104706Y-6095888D01*
X20104706Y-6095888D02*
X20114229Y-6114936D01*
X20114229Y-6114936D02*
X20123753Y-6124460D01*
X20123753Y-6124460D02*
X20142801Y-6133984D01*
X20142801Y-6133984D02*
X20180896Y-6133984D01*
X20180896Y-6133984D02*
X20199944Y-6124460D01*
X20199944Y-6124460D02*
X20209468Y-6114936D01*
X20209468Y-6114936D02*
X20218991Y-6095888D01*
X20218991Y-6095888D02*
X20218991Y-6057793D01*
X20218991Y-6057793D02*
X20209468Y-6038746D01*
X20209468Y-6038746D02*
X20199944Y-6029222D01*
X20199944Y-6029222D02*
X20180896Y-6019698D01*
X20390420Y-5933984D02*
X20352325Y-5933984D01*
X20352325Y-5933984D02*
X20333277Y-5943508D01*
X20333277Y-5943508D02*
X20323753Y-5953031D01*
X20323753Y-5953031D02*
X20304706Y-5981603D01*
X20304706Y-5981603D02*
X20295182Y-6019698D01*
X20295182Y-6019698D02*
X20295182Y-6095888D01*
X20295182Y-6095888D02*
X20304706Y-6114936D01*
X20304706Y-6114936D02*
X20314229Y-6124460D01*
X20314229Y-6124460D02*
X20333277Y-6133984D01*
X20333277Y-6133984D02*
X20371372Y-6133984D01*
X20371372Y-6133984D02*
X20390420Y-6124460D01*
X20390420Y-6124460D02*
X20399944Y-6114936D01*
X20399944Y-6114936D02*
X20409468Y-6095888D01*
X20409468Y-6095888D02*
X20409468Y-6048269D01*
X20409468Y-6048269D02*
X20399944Y-6029222D01*
X20399944Y-6029222D02*
X20390420Y-6019698D01*
X20390420Y-6019698D02*
X20371372Y-6010174D01*
X20371372Y-6010174D02*
X20333277Y-6010174D01*
X20333277Y-6010174D02*
X20314229Y-6019698D01*
X20314229Y-6019698D02*
X20304706Y-6029222D01*
X20304706Y-6029222D02*
X20295182Y-6048269D01*
X20580896Y-5933984D02*
X20542801Y-5933984D01*
X20542801Y-5933984D02*
X20523753Y-5943508D01*
X20523753Y-5943508D02*
X20514229Y-5953031D01*
X20514229Y-5953031D02*
X20495182Y-5981603D01*
X20495182Y-5981603D02*
X20485658Y-6019698D01*
X20485658Y-6019698D02*
X20485658Y-6095888D01*
X20485658Y-6095888D02*
X20495182Y-6114936D01*
X20495182Y-6114936D02*
X20504706Y-6124460D01*
X20504706Y-6124460D02*
X20523753Y-6133984D01*
X20523753Y-6133984D02*
X20561849Y-6133984D01*
X20561849Y-6133984D02*
X20580896Y-6124460D01*
X20580896Y-6124460D02*
X20590420Y-6114936D01*
X20590420Y-6114936D02*
X20599944Y-6095888D01*
X20599944Y-6095888D02*
X20599944Y-6048269D01*
X20599944Y-6048269D02*
X20590420Y-6029222D01*
X20590420Y-6029222D02*
X20580896Y-6019698D01*
X20580896Y-6019698D02*
X20561849Y-6010174D01*
X20561849Y-6010174D02*
X20523753Y-6010174D01*
X20523753Y-6010174D02*
X20504706Y-6019698D01*
X20504706Y-6019698D02*
X20495182Y-6029222D01*
X20495182Y-6029222D02*
X20485658Y-6048269D01*
X20676134Y-5933984D02*
X20676134Y-5972079D01*
X20752325Y-5933984D02*
X20752325Y-5972079D01*
X21047563Y-6210174D02*
X21038039Y-6200650D01*
X21038039Y-6200650D02*
X21018991Y-6172079D01*
X21018991Y-6172079D02*
X21009468Y-6153031D01*
X21009468Y-6153031D02*
X20999944Y-6124460D01*
X20999944Y-6124460D02*
X20990420Y-6076841D01*
X20990420Y-6076841D02*
X20990420Y-6038746D01*
X20990420Y-6038746D02*
X20999944Y-5991127D01*
X20999944Y-5991127D02*
X21009468Y-5962555D01*
X21009468Y-5962555D02*
X21018991Y-5943508D01*
X21018991Y-5943508D02*
X21038039Y-5914936D01*
X21038039Y-5914936D02*
X21047563Y-5905412D01*
X21114230Y-5953031D02*
X21123753Y-5943508D01*
X21123753Y-5943508D02*
X21142801Y-5933984D01*
X21142801Y-5933984D02*
X21190420Y-5933984D01*
X21190420Y-5933984D02*
X21209468Y-5943508D01*
X21209468Y-5943508D02*
X21218991Y-5953031D01*
X21218991Y-5953031D02*
X21228515Y-5972079D01*
X21228515Y-5972079D02*
X21228515Y-5991127D01*
X21228515Y-5991127D02*
X21218991Y-6019698D01*
X21218991Y-6019698D02*
X21104706Y-6133984D01*
X21104706Y-6133984D02*
X21228515Y-6133984D01*
X21466611Y-6133984D02*
X21466611Y-5933984D01*
X21552325Y-6133984D02*
X21552325Y-6029222D01*
X21552325Y-6029222D02*
X21542801Y-6010174D01*
X21542801Y-6010174D02*
X21523753Y-6000650D01*
X21523753Y-6000650D02*
X21495182Y-6000650D01*
X21495182Y-6000650D02*
X21476134Y-6010174D01*
X21476134Y-6010174D02*
X21466611Y-6019698D01*
X21676134Y-6133984D02*
X21657087Y-6124460D01*
X21657087Y-6124460D02*
X21647563Y-6114936D01*
X21647563Y-6114936D02*
X21638039Y-6095888D01*
X21638039Y-6095888D02*
X21638039Y-6038746D01*
X21638039Y-6038746D02*
X21647563Y-6019698D01*
X21647563Y-6019698D02*
X21657087Y-6010174D01*
X21657087Y-6010174D02*
X21676134Y-6000650D01*
X21676134Y-6000650D02*
X21704706Y-6000650D01*
X21704706Y-6000650D02*
X21723753Y-6010174D01*
X21723753Y-6010174D02*
X21733277Y-6019698D01*
X21733277Y-6019698D02*
X21742801Y-6038746D01*
X21742801Y-6038746D02*
X21742801Y-6095888D01*
X21742801Y-6095888D02*
X21733277Y-6114936D01*
X21733277Y-6114936D02*
X21723753Y-6124460D01*
X21723753Y-6124460D02*
X21704706Y-6133984D01*
X21704706Y-6133984D02*
X21676134Y-6133984D01*
X21857087Y-6133984D02*
X21838039Y-6124460D01*
X21838039Y-6124460D02*
X21828515Y-6105412D01*
X21828515Y-6105412D02*
X21828515Y-5933984D01*
X22009468Y-6124460D02*
X21990420Y-6133984D01*
X21990420Y-6133984D02*
X21952325Y-6133984D01*
X21952325Y-6133984D02*
X21933277Y-6124460D01*
X21933277Y-6124460D02*
X21923753Y-6105412D01*
X21923753Y-6105412D02*
X21923753Y-6029222D01*
X21923753Y-6029222D02*
X21933277Y-6010174D01*
X21933277Y-6010174D02*
X21952325Y-6000650D01*
X21952325Y-6000650D02*
X21990420Y-6000650D01*
X21990420Y-6000650D02*
X22009468Y-6010174D01*
X22009468Y-6010174D02*
X22018992Y-6029222D01*
X22018992Y-6029222D02*
X22018992Y-6048269D01*
X22018992Y-6048269D02*
X21923753Y-6067317D01*
X22095182Y-6124460D02*
X22114230Y-6133984D01*
X22114230Y-6133984D02*
X22152325Y-6133984D01*
X22152325Y-6133984D02*
X22171373Y-6124460D01*
X22171373Y-6124460D02*
X22180896Y-6105412D01*
X22180896Y-6105412D02*
X22180896Y-6095888D01*
X22180896Y-6095888D02*
X22171373Y-6076841D01*
X22171373Y-6076841D02*
X22152325Y-6067317D01*
X22152325Y-6067317D02*
X22123753Y-6067317D01*
X22123753Y-6067317D02*
X22104706Y-6057793D01*
X22104706Y-6057793D02*
X22095182Y-6038746D01*
X22095182Y-6038746D02*
X22095182Y-6029222D01*
X22095182Y-6029222D02*
X22104706Y-6010174D01*
X22104706Y-6010174D02*
X22123753Y-6000650D01*
X22123753Y-6000650D02*
X22152325Y-6000650D01*
X22152325Y-6000650D02*
X22171373Y-6010174D01*
X22247563Y-6210174D02*
X22257087Y-6200650D01*
X22257087Y-6200650D02*
X22276134Y-6172079D01*
X22276134Y-6172079D02*
X22285658Y-6153031D01*
X22285658Y-6153031D02*
X22295182Y-6124460D01*
X22295182Y-6124460D02*
X22304706Y-6076841D01*
X22304706Y-6076841D02*
X22304706Y-6038746D01*
X22304706Y-6038746D02*
X22295182Y-5991127D01*
X22295182Y-5991127D02*
X22285658Y-5962555D01*
X22285658Y-5962555D02*
X22276134Y-5943508D01*
X22276134Y-5943508D02*
X22257087Y-5914936D01*
X22257087Y-5914936D02*
X22247563Y-5905412D01*
X22609468Y-6210174D02*
X22599944Y-6200650D01*
X22599944Y-6200650D02*
X22580896Y-6172079D01*
X22580896Y-6172079D02*
X22571372Y-6153031D01*
X22571372Y-6153031D02*
X22561849Y-6124460D01*
X22561849Y-6124460D02*
X22552325Y-6076841D01*
X22552325Y-6076841D02*
X22552325Y-6038746D01*
X22552325Y-6038746D02*
X22561849Y-5991127D01*
X22561849Y-5991127D02*
X22571372Y-5962555D01*
X22571372Y-5962555D02*
X22580896Y-5943508D01*
X22580896Y-5943508D02*
X22599944Y-5914936D01*
X22599944Y-5914936D02*
X22609468Y-5905412D01*
X22685658Y-6000650D02*
X22685658Y-6133984D01*
X22685658Y-6019698D02*
X22695182Y-6010174D01*
X22695182Y-6010174D02*
X22714230Y-6000650D01*
X22714230Y-6000650D02*
X22742801Y-6000650D01*
X22742801Y-6000650D02*
X22761849Y-6010174D01*
X22761849Y-6010174D02*
X22771372Y-6029222D01*
X22771372Y-6029222D02*
X22771372Y-6133984D01*
X22895182Y-6133984D02*
X22876134Y-6124460D01*
X22876134Y-6124460D02*
X22866611Y-6114936D01*
X22866611Y-6114936D02*
X22857087Y-6095888D01*
X22857087Y-6095888D02*
X22857087Y-6038746D01*
X22857087Y-6038746D02*
X22866611Y-6019698D01*
X22866611Y-6019698D02*
X22876134Y-6010174D01*
X22876134Y-6010174D02*
X22895182Y-6000650D01*
X22895182Y-6000650D02*
X22923753Y-6000650D01*
X22923753Y-6000650D02*
X22942801Y-6010174D01*
X22942801Y-6010174D02*
X22952325Y-6019698D01*
X22952325Y-6019698D02*
X22961849Y-6038746D01*
X22961849Y-6038746D02*
X22961849Y-6095888D01*
X22961849Y-6095888D02*
X22952325Y-6114936D01*
X22952325Y-6114936D02*
X22942801Y-6124460D01*
X22942801Y-6124460D02*
X22923753Y-6133984D01*
X22923753Y-6133984D02*
X22895182Y-6133984D01*
X23018992Y-6000650D02*
X23095182Y-6000650D01*
X23047563Y-5933984D02*
X23047563Y-6105412D01*
X23047563Y-6105412D02*
X23057087Y-6124460D01*
X23057087Y-6124460D02*
X23076134Y-6133984D01*
X23076134Y-6133984D02*
X23095182Y-6133984D01*
X23314230Y-6000650D02*
X23314230Y-6200650D01*
X23314230Y-6010174D02*
X23333277Y-6000650D01*
X23333277Y-6000650D02*
X23371373Y-6000650D01*
X23371373Y-6000650D02*
X23390420Y-6010174D01*
X23390420Y-6010174D02*
X23399944Y-6019698D01*
X23399944Y-6019698D02*
X23409468Y-6038746D01*
X23409468Y-6038746D02*
X23409468Y-6095888D01*
X23409468Y-6095888D02*
X23399944Y-6114936D01*
X23399944Y-6114936D02*
X23390420Y-6124460D01*
X23390420Y-6124460D02*
X23371373Y-6133984D01*
X23371373Y-6133984D02*
X23333277Y-6133984D01*
X23333277Y-6133984D02*
X23314230Y-6124460D01*
X23523753Y-6133984D02*
X23504706Y-6124460D01*
X23504706Y-6124460D02*
X23495182Y-6105412D01*
X23495182Y-6105412D02*
X23495182Y-5933984D01*
X23685658Y-6133984D02*
X23685658Y-6029222D01*
X23685658Y-6029222D02*
X23676134Y-6010174D01*
X23676134Y-6010174D02*
X23657087Y-6000650D01*
X23657087Y-6000650D02*
X23618992Y-6000650D01*
X23618992Y-6000650D02*
X23599944Y-6010174D01*
X23685658Y-6124460D02*
X23666611Y-6133984D01*
X23666611Y-6133984D02*
X23618992Y-6133984D01*
X23618992Y-6133984D02*
X23599944Y-6124460D01*
X23599944Y-6124460D02*
X23590420Y-6105412D01*
X23590420Y-6105412D02*
X23590420Y-6086365D01*
X23590420Y-6086365D02*
X23599944Y-6067317D01*
X23599944Y-6067317D02*
X23618992Y-6057793D01*
X23618992Y-6057793D02*
X23666611Y-6057793D01*
X23666611Y-6057793D02*
X23685658Y-6048269D01*
X23752325Y-6000650D02*
X23828515Y-6000650D01*
X23780896Y-5933984D02*
X23780896Y-6105412D01*
X23780896Y-6105412D02*
X23790420Y-6124460D01*
X23790420Y-6124460D02*
X23809468Y-6133984D01*
X23809468Y-6133984D02*
X23828515Y-6133984D01*
X23971373Y-6124460D02*
X23952325Y-6133984D01*
X23952325Y-6133984D02*
X23914230Y-6133984D01*
X23914230Y-6133984D02*
X23895182Y-6124460D01*
X23895182Y-6124460D02*
X23885658Y-6105412D01*
X23885658Y-6105412D02*
X23885658Y-6029222D01*
X23885658Y-6029222D02*
X23895182Y-6010174D01*
X23895182Y-6010174D02*
X23914230Y-6000650D01*
X23914230Y-6000650D02*
X23952325Y-6000650D01*
X23952325Y-6000650D02*
X23971373Y-6010174D01*
X23971373Y-6010174D02*
X23980896Y-6029222D01*
X23980896Y-6029222D02*
X23980896Y-6048269D01*
X23980896Y-6048269D02*
X23885658Y-6067317D01*
X24152325Y-6133984D02*
X24152325Y-5933984D01*
X24152325Y-6124460D02*
X24133277Y-6133984D01*
X24133277Y-6133984D02*
X24095182Y-6133984D01*
X24095182Y-6133984D02*
X24076134Y-6124460D01*
X24076134Y-6124460D02*
X24066611Y-6114936D01*
X24066611Y-6114936D02*
X24057087Y-6095888D01*
X24057087Y-6095888D02*
X24057087Y-6038746D01*
X24057087Y-6038746D02*
X24066611Y-6019698D01*
X24066611Y-6019698D02*
X24076134Y-6010174D01*
X24076134Y-6010174D02*
X24095182Y-6000650D01*
X24095182Y-6000650D02*
X24133277Y-6000650D01*
X24133277Y-6000650D02*
X24152325Y-6010174D01*
X24228515Y-6210174D02*
X24238039Y-6200650D01*
X24238039Y-6200650D02*
X24257087Y-6172079D01*
X24257087Y-6172079D02*
X24266611Y-6153031D01*
X24266611Y-6153031D02*
X24276134Y-6124460D01*
X24276134Y-6124460D02*
X24285658Y-6076841D01*
X24285658Y-6076841D02*
X24285658Y-6038746D01*
X24285658Y-6038746D02*
X24276134Y-5991127D01*
X24276134Y-5991127D02*
X24266611Y-5962555D01*
X24266611Y-5962555D02*
X24257087Y-5943508D01*
X24257087Y-5943508D02*
X24238039Y-5914936D01*
X24238039Y-5914936D02*
X24228515Y-5905412D01*
M02*
