M48
; DRILL file {KiCad 9.0.2} date 2025-09-03T18:51:06+0200
; FORMAT={-:-/ absolute / metric / decimal}
; #@! TF.CreationDate,2025-09-03T18:51:06+02:00
; #@! TF.GenerationSoftware,Kicad,Pcbnew,9.0.2
; #@! TF.FileFunction,Plated,1,4,PTH
FMAT,2
METRIC
; #@! TA.AperFunction,Plated,PTH,ViaDrill
T1C0.350
; #@! TA.AperFunction,Plated,PTH,ComponentDrill
T2C0.400
; #@! TA.AperFunction,Plated,PTH,ComponentDrill
T3C0.600
; #@! TA.AperFunction,Plated,PTH,ComponentDrill
T4C1.020
; #@! TA.AperFunction,Plated,PTH,ComponentDrill
T5C1.300
%
G90
G05
T1
X177.44Y-19.63
X177.45Y-18.6
X178.45Y-45.55
X179.45Y-44.75
X180.62Y-42.3
X181.515Y-42.425
X182.36Y-19.81
X182.919Y-42.3
X183.17Y-44.94
X183.35Y-19.59
X184.02Y-20.25
X184.26Y-46.25
X184.9Y-31.68
X185.08Y-46.24
X185.47Y-47.37
X185.96Y-29.97
X186.16Y-37.26
X187.26Y-37.29
X187.567Y-20.359
X187.68Y-21.1
X187.99Y-45.84
X188.245Y-44.505
X188.34Y-37.28
X188.35Y-30.15
X188.59Y-46.29
X189.35Y-30.15
X190.35Y-30.15
X190.92Y-29.05
X191.8Y-29.02
X192.33Y-28.17
X192.33Y-28.18
X192.9Y-23.95
X193.04Y-27.25
X193.33Y-28.17
X193.8Y-26.125
X194.06Y-37.62
X194.33Y-28.17
X195.06Y-37.62
X195.23Y-42.64
X195.75Y-22.5
X195.75Y-38.39
X196.29Y-37.62
X196.95Y-23.05
X197.25Y-21.75
X197.3Y-37.62
X197.55Y-29.01
X197.6Y-40.19
X197.734Y-46.828
X197.78Y-23.04
X198.3Y-37.62
X199.02Y-36.89
X199.65Y-23.1
X200.0Y-24.8
X200.35Y-36.92
X201.96Y-33.96
X202.069Y-23.895
X202.41Y-48.27
X203.268Y-22.395
X204.09Y-38.18
X204.12Y-33.97
X205.4Y-33.95
X205.594Y-21.2
X205.594Y-27.6
X205.594Y-44.505
X205.594Y-50.905
T2
X175.5Y-22.0
X175.5Y-23.0
X175.5Y-24.0
X175.5Y-27.0
X175.5Y-28.0
X175.5Y-29.0
X176.5Y-22.0
X176.5Y-23.0
X176.5Y-24.0
X176.5Y-27.0
X176.5Y-28.0
X176.5Y-29.0
X177.5Y-22.0
X177.5Y-23.0
X177.5Y-24.0
X177.5Y-27.0
X177.5Y-28.0
X177.5Y-29.0
X178.5Y-22.0
X178.5Y-23.0
X178.5Y-24.0
X178.5Y-27.0
X178.5Y-28.0
X178.5Y-29.0
T3
X175.85Y-36.3
X175.85Y-37.8
X175.85Y-39.3
X175.85Y-40.8
X175.85Y-43.45
X175.85Y-44.95
X175.85Y-46.45
X175.85Y-47.95
T4
X207.65Y-21.15
X207.65Y-27.65
X207.65Y-44.455
X207.65Y-50.955
T5
X207.55Y-19.505
X207.55Y-29.295
X207.55Y-42.81
X207.55Y-52.6
X210.55Y-19.505
X210.55Y-29.295
X210.55Y-42.81
X210.55Y-52.6
M30
